<mxfile host="65bd71144e">
    <diagram id="bj_Bv7fQZntlDlqPWxO6" name="ページ1">
        <mxGraphModel dx="1134" dy="389" grid="1" gridSize="10" guides="1" tooltips="1" connect="1" arrows="1" fold="1" page="0" pageScale="1" pageWidth="827" pageHeight="1169" background="none" math="0" shadow="0">
            <root>
                <mxCell id="0"/>
                <mxCell id="1" parent="0"/>
                <mxCell id="2" value="" style="shape=image;verticalLabelPosition=bottom;labelBackgroundColor=default;verticalAlign=top;aspect=fixed;imageAspect=0;image=data:image/png,iVBORw0KGgoAAAANSUhEUgAAAOEAAADhCAMAAAAJbSJIAAAA51BMVEX///8utn3ssi7gHlo2xfDfDVTeAEkgwu8TsnTrsCP99ffrrAf++/Ww3sjT7eDV8Pux5PjyzIbqgZoAsHBXzPL75uv89eiJ2fX23bDeAEfeAEwSwO/fAFDfEVXssCb42uH0+/71+/jH7Pro9/3wqbn67NSg3/fk9Ox3yqN91fS45/m54s6d17vz0ZH99vjhL2Puu1Hxrr3zusf66tDvwGI+uoWEzqvG59e14Mtrxp1XwJHunrD447712KTlV3znaIjkTHTxyHnpdJDtkqf2zdaT1LVNvozttjz31d3005bvvVjtlarwxW94YbntAAALG0lEQVR4nO2cd1/iTBDHQ0+MHRSBUAQeFRuK7ez19Dzv/b+eJwktZbOZIVsIn/z+Zt18ndk+M4qSCKPOYblXymazpd5eu4Vrunp8fXeVSl3dXa+scvk2BuqUs4VCITtUoVArHYKb3twWVTU1kqqq1/MIuVaqjemyE8o9UNOV1IRuQnl1xPl7sWqValmCCoX10KY3fr4h476A7wbrkMhnM5Za9KYHRRKfpeJvId8OUs/rny7GNUrLXbIBR2a8E0YQohINMJuttQNb7lP4bO0KxAhWCCAFMRRwPhCpLjpCJDvqbjhg6lMwDUHr4YCmiE0/wwFT6oFgHp86gbOoU4UeoekxwITmjHojnMmtEgSQOBT3A5cJjxUlUDnUBvko0U9vYYApVe6yCOXLFrybVKgJJRsRbkKfEQ+ggCn1WArbUD04oGfF2AWb0JQkOkugiXTkpu5zxhFoIh2qKG8PjnFSj5vCnVSqm+5hCGstZ1MEYCp1K4kPvBiO3NQ5EFHDUOJAxABmXYfhVcQwNAeitP03YqLxTDU3KEJV1lTTwhGWHU1/4QhlXUxFIFxJCOeDEDkO40iIAYwnIWJbGlNC1J4mloRrC0+oLD4hZiDGkxDjpvEkxJwuYkrYhi/6MSVEGDGuhPC9aVwJKY+ji0KolIHzaXwJIc9rMScEIsaZUNmDjMVYEyrtQrgZ401ozjehZow7odLp+WKiFozQXPzXS7VCsLsuAKGpVnuv3CsFyHkjHFtCsBLChHD+lRAmhPOvhDAhnH8lhPwJO2uR1BFMuLu/uroKDmforPey1hkhkmrZ3mFLDOHq8Z1aVC0VU7cr4ZiH/tSXGVWolYKD9FkR7h6nVOefUoufv6h861lGeCPIbFDqEyPC30X/31HVlUC+NbZ8NmOJPCSZEB6p5L8SmFAEujFDq0bMfGJBeBv8N4rEaEbgxS4esUzoLDrh7hXtT6iEcMbQzJeZRUpFiEy4G9bElzPFD5CIGJUwDNCPCH1emRHRl2kZlfAK0Oja2QDxlDuTfIlPEQmvIc2LjjTUFlcL2mJKuAqLMFangbe8ptGpvH4ajRDabpIVBsvOiiZ3HHs0QnDjSRoDKgBvRhXK7AjhDUdGxAXCzozIjBARIz4KgYflSEYmbLMihCa9WQ2Hm3BU1sTs6rEixKRqDJd9IU7qcdMIhKhUjaLVAhUkGoWww4YQllzrbClmGHoGYgRCxDAcDUS+W1IH4TobQkgG+LSllWIrYjW0CRm9AWMaDldEYYSM3vFxWW+3CSEvQkySrCd3DUd4IHKmYZSdhyK0j8FSVgtAVROHisrMhNZqgUtXjkDYmfk7r2YntKpqiDlaeA8XqFXtembC4eFCxs5b+Y1wU/VoZsKh9VH5WTPLUxgDs392JzpjCEeZ/CIuMXzXGJitifv+GkM4vsYQ4aa+W2H4mu+5w8AfD83zk4ibKN8bFJjQUyoKQTj93/A3YoSL/aLnKhFBOL3Y5z8SC55RaAlwM2/J+4oEJ3TWROE9ndZIb8GwKkOqt2IEvDaR6xGR59NTQKkv2H2E10cRhJ7HJ66AJSKgohyEIhb9b/JQwitPu5YEQOpDtS1SnS8ooa8eSouXo1IAw6xIfI6Hjd4rUsEXPi9QxGf8qVYoH6wSy+1BCEnP+JYOAbk9SBUKwVFDQ+0HRRyod+S6O+GEqhoYNdQqswqIGvGFGHCoFVJYjJoKKiQcRqgWr2kliTplStYLEq9Q2GsBABW7VLLq/sjP4ELJdEJVvQ4NbWuXowfuWaF7ZVp1Xa9Wjz+H0XdWAN7dMe0jJ7/zq5i6BlbKbK21D9cj6LCNoRtr/+Zo5ddRaBDlSoB+3azOQ8HaRIkSJUqUKFGiROzUHNy/b5L1tkRtufXRtVreD/6gO91+eDzZiKLvnYtlSEdL3adK1TByAapsBTf92MzkDbupYVQrL/eUn3q0vHOp67oWVbr+dfJfSFfN54pRz1BUDfzs+3o15/xl3ag8wSy5/aprjTQbafrXA6WrrecKFY9C2DUM/4/r+adwOy6bfIzwbDX0dCBjN5QviHCrXyX/vF75CQF8YMtnS78k9/UU8JXhhAPKv8Z4OaUBvurM+UxpGmE4nvZzgV8ZQnhfobWoZyjT7xl7Aw6l+zx1KRPuoQGEP3l6k3ouEPGLFyABsQ8DJBB2qRa0ETMBjvqXH6CJ6HbUJ5CLkgj/hAKaiC9EwA2egCaic/3vQiYZMiHoX2OQZtQHLpPMVI2zaV9LISOJQvgGMz5pK8TXgqb0nUlfz1Af9RE2AT5qqf7kAzzhTpjWx31tAT+TQPgEnKAyee8Gbpmzj1rSvnGeRiCE/298Rvzmb8KJEU8RJvQQbsL/N96RKAIwrQ1H4jlhzwwkRBjfuHcBXghwUnM6/Wt39gwdSz7CP+BFxrcmcl4LxxquiYjP9BDeY6xfcRF+sToQhhBeWLMFfDH0EuKs33S0FDGTWtIezc4+MIZwE/YxLY2Bo+V/gggbr9iJxk2Isr5rquG9Y5sQnmEHk4sQtcxkcptOQjETTTr9ZXb2MzMhYjvrJdwRRZhGE+ZjSIjz0vwSE0Jh49Dy0gGK0LmqRSAUs6UxCa1bN8zGJJPpsyHcFrUenmBnxPobG0JFFKG99cas28Y5I8J/gnZt21Zn74gTgusMFIVQ1GRqd9ZEfKhzGEYiFLMxtYchyk2NLitC5VKEmw6dFLMzrSrMCEWsF6MDsCnoR3quPSMRKmf8jTi99h4Al8ScwpCQ/wGq4Xhkg10K5gcsCZVX3tOp81p/CWJE49nziREJlTRfP3VceZv6CN/Y1PveL4xKyHfrpr26ezsPQ6zXfa+AUQm5zqfaX29vIc+A9br/bSUyIcdDlB/QeoynfJ7RJ7zjRic0rchnLOr/CJ0pzUzgyl95IzVgQKhs83jobuiPpL5MbZJjKoz6gPhzFoSK8s063KShn20HANohQ96DRt3wvDiwJmQcMtSgB0WZjO/1/CTuq54zKi/ngb9lRGgyPn7pGoPAr4am6/8uqHy2mt23fr6Sz1dyL5sDWigiM0JT2zuvZ3pEpS+/AXhjnS5RQ5mYEw61HEVwOLDYE86bEsKEcP6VECaE86+EMCGcf0UgXN4OEI+91+yK8spN2T//eww+3gkWp3d88wyU/p4PW3KMVND0jXlg5BqLoQXetQgU52gT/Uy6GXnH0zQ02VMO/4ghPSybkLMExERJRhQR9aVLHYsiCJ2JL+IlJHJP/w7sn7/ExCbqEidUMYQa8RlJjATFl0o0oiDCcWDT4hKmtYUn1BHvLfEk1KQtGKIIG4Sog8UinOaCLi6hrM2pOEJZK6I4QllnqMUnRGZ2vTua4jK75J2DZ8/Ow8XsyduZzp5hiQu8lLZaRMiSxeXMfMkCVLpiMp29sbAC1cRkq7uLKmCqYmj0QDWuQnipOxkFNdXIvG9DpExVPBFycC9tBFTuEiJE5Q9voP8j/LZNopMiZtNK09MSnNrVkDeTWoIa0WdCePkWuSZUlE3YgkGqogQ0obTj71ggwGqX0BI2ncq8EB4KUikq568SZekEgCjbRy1R8zRs+fOJRroMHYq6vLtSh8KK7gWW3AsvuqfL26+5RM+ZyvUpEeOXVEfVN8RB0PVRDV4Wq+QxOBZlLDbc6XVytRRU+zSXJ82iTl1oAZ6qf0mfRV0akJKmcpVneuloWyeklJm5CKfx6LyfzzmdtW5U3mDVoJdPdDekpjfmj89S871vFcq2la8+n4fnpEz08KqNq13renpD2lNMuE7/DO5/fu7PP+C1vMfavth5/P5+fPhPeiRU3PQ/jYbJYIK594wAAAAASUVORK5CYII=;" parent="1" vertex="1">
                    <mxGeometry x="500" y="257.5" width="52.5" height="52.5" as="geometry"/>
                </mxCell>
                <mxCell id="9" style="edgeStyle=none;html=1;exitX=0.25;exitY=1;exitDx=0;exitDy=0;" parent="1" source="3" edge="1">
                    <mxGeometry relative="1" as="geometry">
                        <mxPoint x="325" y="380" as="targetPoint"/>
                    </mxGeometry>
                </mxCell>
                <mxCell id="12" value="④要約 API" style="edgeLabel;html=1;align=center;verticalAlign=middle;resizable=0;points=[];" parent="9" vertex="1" connectable="0">
                    <mxGeometry x="0.0223" y="-4" relative="1" as="geometry">
                        <mxPoint x="-13" y="-7" as="offset"/>
                    </mxGeometry>
                </mxCell>
                <mxCell id="18" style="edgeStyle=none;html=1;exitX=0.25;exitY=0;exitDx=0;exitDy=0;" parent="1" source="3" edge="1">
                    <mxGeometry relative="1" as="geometry">
                        <mxPoint x="325" y="210" as="targetPoint"/>
                    </mxGeometry>
                </mxCell>
                <mxCell id="20" value="②最新記事&lt;div&gt;ある？&lt;/div&gt;" style="edgeLabel;html=1;align=center;verticalAlign=middle;resizable=0;points=[];" parent="18" vertex="1" connectable="0">
                    <mxGeometry x="0.1214" y="-1" relative="1" as="geometry">
                        <mxPoint x="-36" y="7" as="offset"/>
                    </mxGeometry>
                </mxCell>
                <mxCell id="22" style="edgeStyle=none;html=1;entryX=0;entryY=0.5;entryDx=0;entryDy=0;" parent="1" source="3" target="2" edge="1">
                    <mxGeometry relative="1" as="geometry"/>
                </mxCell>
                <mxCell id="23" value="⑥マークダウン&lt;div&gt;通知&lt;/div&gt;" style="edgeLabel;html=1;align=center;verticalAlign=middle;resizable=0;points=[];" parent="22" vertex="1" connectable="0">
                    <mxGeometry x="-0.0454" y="-2" relative="1" as="geometry">
                        <mxPoint as="offset"/>
                    </mxGeometry>
                </mxCell>
                <mxCell id="3" value="" style="shape=image;verticalLabelPosition=bottom;labelBackgroundColor=default;verticalAlign=top;aspect=fixed;imageAspect=0;image=data:image/png,iVBORw0KGgoAAAANSUhEUgAAAOEAAADhCAMAAAAJbSJIAAAAtFBMVEX/////wQcCd73/vwAAcrsAdLz//PHw+PwZfsD/xBv/vAAAfsF1rNUAb7r/2HZIk8r/zUkAbbmAs9n/1XgAarj/xAv/6rSy0ug1hcP/8tL//vrl8fg7jsj7/v//78n/0V3/56yoyuTU5/ORu91eoNBwqNPG3e6awuD/4pr/9+T/35H/3Ij/yC//1Gz/0FT/9dv/46H/7L/K3+4AZbaxzOX/02VSmc1ooM/d7fb/7Lr/yzz/zkyexojtAAAIQ0lEQVR4nO2da1fiOhRA26blUejFAgpYQAR5ozzuyCD+//91CwpNUWjOSUpKb/aXWYtZOt2T9OR1TtA0hUKhUCgUCoVCoVAoFAqFQqFIENnNpjt4Hg57vXKvN3yurTZeVvYzCSLbHfT6pXrOMF3Hx9zh/+maRq750qt1W7IfkIfsYPhS8H1My7KMn/if+q5Ws1y7ydbMrspN13V+MzsV9TXXNye56udck8HuaOnkerfkWKs7EL1vx8Kz7OdmZZBzoXpfuCVP9rOz0CpWcX67djQGsh8/mmzTwfrtFJ2abIEoWnWTQ9An8YprTkHDMLuyHS7y7PIKGlYuyaNGNocOMlQj9mVrXOCZJ8ocqSa4n5YENKHfT0uyPc7icYeZL5IbbGpCOqlvWJRtco6yoDZMbjh9oV9Dy/HXTkhlJ6ndtE4ZuqXnrrfqFVAd1xnKVjlDIWhA43vy1SpjFBM7JAZ90gq62RChmNjx4uji0tPnF/ggadWlOVym+usDbuDhxsoldAPuYGj2Qh8jZjqFhBuerPH6qTcswrtp4g3Dm2aIUJN0Q+sv/Wk2BxZMvKHh0LuCmEVj4g2tdfChB/e7AUPDOU67vAJmVZx8Q8Op749avB54d/9WDA3LLZTWTQu5Jr4FQ2N/PIjzuxlDDpShLJShMlSG8vnXZOVWDftFVqKWG4Fh++GUZTsjU5KResRcIDB8tckptq0/jcYyH58BdsMK0X/B93xqyxSIhNdwL/mU5N4qwHDn+CDT4TJCDH3HiUyJiwgy1O2pTItLiDLU7ZFMjQsIM9TJMo7na2U5aQk0vBcbUbt/yutmPcfNZT+IoU7ehdm1ai+mey6hWTAAQ90WNPRvigZLRrMEQzIT4ef1o9cDsgx1EQP/s3FVP6jhHa9fds2fcRinoU4430SPNyk2fsNXPkERGZXxGuqEZ0wUkjIauyFPrGlev4siDN/wgj1B6YbxGuo2WrArpQURhuhoKibpN35Dgl0nDq4+EH5BJVUxGm6Rhk1JTUhl7rEZ6jpuvOiK26aHQaVBv7IZkgbKsC8pztApR0+MhguUoaQ+6rdhkI8zYzRETdxWcsbC0Gv4yOS3CzWPCENRqfdgqMy/uc2oiAo10iJpPThbWzCGUt2ewwUxGXdCqFKFpG+shqQDN+xKeg1NKilOYxVEzWowSfYCCBXMdNgNEZuKf6W8hpZB18vcsRvCd9wi96XjEXRW1DM0mAV9wIZZGZ3UChfmMU5o9tjg4ULGusJphq4caEOaED5cXD/QWE4vnGTCOGP7NgQvghE1BHx+1dJJTd4IIojYjbrq8t5yzPVpzWGDecL2ZdiBGgp4bDZMxy2Uhj/u/MjkQU2IMORb/ZpO1ao3S9Gs/5aHq9+KYpnnawdD6ApxwxFKTdco1rwWV24aZKDAGeIHC9Por6J/v2hBuCG28ty0ivzX6GTggnDDPzhD90XANUFj0EB4MOwA/xXUgH8scOaiQxCCcEPMFoYj4p6n+SdsHDwafsRv6PT5M3vHFVQD6ohZG3zS5vIX0S/fsX6+ITSnFmzocF3X8fg477wSvJ9vCN1OhPZS8+WXXzJujyrvb3fRbPPE5tHzuYf+pwINreaPd3A+utN/Jmmfg8tOx5w+DWGGzmkUbX8KeGyI4T9QQ9iI756Mg42tfU09HZMuDJq10XW/PpnKtf0wC+AByHBD/+gcM+niBTxYaF3A2iJ8r1P7qu/fN4hE2ixgBWzSYeYBN+niNURk1LDH0tAVCqAdQIGGFbgh+5a3S50VjXVJhoiEdvY7VwrUT8kIMntDxPFhj7WbmuXgh5gPNEUL5uGC7AOiE3TSzL0sQ0zqnsc6XJjBXiBsl1qkISbZJFuIlttBnbo/ynoLUaf4mrZmCzXUjA24Dy8OAl467WFcP1nB0n4irZPiqvQYZ6ZUKEXscgoyxFUFM14ORBlKi6TY0ie2WQ1lKK0JcYmJrLMaylBSoCFPSEHGMT8BhujafO82DG1caukephdRtiG+j2qMpzOSDXGJpQeYpqZyDcmMrwyYJR9DqiHZctY51xgaUaIhsd95uugOluw9eYZEF1AeyxBrZBkSUhFRid+Krj6UYkhsfSroDp7oLx25puHxpOr1g/cFDIhM2IcY5rmZbd+mH6gF/Vk8cYb+4JzhRFzLUUT1U4Ahd918TETc/Z8CQ614sRXTYKiVLymmwtB/F8/Hm3QYal7p7NUtKTHUtMHa/F0yNYaatumtjer+62BDVIMj7ls33OGtBrVTghz7qDlN/h9mJDpeInLWxpwhdR/L5IUfYTNvZSgNZagMlaF80IanqahpMyT65/vnPS2ZLkOiL3a7gpkHqhovVYbBwcNjUI+XJkOSp7Z1twfFVBnSOYXHfJwUGZ7chHBoxDQZhpdJoxQahpOZFik0DN+5kkbDcJpBJX2Guh46I0v8aIGp3qVz7I+5jaik5muAydyjyneXwZxGyAXWMQC9BmGPfQinVBZ8Yvcdp6jkRJIfNcaNxYx6iwXeJC+WD2QVNrHtcAUp+jrSuMmgBH9zTuq3VmjvgnJobWxKbOwsxRiK/s4KkYgpuOBKqIyZpZDttni+WUUQnwIaMbHj/Z6MgPpDO8lNKCLYcH7TQfzwliAmdsYWsOCKNuQtoQsnmg98uTpJ7teMhcBeOUDsWWInM6eM4CGVELJNdhANk5neQ/qqv7yYVW6m/b7JdO6Y7p3ZfbEouZs0biDA/CTzMJ2dv2Dn+2/y74v2TdodeGwsJ0/bvE5C1w3ZRM9v315Hy/lNy1FkxvPGx2IymU4nk9Gis5zPx8ldICkUCoVCoVAoFAqFQqFQKBSK/y3/AaZe6AZlXxYkAAAAAElFTkSuQmCC;" parent="1" vertex="1">
                    <mxGeometry x="310" y="252.5" width="60" height="60" as="geometry"/>
                </mxCell>
                <mxCell id="10" style="edgeStyle=none;html=1;exitX=0.75;exitY=0;exitDx=0;exitDy=0;" parent="1" source="4" edge="1">
                    <mxGeometry relative="1" as="geometry">
                        <mxPoint x="351" y="320" as="targetPoint"/>
                    </mxGeometry>
                </mxCell>
                <mxCell id="13" value="⑤要約&lt;div&gt;レスポンス&lt;/div&gt;" style="edgeLabel;html=1;align=center;verticalAlign=middle;resizable=0;points=[];" parent="10" vertex="1" connectable="0">
                    <mxGeometry x="-0.2861" y="-3" relative="1" as="geometry">
                        <mxPoint x="16" y="-15" as="offset"/>
                    </mxGeometry>
                </mxCell>
                <mxCell id="4" value="" style="shape=image;verticalLabelPosition=bottom;labelBackgroundColor=default;verticalAlign=top;aspect=fixed;imageAspect=0;image=data:image/png,iVBORw0KGgoAAAANSUhEUgAAAOEAAADhCAMAAAAJbSJIAAAAaVBMVEX///9UbnpJZnNNaXW8xcmYpq1OaXZTbnpRa3hFY3D5+vpCYW9geINKZ3Py9PVac3/T2dzt8PGhrrRug43b4OLi5uiGl5+0vsN2ipNqgIqLm6Po6+1/kZqbqa/Q1tledoKptbqxvMHGzdEoCc/HAAASA0lEQVR4nO1daXeqSBCNDfYCyCJq3Bf+/48cUBOp6uoNjMmb4/00Z16QvvRSe/XHxxtvvPHGG2+88cYbb7zxxp9HdYznq/WmmBRFVu+nl2aR/PaQnodkcV6JVDEeSSkmQkgpOWMqzabx7rfH9gQkzfbUkpsQaHmqzaH87RGOw2JaKC4peg+W2fzfncmmVpGw0Psima7/zYlsNso2e4CkqpvfHm4wytqb343jPzaP+Z6F8LtyZKv8t4ftj1hFgfw6cBX/9sA9Ue3VAH4d1P6fmMZSDJnAGyLxD+zGS9AJgyHV5bcJuDBVbglog1Db36Zgx5oZx97poirtoBizKDps/dskLEhqmqCIWCpW57hcVnlS7RbN5zZLW3WOnu4/TDHZkBo2Z8WqqbS/Lueb1togH6ivllVyw8tpmJGsKYKc7xvTKJfzjDyXovV0VWeFkExerclzs/wTYmRPLFGuplbLIWk2KcFRRlx2/7tdxq0x2e5gVtQHYh28FlOdoFRb96iazHw69X+Ls6i+/Kah9akrMqxe+D0qyf1LsGTpJv6t9brQJkKys+/D1cpbS5BMTJc/yMOIZILHyAu/CeyQTz0n8fbLs9UvcFzhIc7W3sd8Mg81RSK1f/Wp0+BNyPx1r8924YUR7OaRnV8qKPMCrVE29X20rAeaWiw7/iQlhClaZd4zWIX7Ar4hlfdnHI1Figiu/J5L5ulwU7J7T/aqE6eG88A9Nee4mI3hN+lEx2tcdEc4hbLwOucWDmfcVWGT0rGI1fmHyV2BplD5OCKqlW0DdnGNiE+yut5kk4jbzMlXbMYj1GbY3P1IclZGES8jVawPzeJ7ISS7Mt5uJDNsWeW56UdgDwYrM/cTra5tkoCRyqYlpXnu4hWnpz1A9A7DEk6he40ua+MCjdTW8nge09akv/AdgOUncsxErg+abyl78DZSOXfZDSUpP5XHxhiE5fmUztALud2ASy7cJAEjN78Oi5pY4elPOMvzuGb69+T2KWw2JmNXpltf4zYW+inFni768/mE3EypbZi7tWkDCpYF+LpzPWogs+fq4fnBoG1JizaTT1OThGBF4Cq7aJ/qqQdqcpamtabM6v6nMD0UzQ7BE1AKTFE9T387mh1HojANtaTOhytkuh+yh3bYXhPiSes0mVq0SX6gH6r2pofEYCuvOqE17zjkfFEWNs8fLe0tTopoMjzSVJ2w1e3vFzLj02qvioISaPHJuEDZdIxncIkncT/ix+7Y2l23kniFWUWT6XqkEDtiw3tsdNUUWHq84aw9E5tVtNP4w+8MB2STVT7IM5fHgWmHBv7K3+DiKa6yNRySl2VqROUkOIk0hUZzE98/tkc4wyuqtoRjGrUT6RlERwh+KCaXtVQb16lXzTMhCnvU6gq0TtPhfuKEJMhFn6Ju+66oh2aFawO24qXzWsgodU81FBnRcDNqTYyV83nT/4T6Rq/1Rdo+5Fp+PfHChUteQme7j4OBBhUa7D4wcNFEmsNEYyjTlWvllVC8sI1jxjPwjqECQw8NipszFswh15wJiKFgG9cAqhXW76RaWz8K3OsmvdGBpW6O3R1q4OcjjeGmP9rWtvh0vCiZU8nEXNlUnwRMotwMEkKZttjEXfIFMOTs4FLR2g2o8+tg/TZz8FHYkDD4Ab+XF18/482wXWsuFW1hdsFZ1/cShAbYAI9NiRVn/oh9+jLkThtptzLqd7dPlO5NswP2gtPX5/oBSNCXYeTa/8k8coa5I2bwxYFlKk/BBPE5yje9f/Rk6IoQGTcghMGdU4IRpqFHTYLeDZ1aT2G42KANGGEn7PfL6fQVoN4Ha99zyFAIsBuewFDbgJKtzDlEklLkwD4KPWpy7CmAYx3NMJljH7iqy86dZ3aNR5rdBWLsPFA1Rbo7joGMZdhgtw+L7lNQWcIb2Hb+tOuOVkCFYSIL9O/jGC5wyQnnPc+pWT5KVQPhCrRjWQcxRGkyml47huEOz5JUSC03H7GtCd2THECrDDQv9tD60qTpcIbJXFIbEP3RmS56m0C7qgKHqQwhWMEp1L0UdoaJmWEzwRuQPgO9fMkJYBiFMLwAlU+fo6EM2w0INUGLXWyLB9x13QRMRBBDqLAxXRI5GGYkw90Wzwuz2sWx0c8eza72CtRKQhjm4NtQjqwBDPUNOOEOpS4/GDM3rorc8DkEFjypDvkyfFgWMRVkEy7T2BZbrXdwJjSPnwVTp9IeyrCs6YoadwTqaI6PK6DTBEkLsA1JbSiMoSUPSiqj+feFizEZHKz6ENd+BT63orT6IIZza746d/o6LXkq/VEEmMAgN90QOfNnGOPQ+GyCxABznTi2XKPHr5z9GYLh0yEBX4blAmcCt1OWf2IxoNYud7+7NiMkHxN4B+g15MlQ1qi+6e4Zzg9o3XG2dTjkLIrc/SsFRIK3/R2sR84CGKIQlHxkzyzXUPoLLl1+fN1pDBkGeDGA2s1JZ6AvQ4AZcLdo684tOWx+R7lxPNwH9MmTUSAXQ0L48RlSQTV7XrOiiPca7SpCeTYCzIAhU8bOMNcZkqEZzVXjlhzGHPiQgyY59cZn0BQcDE+IoTS5rkvsbmMT10h3ZB6mIMwDI/Li2QxnlvS1VnKAPxZuyXEklmpQskJe9J+kN3AIw4hZY6P5lOET15Vtk2z1chu/OoEvhs+cQ0vc4QvLNd6OzoypWFupUcAkgpNmJEPjBoRo8LpjheOxZYEPHJ9SgTuSzeiz9IuhOLkMwK93ntF4nZIjx+XjQvlnWq3HysPvdU4rRCRKLVgZ2VMbtALyAIdpv2hSDNFpHgz9oyVL/Xxk9vSUpEYU/SMXwMQfopc+iWG78KwV01g5FBPfjMdL/2W02eVi+PXwOIZXyWGRAhXS7L0Pm2Nf2tCm86sYOiQH3rzKcxKXHAhEar/7MvS32R4MNclhsTku8G/1zB4aSV/k0zUbz2f4cJ3szsixalMa0IEaeU4iEBczapX8JMNKd46bnf8owuLrrJkDPySlDsX9wIbGsBrDUHRHywKX8RlrT+A69S2hQUkOxGkGSpy11T+K4V3FwN4qo+SAMRZLaQsA+IDUzMOtylFx1vg5/Oi8Vcj1JNWUmiAYgvCNdQNPjcAh7g4wVSOSQBI9Yw4/dG9Ve6pSwhEFyvzOGpjZSDkIcO4w0LCq7/87iqGe0BBR2wxOoqfqlsPtS6m0FToL+il632GBIQyhKXuGEQFSa4E7xjOpHXYsIb08CbbNH2mWo+YQGeu7bX8opDEHM2OY3/tQFjXtytBs86900GcyRIZASvxiNST7C6ntzKAbNifY/uFeEjpuleKjAkQJyW0GNZSz3wtxTpRBw0/OET7SW9t83ByGMwSJFb5eN5TXZu7pQXh1z7vv8fg7FsYwBJlD4uQZwEANnEzrtEWpa1gDGJYjGEIvPe2V0JGjwLvN1PvEMc8XM4Q1Or6KG04wlcJibOdTOrg3gKEec/ZgCE4Ny3JDo0blW3a1XZMcL2V4tBpzRuACtHtjShMaonHQqxiCulnun2iKq5e4oxObnvQU4Kc5jmFY9V8aEKRZ4iwfvrEr7ju9eMm3YjT+Og7FaQBDYMyFFAihw6Zd4oVj2ZW4ftvh1b2jl7U/iOEHDLUERPS16kPpNE4+BVZyatdm3O17p9R4ht4iv0PVDyXeoLaO5zXJIa0laF3dWp/CMxiGFPuvdRHAndXmizXawJGlBC3GyvtrGVaUriKZM+bZoFRLYxsaLY4/EdlL92GDj5r7nKTOvkdYcvjlYgxlOPgsxer3A7bcg/voNa8ujgfSdWv6DPjIQ1BaHlJ4gQv0ej/jbhVcZiifANa8GLK4BzEExZZUlw4TEluH0dbWdaU/WCSHtgG/M+GGMISF1yGJpvYeqly5NJZ8OkMc06vk0MtmolqMYAiyKUNKvAwHTe992RDJkc8jrWxm8aWXDmIIPNgh+V9nF8NuO7o0Fl1yTBA/xuOH5j2EYQ7DgUMTTU0c3T0s7LW+/LaqxjCEkSQybdsAqNEYa62ii2M7WnJf5VfZzBiGB1A9EZJoCpym/GAcprOHRXt00oeW+k6ZGsMQ9DkJSTT9AINJc3MBi2T2HhYfnbeK+DLiMd4RDOEiDeowDNZlVw1urrXiqas3RINXOQxdN8MZwk6xaYhlAQ4a1r05n5t63tp7WLQSEFe/o8S14Qwrd6AsgCEyVwFsPSywIi4U/ttvhpre7GIIu6Yzz1xBguF3tv9xY2mFSG7HJsIpMhNtoIMZ7lDbr6COUWCyeutbq3n5RqR0u0proE/mjjwY4n9xMIShzsCuX+AU7qdv5lNT6aPAaSHVFqvYdEOloQxR4ldgr0/gMIXhAC2L4MGA9XuWYRXUuFmHMoTNPkNb0q5sv23rYfFlVzVa3ZrRch7IELXq8o5Z3AFLvLTKmAvRufgGPuvsKq1wtN2ARmE1jCG+QEQE9tQEkQtC37O16M6a7cxrA45huBPI/xzamA6qQ4r4C0sPC6QauLL2hzDUKshmwV14PJIctEICGk7X1RCGOF1/wGWf0Ligl0ByntnMv9ujM6f78RCFMhyTrP8NYAIbDa/KqMjdH3SXzRwzbnyLgaFGUAzpLAiDpDOjw8Lcw8KrbGbXCyD7MtzhltCT2ZDGgjvYlsFyUsWmZAW37ximWXoyPGqdywe2vwQuYWkLW7XjJOwqY6+1B2LYz4VgCMo/bgzn+hEeUBTUB/CAOM6qnabIeTRMKLGhoh8XIHXvasEvCHVq6KXJUK91LQRoV3lswEoPzegMgfHAjq0uT6jEw68rgTLVqbl/Pjxy7nsPkjPX5YzOcA3dvWQPCt+bpgiAtH2P5oSdXSW7+VPOew+0jmZX6Ina4CML7E6+PTTilguYu+lTz7CbnsQkm7tMbdO9VpqrLIH/Tp3YkRZzDAF0ZE0inxPL3ZKb3EsdtM5wHztuFLV3cDLB3Rslavv1jEuJk7PR7kr19u4uvXfcDH5oyQohTVIMMCvrkrj7xxUeYvZkNA/gCjj9K4eBzvG78iMDWXurzvuUe2bQTvTbiiZo1fcP0PodjJzpHyXIPWoAvg5XnobfPhzmh+xQ2uLQIdfW2rBFk8hPA8+uo/FiOWm8IxbfAwoecuVn+SJB3pCJFENm0RoPMG3uxLxIgy7DckC7EleK4B9PDoSKdgO3xHSOpkXKnnMVyBe0e2ZkqGPSFpezJfYRiXW3h5yN3sNAtEVS+4BXlLjpbO9TWWOrO+o2F8kmT+b3QdaSc+FrkWnZMw+44uP4kOsyb1j9+RO3Osf6xxRMbx5LINfTv78QcUeOA77ZqTVZsvlzBISOObHl2yXm4tjyM6torh5teArZ+vKTNx0T15V0IimLzcNMypXxXjKPXCMs7Z9/myMCfXGXZHwVU4dFfpxmRn7CnS/2gR0Mz7h8zIGVQTZFTG62cbn73lPVojmsCxUZdWZ3zl8HdL9GQLObwZgadcTuLmYeiWyz2WQTHtnuYvbK2+yA1ugQn304LmbX9m0Ut/u0rX8kiP7dFCp0leO4m8e80ZhXnie8rx5FYYnXTGGLpbGtrxd46rzX6o4VNrx/+iB9wGzCOuFRx/B4C3z0Ry+oxiiHTqMy2kgaMEEZkjQ6Hs52sBQEk/4OB030PvFKXD9UZl3FgEj5mwP6nZkBRZNPw3JlNGgp8ICrVRcF/mVpvG74R7GcCv8zR3rJ+CvO+q/OfsqccCGP69SXpLsR8g0L4lZX9QyP4VBUlzqyamgP+OjadGhw2MV/z0PVHOqCtZool7fRCSk5pfpItWms+2lJZjyynzcpPJAvm/N0X2dFy04U2Xp1oG737KzJuUk1SZo9KYNGxD5/AMkN1//EjSnvHCO+mesqdNWsCkZG0fiwmxtfgjWt+QjJVZptL025q/K8WpbxeS9SU348+1MziLE3K3edOanSDkoxS83Q39iDZpgNZj8I9Up1exAu1lb/LkgV6Ff/DZTGcjA3oslrjPqRyE3eKyeCoga/iniApdU54wYmcf0GklUwR8lW/8oE3rAw1mbQ/DydcX8KTW28Xkzn5yzX/Jso96mHCSKi1N+X8+ewm2d2O6tV54rpb9m6T0J52CgDS85Utj3+XS3bH7t4mqWqi2u0dpbobMmoJZeK1Xn5f6B3R7JoLq01eSqKyWmzXs3jclRu4RtvvPHGG2+88cYbb7zxxmvwH/4VAR9K5tTEAAAAAElFTkSuQmCC;" parent="1" vertex="1">
                    <mxGeometry x="310" y="390" width="55" height="55" as="geometry"/>
                </mxCell>
                <mxCell id="6" style="edgeStyle=none;html=1;entryX=0;entryY=0.5;entryDx=0;entryDy=0;" parent="1" source="5" target="3" edge="1">
                    <mxGeometry relative="1" as="geometry"/>
                </mxCell>
                <mxCell id="7" value="① actions&lt;div&gt;朝9時実行&amp;nbsp;&lt;/div&gt;" style="edgeLabel;html=1;align=center;verticalAlign=middle;resizable=0;points=[];" parent="6" vertex="1" connectable="0">
                    <mxGeometry x="-0.0626" y="-1" relative="1" as="geometry">
                        <mxPoint as="offset"/>
                    </mxGeometry>
                </mxCell>
                <mxCell id="5" value="" style="dashed=0;outlineConnect=0;html=1;align=center;labelPosition=center;verticalLabelPosition=bottom;verticalAlign=top;shape=mxgraph.weblogos.github" parent="1" vertex="1">
                    <mxGeometry x="150" y="245" width="75" height="75" as="geometry"/>
                </mxCell>
                <mxCell id="19" style="edgeStyle=none;html=1;exitX=0.75;exitY=1;exitDx=0;exitDy=0;" parent="1" source="14" edge="1">
                    <mxGeometry relative="1" as="geometry">
                        <mxPoint x="353" y="250" as="targetPoint"/>
                    </mxGeometry>
                </mxCell>
                <mxCell id="21" value="③記事の内容" style="edgeLabel;html=1;align=center;verticalAlign=middle;resizable=0;points=[];" parent="19" vertex="1" connectable="0">
                    <mxGeometry x="-0.3744" y="-3" relative="1" as="geometry">
                        <mxPoint x="40" y="4" as="offset"/>
                    </mxGeometry>
                </mxCell>
                <mxCell id="14" value="" style="shape=image;verticalLabelPosition=bottom;labelBackgroundColor=default;verticalAlign=top;aspect=fixed;imageAspect=0;image=data:image/png,iVBORw0KGgoAAAANSUhEUgAAAOEAAADhCAMAAAAJbSJIAAAAYFBMVEX///9yutxrt9t5vd1pttpuuduDweCWyuTB3u76/f5pt9p2vN3l8vjr9frz+fze7vaezuam0uiMxuKz2OvW6vS73O3K5PGQyOPJ4/Gv1uqj0efZ6/XA3u6azeWIw+Fgs9nvUgTSAAASd0lEQVR4nO1d63qrKhCNCKbiLYnmYpqm7/+WRxBlQECMpO0+n2v/2U2MsmRuDAPsdhs2bNiwYcOGDRs2bNiwYcOGDRs2LEWRN4/6yNCem7z87eaERdHUpzhCGCHCQLv/Rc+2+u1mBUJ5uUeIUhLpoDSr099u3VqkeZ3ggRwhCGPehbjrSv4Roud/mmPeJp00cnIIk+e+fTRV3qH6fBxPEeYkcfLPymp5fqKeHsLZ4TyxLOXlC1FGnt5+pX1r0ewJp9dJ5POcWy4qj7wfcf2jTQuB9JHxphNErhennhVP1o348VMtC4PiSGhvKk+3ead3ZF2N/oQuph08LqsOXLsinLU24VRxZhTj37OoRXV5tIf9M0niDkmS7A/H86UqLJdXV8TFEz/d0gnRdm+E/ooqVrd70kUflIcho5vu/t99RElyeHzqJPJnr350v0jqTt2P8A8HcWXTeTKMpmEIAHPfSXuRLav2nB8iR1sP256Gu05sA1NwIT+fCHaSAzQxPdVc3/JDzy9rF/LrUDNVDM7DgqpNkLvvpn2JkrpquSBTUr8ibWX3W9oE52JA+khEGLIQtH8p+PiiNt1JRO5huZiQf+GX6I1IXrYWVaeJcUguJjRPX92zgixwESrSuPv1cv1dgluymh8DTm6vcdyTCL9TES8JDkCPg8Yfr7Sgs6bofcFpNcOvG7HC/kXE3ds0fqEzGhyRd3nE4uvb2d4oPh3qL0kqOR/3Sewkia9+ESlATiNyeAe9Lu519whpuH38GI0s2bO/09rZ7YS2C9UxJ+LOoZEn1NXSCF/663SGu92X+4c0+VzUkDJ6D8PakABT2nkUF04Z7tyC2kU6R9tTTXgPw2LOgpLncKmBYaEwNNBF8QJtfAvDm0EDCcngX2OMYmC4u0E53WeGcIj62/93MDxOO5DQwwX8OSjhzsxwd5AUyaE8x9Mb4oOvwcmDB6blaWIpCP7KWWwxShmw3kaGKehvetultylHlHiGYjkK7A/zTJdQgvddYx6gjTB1YmS4+wRXU0blI9JllVC/0X7n8dE5IMFmojT0xFpSwE9gZGJm2OfJxOcn/kk9UW4g6w48UNC49KZLE436tDOQUTXCsDBkQ4KRSW9Wii/95tinb1oSocWBkBWPSRvuvdG8gC+IYiMsDJlwyV8Iy9tkmoojDwVj7zZYLkoPuEgkxCMFAobVuQQbQ6XXv8Rn6UF7Ap6lmCZdwBuEXYdWf/x+6K2pVo2wMoR+XypSoxkyPBffFCicOzzrPTh65RwIl55ltzLs02TiqzEEmjijuV4MaEo1HSSxpHKV753qztfOcAecIhRtLaCYmV5qaUSXheo2XFQ3QU9Su6EHmaRMHAyhYc5S8+fR3PTSqTOlQWYuKk09oEd4gmhmIlMOhrsEvDHYU5UajrvcXYoDGRro0HUidk/B4GIIPQaFvyzUAZbD3zE1DDI1oz5RlRvQE4aHuRjC3qeK0SzVB8ZWh3cnEQ4xg7hXlFD1eBdbR/RwMrwY3H6P8gQpkqutZd1V5HVeI1Q/8a0aZ2ARTSGIk6Gj/9MnpGjzGRWW4cIKVGoPqqYN6pIpenIzbKj116kiqN9ma9MFpX7xuRMwSJ5Gw1ZVEnAz3IF7U+3OpRLeEKMqxrYvFuEAu5BotkTpX9OzZhjewO/1CZYSvlqjKn6iEEJ6Uf1vogI2IksMiO2/5YAktK+eMPNjTN3cQwhpGWLaJQwmaY2yewXZaiE9/BmGUzntwrv1Sahp1uL3MBHIzsqtLxhK/kwXMqhtq0LEpJO0xa9Ciyg6O7N6aPiHzAwHgsaG1dLgtQOno3ua6MehpPFqtN7OlH9KRhmIHEel3Z94bRrx+MeEVImLHsgx5PCEMgtGplCfbcHSa4wXyW/HXmPRMl6boIFaaAodvmx5boibOy7lAAyoKQhrQVZuCEM/KMzQvYYSjvwMVhl+by8tm4m8OeZeFZyqwsKcJpa3sQRn0IWmQlzH2A7Ah+EF3Gma6dkpblkMlC8BvD0cFhqnZIEd0hPdAD4MU2CzjboF2vLd92HMJx7XQZk6MV3wdAuxgA9DeCtzUfNj6GUR1jxC1OvBRLapCwsQkzviXy+GNRBTo+zJTuzVIfKdXXRA8fYm3bjM9XEPL4ZwStgciIlJDpHpYCZidReeZReZC6mhGjo8rxfD0jgPpVzR36a3eGU0mcR7ATDPZ6wZgBc4InwvhjuQHbUUpvORuGB/DOAL4YSZuWWz9k/Aj2E7a5fZYFDcIQ9S2w2F1HgzaGqx40Z+DC9zWs9lRnj7LkBYHZEq9jszPhG8Aqfr9WNYAGNKzQOGMxKOhJml9ckLMNdkGYPBaXjXTLQfQ5gatQRjBRaBVRyFSJKCSUrLDCuwfs4iZD+G0NTYXtiz1xY2iRJgIRDIIZp9HXSXzuktT4bzpmbXP4UvIVk/Y5hKV2ARiArOqbneqCfD20yYP4KNQwIsyCuAkJq1wrtFngyV+Q9HzR7L34Yo8gLDGYvIt34RjTdDOI3ukHq+fiRE+QyIyCye4OppSn0Z7tR6TBvYaD/IChlp2WzNB9bdnZX1ZWiry1CQY2OtwAsAUaL5faZAqNzJBF+GXkkf9l6DLOMChgabRUJRG2fS0pdhCwJhm2KzYWSQygslSjTbyQpmVpx64csQGufE/NC8u5VYqZCuNKcy5rR5Xzhkdc9R+jJs5mPvp3SF9cp0/l0aGsudPN64gC9DGEKYPRSTUdT3XYFXegxpSm12ElRORu6xqC/DAjI0aTaLCYZFAFe6MpMofZPNTnqEkQK+DGcDXWZHxUCuC0jsdWBekIvubHby4GPbOXwZgoca02h3Ga6xNI0rspsHSFDY7KS1NH8Cb4YwlJ8yZIYI3eXDzbkjXwCVMI/v1cyRO8bwZghnSSbLZbn/FXaU+7J1M4c5XP5iRgRhuaZH5nshvGM2fDjUkrNuE9rZrwtYN76Azu53QcXglI3rh7K3fQCGzV9hSISr5ZlEYbJFfmXdtMyfYRj1ysbDfGHzhoB43QL1v8JwcBpMLr/F/wcT979gONQFn4GjGKuV/w8MB8VjmRkigjRp5f8HDInwfgVzN0PgIV3P/4ChsDJ8yDQoJFg+vM6W/gV/OJBiFS9D/ThcLbTOH/6BmCYS7v0Dy4VtRQZuto4hiEttyd43xKUwezfEpTxPDHIIj/Fm6+JSOPlpCeG906X+DOFEt+hBbmUQmBmSw1K6Lmn6y+NDMgxvuZWBWQYwaFvHcF7c74Chu+GvjA9F679A3qKHTBuvHOODPI3F7YACmOBZDCJyGDWwMgLyqSvzNCDXZllR9QCZqDC5ttGAD36CD3TVTCV4CytzbefZVsGgwC0wvgwHJzzoHV+0qm0cITOOM+ZtFpdZd+E73efPUEzoDeF2CbtTu8ahPb6A8xbmDspNZbtG+DLs5WYwLGlmmsyWk36eu4LYIdtvMaYl6EJ3eOHLkOs+Gi5htg5N5tfBDNzaOURgTC0RC8yMOSXGlyF7JHkKnTiAEZMEeK2rp9ikONh8Aagocu9/48swlgMmPtNGpgZMKv/6kig4j2++Arp8Z/mOJ8Myi8jgGnjNczaVQzlZsn4bQWhqzAVD3g7Rk2FOSCw4cUtODKZE6s76aVJQT2MphlRqpAMwbPCwHIbf2TRzAdTQVSroCRBZm5V6djJsgCfDergJ9/TGrTDkS50JFL0AhtOWLRvcEykSngyHTa55PtS8+l6+9RDbtYBKBMvtYHWIy5j66qF4LveKxpAMlH+sXtDFALyBOYz3LYryHj0x8O0wkPk6oPlBCk5AgSwxvjE4k+/amWIJQ06QWi77mh3wLAOo8zYLoWJqHDHUAoZ8K4xpKCO+BA4szHEIQM/M4wu/QrQFDAVBi+sBQhXoNARwR/PqFDjR7ahu8WbYE7QONkH1RKBdEkFthHltAyxlz+z38WWYJpygTd7BQrnVIycBmBY2Cj68wFE34Mmw70F7eRVI0Ibafw5ugGOMIdL58noGP4Y9QfsqRpBTmJYxvIZKmbv4NjkMv4oTL4a9iBqGEwPgQrpAp66AW9oa51fq7bXCshdRe6QCSiHX5qDGW/IJAyCGhjEUrDG1r2HxYDhLEL5vl+9dgi7KRXU7k/aFi0it0zPza7nLXgddBfrArgfY94qh4AXjyq4YLy7Ht67Hxych2DxUG61omcysxw/kKtgCv+Nb91TAQ1/w7fVGR1/O7BYTaiPPVJTGvW9fjHFb0oJAR5/ObYdjSm68ggcVL+tde5uMQ9yKN3s4g2WeYKhDELJB3sv3MMSD02745MQQbM8SXDsvOoKZLhGKvmWPITIkyXlWbRzwzumg38bJXtiDXdCewY2NdHwPhWAxvyVViD0g+aMIqJwNvtcXHXeT5xsvS5NjOiRBRYAdEns8EByCBd6vTe4fzct/RpOTzxMMsLpZ4KksNk6DMhy7LD0x4RjzopXHb4Od6sTOGoAxmrpvYva0bns4+c6wb+LAqN/XkgxiJ8Ky2LGp4pIjL2bQRaNIybsoe19GmsuFe1cah6bGyJtvhUyy4V5in+nJPp1QQ8LJKJuyUOVB3b9UGwIoy/RMCSnJkI5B84V34JixEFv9TLI9dyg9AbYpFcjx5HUpk/Z6pqGe6cSRobQxfHt+NB4mNwxh9OkDZRd/yx60r6Br8SQnoewjrOUalP0xDM0YGMqt1fkhD7JDh8MCJpvSw4eGPKcyMVUnfDl6EW7EZUjK9QzHUxR2xRNBvul13D1I1XCFYDgl7IcThnYq8Yaa85vZW4YzRM/hFxU3oqOUlOO5WBoJ9aCJlTVeCi7UONmk7slOlPOYWqcmMobyCAfOVxpRcGiNOrRVTw8IeAZJvzOvcfWfNlgH7VEqTyaB1QciUq95w9Fz6JHGliZRD/IIe7xhZEtgawHqN/AMcGO3SSc+vpPhjYmTtMcxXg4X5IHXWp5cG4ivRGHfPlobSIF5Wugwke4Tz/cxiOciCXTAcixGpW3iH/bMZosacmgU0XVUfyVzqhmF8c9zr4IyLaksCZC266aOuudPmlmGmjqyWdo5MyQaW+s+HoEh3XMv+AT8zbsoaGfpzJ4zsxRsAsRumc9aUmN8vDKNYxoC9GdyKM1VtmUcr8ve24O89sq1NFtPatBEdPgduH1D8pgHRYRAQ2s6KijVTyMKf+R2kc1VgWpNIOjY7xFnORWnv+u+D0SVzoX7YAjb1iRaQsHrzK5lyNHca5tkNVDGCSnUVTlvuIR+qyOH6ZFdxZd+62BZC/W5c0Vx+eSMzf7gUEOf9LhPJbSTR6oRKVv93GTfs/OWweccOsP5h/hUKfvEgqFOFbOeoSfN/ID3wUYZ6ZlMZMP3/MNl6IZOHlMf0zMsCb5+jvJLaD3OJvajx4k+QZmO07KOJi+Nep9huQxHYqkP0ho4PUiW0FM8dOh4h5yHaSjWXxqM40ndTg53DJmU0eDJsIswbblwClIZNeJO8D7pjZMaxk9usugs2WXwZWg7D3hwHgx5zDswG3WyGkLumfmehecBL4M/QyGBWgdKARXOG0l1On8LT6v7VP0mC890XoaOob+N1s/lxrH0CA03oUielV5c8bD7qLMHl5/LvQwtXbKTewnPVkfkkcovehMqRfaWsfPBy/zz1sY2cvwny89WX4ZuhLOoDP5zOL2aEvDq+84FJjS9YqFhlLp6kMZBR/MmdDHNwnqVC+NIyVEGap9xH8TIAdHFfcy85Beo2skFfc7CB7cnOcrwI++PvOWHIPcoJ4fgmuUzub1VAYfWsNBraeYulT8oj7y7oLRd5qfNWEyUXH6C367PB7+uC2cefREso7by6lEJgL737wiyzeiM6ctVR4+eH/qSfXrWBwxTUBqfA+Z7Z8FK5F7bpPfSGxh0ld1RJTMaSBCOjz/XfT0yyyF/bqQfPRn8lCJe3t38CKanuvoh7QNgw52l5X/pg4egXVAD08SGEQPoO5y0l58UTtBaaqvrtqEb3XEuNIbD+DZGtPunlN11/2cfkuTw+Pz5vhvBt9Xyl9PqjnmmlyaTCeCiujzaw/6ZJGxjjyRJ9of2fKneMnRfAl565bl0qrw9ubEk+OlMGqUdgjQuDHjFsU99VXPIBL/rO8c7bwBfmQfP3Tah6hSNaxjCxzcPB94APv/aRSY2jmlzJ70rJygJn7T9CfSLfBG5T9xVWjTtCQt6OLv/tLsOhqp3cATH+7rJ87JDnjePdp8gTAU98vVLDi0M0hrTwTkLSgijwbehf50eR9lGpnQa89lJ/c8Kp4bmHhOMxiUBXSdGyf78m+HIG1A0LCxhuLfnJv/nJXPDhg0bNmzYsGHDhg0bNmzYsGHDz+M/k7bT/WemhfMAAAAASUVORK5CYII=;" parent="1" vertex="1">
                    <mxGeometry x="307.5" y="140" width="60" height="60" as="geometry"/>
                </mxCell>
                <UserObject label="&lt;div style=&quot;color: #000000;background-color: #ffffff;font-family: Menlo, Monaco, &#39;Courier New&#39;, monospace;font-weight: normal;font-size: 12px;line-height: 18px;white-space: pre;&quot;&gt;&lt;div&gt;&lt;span style=&quot;color: #a31515;&quot;&gt;https://aws.amazon.com/new/feed/&lt;/span&gt;&lt;/div&gt;&lt;/div&gt;" id="16">
                    <mxCell style="text;whiteSpace=wrap;html=1;" parent="1" vertex="1">
                        <mxGeometry x="370" y="170" width="210" height="30" as="geometry"/>
                    </mxCell>
                </UserObject>
                <mxCell id="17" value="" style="shape=image;verticalLabelPosition=bottom;labelBackgroundColor=default;verticalAlign=top;aspect=fixed;imageAspect=0;image=data:image/png,iVBORw0KGgoAAAANSUhEUgAAAOEAAADhCAMAAAAJbSJIAAAA9lBMVEUjLz7///8AAAAhLj0kMEAkMT8eKzuAhowgLTwXJzn8/Pzj5OUAESAAABXr7O0AAB+9vsEAABeNjY319fbV1tgAABMAAAkAABvw8fIAACIAFS0AAAbb3N4AACcAAA0AACHNztAMGjAWIjQADSmtsLSio6YAGzHDxcgRHS+ztrkXIzIADCWOkphIUFubnaBobXZXXmdUVVV1eX9ra2sGHzMyMj01PUtvcnl7enpCRFINGilSWmQbHDOWmqFEQ0sQFBouLj0gJjANGDMkIzZISE5IUVpRUVBfZnMmJCchHyw8O0Bub28oJzUTExM7PDtIVGI3OUsSGyWqTWdEAAAS8klEQVR4nO1d+3+ayhI3wK4sKJqgRgkxiOADUQkxGLXpbU/TkzQ599zT//+fuSCvBcEYNWnv/ez3l7bIY2bnsTOzs9tCgYCAgICAgICAgICAgICAgICAgICAgICAgICAgICAgICAgICAgICAgICAgICAgOD3B/j//DQDWLXXqlQqV90ZLDDMO34qB4ApII+Cq27v+ATAbpuizp1H2zTN4nzFUBTVghk0RMih8ZXf41vSwgKA7dQpCq7sNQHIJeBKpQ/gCAeDKhfSVK/KMi80m6LYFAReVrRij+qm7kQXlI+6mv0qtRzc0EDZN8Cr8IYefhm4T55bet+nwCVA9ghwyo0ee7jawhHlmH2+yXEnCXCiUJ02uvgHoDOs+tCdTBZnjh7coKFexu8AoWLwiqE1A9j1hqPLTS5NQE2zzisHCpI9P7eV1KtjiDWLinWV/TSMfuHRpg4zy2s5ukFQM6QIoRZ9qn8eM3g107Jp4DjZbOeow04AUtvkc7gLeJy0ZjGH/fgHs7uhPpDRsSe1xqZ+jebx15RKNDKU3dxCAj86gEXJ2vbqYKydTkiqamPfbW+8Tf1HwQmjNm6gpftIUtywEQ4MpW2nQCiz+zIIpTz1TLIYSlH9HF/lwMbIGtci9ljTQWkhQlCNfhbty+BiGx+XTMzTHm9n9KwdGHT1jQmYgbe1+Kqd/iyN5viAccXL9PcGq/h5Hvovhf+qnrwGvbyvQ5WmO3EomgNfTSCaxFerVOqzEOJmeMJp6RsKEmZvVV+J6cpkw4d7SFw8EodNQVYU1433FYUXkl9VxsHcoD7GFwUqFXTAL/3EUzUq5edpyYz5KLbW10qPAj6WfK2vTTxoVUUWQqXX6wdzKPLK0JwvLv3JWFrZuoKbFFcc+MSqi3g6OEEpQ0Sfk26LT8+ZyIlnmyaztlL4FTNCUZlM/3CjidPTUze6qTvzSVVekzE5PYxDjq/ez53yeVelGQ8FOBg1HBPj5aS/MNYPQAZze3YrxQAm4DXBaUsdWPE7+76SjoqxCAV9ce7Fo951lwwaSfWlZfaFE266r6cB6sIdTHfgmIqEcJUDXviFkXPSvFmuf6DVYnwxZYh0J9ZBX/J6Ozn0y7tYMcz1fE+XYqmKk+UgTSHsnDq2fp8RXewIemZO7PFgmTWjMqcrTFGLQRA8WMVTdsoQ2R9JM/SiloQh0ipmhmslBeo4dq7KbWYgqI5m0t4MumM0Q5KaN502MI0cfvFHATmYbzcSIwO/BQrHhY5QdhI34M8qvpJKcYwj6hkx0Bp7T/dr0Gx+nqN+i5mRH3xDZBGmimYFvx2Ng8u8HHAoJO3HuI7lb/q+Y1SMnJNgjw7iZB8AKrbE5rXPIbO8iV1DHzdEIIUm2tcCssVJHXud+2g8OMiPd8qTyBL48ezDKwugjs3gAYeu5cTuPWmIp6EZ6vNQXastzBAhjMMFPngS41DY22EeAGkec/gYxKYQxWyL32fxzUwj1ME7I5R9DY9dkROPTTiFl82IQ3HS+Pi6SWRZLoooEEfpLjIdDp+J2fNQGDdUKE3+UYp+B8afcUAQBgsjO9Z5pX2YS9kH7GUGhx0selYwQ4wEroypUDLi/Wn8tlkcEIRKWug8xs5HnFAHzAr7gaYyOISzeBIRKhFNIBKcxnangbQ4Lfa2bnofK2mYdSCABW3Ns5IKj1V72g2ZHBZKZ5HtNOPEjaFCaZyVoBT+XZlFQ4BnXjA0T3Ch4zF+9fqrqsJ3Kpm6b2Uh8gFZ/0I2h504nMPiMja8V3hZAiqUjGxF9QHjIXabT5HF/WEliijicLpgO+o7aCuA6rKHgOMDoMFy4H6GyeQQQiw0uQj9X5Sm1FYDcBrmfM2zsNxEYxUQ7VPEIShrqQJbTZ8+AGlwXCZpdcQubmxTWxf6hkPdtF+ssdMtZXJYqMc5qxwmSIAKQ2jNgAXpUYyEHDzEDuIY24rnEND5jJUNAkHW9PkKjAbHU1djuXDzwUTSyzVlN2G8u46vYRz2ppFmRaFWHP9Myi479XASqC4DYbA/It0WnrFZEpSz6mxiTStahfPBUeYP2HIm/eyKm4gNL8YhYiMHKIYygqUwFr0refyGd3g66z/0EI3WsICrIN0y8WQb+/jwbLXsHc4j/Gn3M7+QAsYhQ2Fl3UBG3XA2dFnC4z3BLq1/B704sZwnlyOgVMwhwJXktDQ7MNJBXU3Ifn0+h3gkIo9VT0agEbJU9Rwh6ETRkKe0HsqRexK+J/NAAKWX3Ko0P1ydH7RygWbVXSqmSQ4BArFN+YbIUIFCc/qV/+9QLEO4FjJdiQal6qT8JGBL13quHvGT8iEJcDudlu/CoSeQcFw4fR2XQSNgoFlccwxCjn2tLYDZGHvTpm0Z7M0wr/ouVttwXynGLj56myjINZlvihuSTXBYiZ1Dfy2j7jy4IPsrSpghztcVnlZkhsKNkTXWBvunWcvRp2q6LLkzg1d24pWCPmeenr7++Pr09JfzWHQnkBwO3SQxMpyal7iCergeoQDo3wHCG85KBVymJ/1F9tIjRIMf300lk8nhRm15N9AUrhjN4r9bMzdggxCybvymSpftOsqRYaESabewVstwduC0sMIYBQs66/Ecf2oC88yKZlG3cVvMYJJ73Cs7Tka9yvNp8su5can3Wz3KzTnd5QnBQKZNM0iX4ghAcb0tUJ1oIF+W22gqoEuqbm0wye+lp7CMaaHysNycd3I5LMzG0bN9Vy+leSAi3uoEpJZDQ+RvBgVweh99aKG+onGAlShqnrRJ0Tzf/lAmrrCJVngpZdxBX+RxCKXIrryopXwfvCoqW2DO826Jm6FO7+D7ARxR48S6Qu3i7UJkqGE8TMPNxcBCTo7vk0BFGu7OD0wjMEtuGOX0cBAtqzCQjqbH5l3WUGZh+dPEdExY9d7sbOiLOOoUz06zbkEg/kSSQzdZigzxfoSYWqhM5fAGph6+vr9AnRUm8V0JRJW4mOqOY+v1JzbIj6uh/FzKuAPgi28pDuEymi+GTNcKRlvAKk+tyBBXRlw9H7K7BygI4osa9dcfSJE/w1Yg5MdO1i3n2HpoikNARXFmzYoqTzITK/ssHB5ubkSONUdZckg8j4XIaenVytchYUuTspXJIYWViVIcxsmEa1qRRfexkidyQj2+V0ti9KGdlbSQrJcM9+Bw+gqHAN1iHjsdTcKI6hOzokSqhNVPf4SGWP0axU5V4w1RtOuPI1exhwxBz4o55KcZduj6y5jBk0lqDS+uHp5oYdGziRfm2U5kiH+HMhYn5cIbIMXV1D3ssIDFlpk+HFQsfEKqfkmNfhxL18IUk/8Du4dGYelJXISikB/TrWBbp4DTeIF4H1/KXmJrvPrGIiKoLBJpae05xSGMAp6mHAyFktAkFJUPo4mtX0oraedKyk2NoITVnq23z4cM7kfk62S0CBjqO76O7xrCcyrpwdbeAh1MrWrHJWA+uuEiZUwzy5w2TnN4PH2J7ajW3iMwreOBt/YJz2nAjLLTxY1JJ/WNSmrZ/kRMWjNexg84TZs7GisnHG9SVI9JMwnYNtYGyO1hhoVCb4UnT/eUF3p7C8I0uqKe+xspjPDvtJo20hwmE4DYECNBpBfkg+mAq36nqKtgOlqvSdOoTmERzYkw26eSwVCJWqz8n4t2q9uttKmvxaSCBihK6edTtympPDXZ5uZ5/HSzHzbhKSbTbrdPWy4JrXK78U3Hh5+b7JcCX86TghJq2v2kWsPUk8MLRMK/UuN4mWjy2uxcMj4nW/KEjQa8jpUYJF7ua/pkoilyykTkt0/3ayRilixw94lCjpnuEHKSt1spISfaizw6001UaQ7z0Fxk9RvvwuHM2VorFSeU+oyJeZhqB4FPifmES/eT4osx3u/DDW+Br7ZuoWO+d+MeqNtbyt2C2aDZv7BV+3QTF77YcuKpUpqO5Q1uTKJdSf2e7M7JpcPesw7lgWkU86TI1aZeZ676OdQj2bxMf0hNNLLpGyLCO568Rr7NLFuaZhfXEnScH7QEVZ5n6wmvO13Pe7PIXxpqDlebPfPoH9yMbjcKMLCQ6PvO0jVprG81RV4bH9qEMhrrm4sGvDY1jJDKM1fMtbOvGcbOqnbY/nQi6Jtt3QXje7TqI/YfMjO0gWRN+nmK5NLx87XC1esY/LQmCmYvHF81p1/jaNH4Mr+frJaZMy40rLMAdi/rjtniLvj9bpxTRaQ7dWd+NkxPEBEdh/LnkTkwxi9Fvaq46GvmneVICX6gJPWMnKgQDkoBsoegYIS/l3I22XhAyxKzuineDxXF27bDyzVvefbGWea89O1g1eWMcRYegLocpGkBR+kA2apsDBwsl8gl4fvq+vp6NV44yKXjuJ0nEKku/DaMX4Q1CYYLj5D3oGPrhrMPQkDBryeEgICAgOB/DOwvnKLfD14vqNpZusHeSJqhbtcLCzuI/pXnBBwXNBqNeoup7Ybt5r2u39+fnRXvpk5ntCW4/d8BKKBRd2GbWj/enedlX4Lc14uLzk4qy+6/UeoDoHp7uRQhM/VvKnbuHiYM8I9F4fx35RE1FpMc9vyc+J/X93XDbxO5b5eWv6XVlm4nte29oNMdOHx2E/pmdVw/vDxwbMDWVHmt19V8PWuEX7w6MCdoT+3fTFUhMl/vdZ3skBcHm+Q4YUJd/YITWvLRecTLbk2Bl13wKZuczHbI/JcPQTVfsKnNox9+GUBnJZ9wvFLV7XGFwuDomGiLO9U2ls/hGrwwb0sfvBFnCzo+R6cjlaWj83eYglqnora4E3unMzKYgRr1osv2p87vMj8Cbyd5Ri0FwKewbs2NdzwFRO3GRs2bt5/eYx/OERGf5dD8e9dzTmDLxpq+zHHhyNtwjoLIfOLdx7XbXekE7LmFrR4K+o2zPHJ98kDAQaezDMadRaEhDr+9QRIjR8Om1+bwbix1fhtBIkm1bPPM8lumIQrXWrMa/XMB1MYZvijDKfdzONoteH9fsJ2RM1+vSfHTdf+CH6W4EK+zGv3zQTdukuvc/LC4mh1yZtExgEa9lVkNHKG//QQ9B/+sfX4bhwWmtNCTGzmaNc12KhutSx8GJNUXthZH3/31smq05Vpn3koZ00F3qSVSTlD0+ddGj/3wiA5AiQLTxDYP8c5gveM7goYA7uWNIly/dTDe2HPkMflYp6SNRqV3BKA71E+XvUQc2jTXG/lYI4jBauN9EiJaZe82F5q9w+AeKapLMx+wSgIALVHUSqulUt/a3Hel7FNgSpM9Z22oOnpGVs01+eH8gjpX6Y0zDo8JUEBXFPU45NNH0nGaEzAUmqFws203yjbQ6KeV2bDAcc2+6bSpS5V5By69V6IudcEU++LmVjLB/hk2XreCrhbtzX4mBt25yN6r6rEpVG1AUa3ZUcuVwB3XLkWh6TCdAfoYdrthiMVQvu8R70oHeD9QoAxtS2tLs1/8Xm9f9hDLsocGd+4r4Kx72nCKw7y9ozJ2XCMIT5WrZm57eQOPiFptb98RFd12nn50VMOA0M0q33iEKuO1nEJooM6np7+mem6LiesATDwzDzvKj3BED5Co4iuVLldl+1rx+u/bLxANDMNAyOeUyZ5YwPonZn1ag7c+D7/c/v15qlezFTPkTwONxB4ryr+7WjhCsAUql6a8w85u0Ts+1br+8+HzP7TaWS799gLvvIkYaN36YBjL5bKHmH8+P1xfT5O9ndkjWF21k5NexW+Z56dHOWUJwMq3yS48riHItapenL/c3HgtIouF4wCwFpqXqjte74h7/ebmZW5qSo3f5a181arPkg4t6EcX71vHSu5Q+9lUXj/zMzHwTYHnZaVfHWqa7kPThtV+TeZ54Q2v4ofT8jLFB+gs1kra32yb2xtALd8W8/3Ae4GTtbmx2QQF/F1hsrXrrr6dWCyo546d68nfBaIysZZZKQ0yPDqE+dURGVzziErg5v613s+jwY0pxlL2MR+VIuc130rvkJjDpepmah+grJwyuXG6g2w/Qnu7xkW7u/eZA1vBDiRgFXc6F2R/8Pp8AZcb5/FGHF7KJ8I0f+fQwYAD1VnlnnVwMJraywMz2FqsRavpQ2br6tHAuhP37Wdzl576N0LQps8F49WDr9zvvyd/PpPQ6Dx9K25uFDoAsj5++rSO+X4T0BBKZWqqHWUGEarFS+oS/XZ9MqDASG4uPNdrbwt4EhBlzWbcXPPjy1w7AgDYbVCfrKIbQYvp/2lgGzhOFGt904KUK7zfsoMAA2Bg74pqG+O5VlXcsFN0Wc3j1f1FdGPWWnVY/F4oU+cS+sjy3QHwCixult6g2hU4tidukK2sF6TdOHsN9y/ev2v9oaYXLdCqezUQ9BFVu6MCeI3hLPLKEeuV2/MecMarx+l0aq3GjleDWf9PH62et/76rtW6dwbwEnkvl6fdnHc260mS1Jt5J/kw6+u/mrxjA6T+JCAgICAgICAgICAgICAgICAgICAgICAgICAgICAgICAgICAgICAgICAgICAgIPg/xH8BuDS7dro0VR0AAAAASUVORK5CYII=;" parent="1" vertex="1">
                    <mxGeometry x="370" y="130" width="40" height="40" as="geometry"/>
                </mxCell>
                <mxCell id="25" value="Bot" style="shape=image;verticalLabelPosition=bottom;labelBackgroundColor=default;verticalAlign=top;aspect=fixed;imageAspect=0;image=https://a.slack-edge.com/80588/img/apps/default_new_app_icon.png;" parent="1" vertex="1">
                    <mxGeometry x="511.25" y="320" width="30" height="30" as="geometry"/>
                </mxCell>
                <mxCell id="27" value="" style="shape=image;verticalLabelPosition=bottom;labelBackgroundColor=default;verticalAlign=top;aspect=fixed;imageAspect=0;image=data:image/png,iVBORw0KGgoAAAANSUhEUgAAAvQAAADeCAYAAABSdJRvAAAMS2lDQ1BJQ0MgUHJvZmlsZQAASImVVwdYU8kWnltSIQQIREBK6E0QkRJASggtgPQiiEpIAoQSY0JQsaOLCq5dRLCiqyCKHRCxYVcWxe5aFgsqK+tiwa68CQF02Ve+N983d/77z5l/zjl35t47ANDb+VJpDqoJQK4kTxYT7M8al5TMInUCDFCBFqAAU75ALuVERYUDWAbav5d3NwGibK85KLX+2f9fi5ZQJBcAgERBnCaUC3IhPggA3iSQyvIAIEohbz41T6rEqyHWkUEHIa5S4gwVblLiNBW+0mcTF8OF+AkAZHU+X5YBgEY35Fn5ggyoQ4fRAieJUCyB2A9in9zcyUKI50JsA23gnHSlPjvtB52Mv2mmDWry+RmDWBVLXyEHiOXSHP70/zMd/7vk5igG5rCGVT1TFhKjjBnm7Un25DAlVof4gyQtIhJibQBQXCzss1diZqYiJF5lj9oI5FyYM8CEeIw8J5bXz8cI+QFhEBtCnC7JiQjvtylMFwcpbWD+0DJxHi8OYj2Iq0TywNh+mxOyyTED895Ml3E5/fxzvqzPB6X+N0V2PEelj2lninj9+phjQWZcIsRUiAPyxQkREGtAHCHPjg3rt0kpyORGDNjIFDHKWCwglokkwf4qfaw0XRYU02+/M1c+EDt2IlPMi+jHV/My40JUucKeCPh9/sNYsG6RhBM/oCOSjwsfiEUoCghUxY6TRZL4WBWP60nz/GNUY3E7aU5Uvz3uL8oJVvJmEMfJ82MHxubnwcWp0seLpHlRcSo/8fIsfmiUyh98LwgHXBAAWEABaxqYDLKAuLWrvgveqXqCAB/IQAYQAYd+ZmBEYl+PBF5jQQH4EyIRkA+O8+/rFYF8yH8dwio58SCnujqA9P4+pUo2eApxLggDOfBe0ackGfQgATyBjPgfHvFhFcAYcmBV9v97foD9znAgE97PKAZmZNEHLImBxABiCDGIaIsb4D64Fx4Or36wOuNs3GMgju/2hKeENsIjwg1CO+HOJHGhbIiXY0E71A/qz0/aj/nBraCmK+6Pe0N1qIwzcQPggLvAeTi4L5zZFbLcfr+VWWEN0f5bBD88oX47ihMFpQyj+FFsho7UsNNwHVRR5vrH/Kh8TRvMN3ewZ+j83B+yL4Rt2FBLbBF2ADuHncQuYE1YPWBhx7EGrAU7qsSDK+5J34obmC2mz59sqDN0zXx/sspMyp1qnDqdvqj68kTT8pSbkTtZOl0mzsjMY3HgF0PE4kkEjiNYzk7OrgAovz+q19ub6L7vCsJs+c7N/x0A7+O9vb1HvnOhxwHY5w5fCYe/czZs+GlRA+D8YYFClq/icOWFAN8cdLj79IExMAc2MB5n4Aa8gB8IBKEgEsSBJDARep8J17kMTAUzwTxQBErAcrAGlINNYCuoArvBflAPmsBJcBZcAlfADXAXrp4O8AJ0g3fgM4IgJISGMBB9xASxROwRZ4SN+CCBSDgSgyQhqUgGIkEUyExkPlKCrETKkS1INbIPOYycRC4gbcgd5CHSibxGPqEYqo7qoEaoFToSZaMcNAyNQyegGegUtABdgC5Fy9BKdBdah55EL6E30Hb0BdqDAUwNY2KmmAPGxrhYJJaMpWMybDZWjJVilVgt1gif8zWsHevCPuJEnIGzcAe4gkPweFyAT8Fn40vwcrwKr8NP49fwh3g3/o1AIxgS7AmeBB5hHCGDMJVQRCglbCccIpyBe6mD8I5IJDKJ1kR3uBeTiFnEGcQlxA3EPcQTxDbiY2IPiUTSJ9mTvEmRJD4pj1REWkfaRTpOukrqIH0gq5FNyM7kIHIyWUIuJJeSd5KPka+Sn5E/UzQplhRPSiRFSJlOWUbZRmmkXKZ0UD5TtajWVG9qHDWLOo9aRq2lnqHeo75RU1MzU/NQi1YTq81VK1Pbq3Ze7aHaR3VtdTt1rnqKukJ9qfoO9RPqd9Tf0Gg0K5ofLZmWR1tKq6adoj2gfdBgaDhq8DSEGnM0KjTqNK5qvKRT6JZ0Dn0ivYBeSj9Av0zv0qRoWmlyNfmaszUrNA9r3tLs0WJojdKK1MrVWqK1U+uC1nNtkraVdqC2UHuB9lbtU9qPGRjDnMFlCBjzGdsYZxgdOkQdax2eTpZOic5unVadbl1tXRfdBN1puhW6R3XbmRjTislj5jCXMfczbzI/DTMaxhkmGrZ4WO2wq8Pe6w3X89MT6RXr7dG7ofdJn6UfqJ+tv0K/Xv++AW5gZxBtMNVgo8EZg67hOsO9hguGFw/fP/w3Q9TQzjDGcIbhVsMWwx4jY6NgI6nROqNTRl3GTGM/4yzj1cbHjDtNGCY+JmKT1SbHTf5g6bI4rBxWGes0q9vU0DTEVGG6xbTV9LOZtVm8WaHZHrP75lRztnm6+WrzZvNuCxOLsRYzLWosfrOkWLItMy3XWp6zfG9lbZVotdCq3uq5tZ41z7rAusb6ng3Nxtdmik2lzXVboi3bNtt2g+0VO9TO1S7TrsLusj1q72Yvtt9g3zaCMMJjhGRE5YhbDuoOHId8hxqHh45Mx3DHQsd6x5cjLUYmj1wx8tzIb06uTjlO25zujtIeFTqqcFTjqNfOds4C5wrn66Npo4NGzxndMPqVi72LyGWjy21XhutY14Wuza5f3dzdZG61bp3uFu6p7uvdb7F12FHsJezzHgQPf485Hk0eHz3dPPM893v+5eXgle210+v5GOsxojHbxjz2NvPme2/xbvdh+aT6bPZp9zX15ftW+j7yM/cT+m33e8ax5WRxdnFe+jv5y/wP+b/nenJncU8EYAHBAcUBrYHagfGB5YEPgsyCMoJqgrqDXYNnBJ8IIYSEhawIucUz4gl41bzuUPfQWaGnw9TDYsPKwx6F24XLwhvHomNDx64aey/CMkISUR8JInmRqyLvR1lHTYk6Ek2MjoquiH4aMypmZsy5WEbspNidse/i/OOWxd2Nt4lXxDcn0BNSEqoT3icGJK5MbB83ctyscZeSDJLESQ3JpOSE5O3JPeMDx68Z35HimlKUcnOC9YRpEy5MNJiYM/HoJPok/qQDqYTUxNSdqV/4kfxKfk8aL219WreAK1greCH0E64Wdoq8RStFz9K901emP8/wzliV0Znpm1ma2SXmisvFr7JCsjZlvc+OzN6R3ZuTmLMnl5ybmntYoi3JlpyebDx52uQ2qb20SNo+xXPKmindsjDZdjkinyBvyNOBP/otChvFT4qH+T75FfkfpiZMPTBNa5pkWst0u+mLpz8rCCr4ZQY+QzCjeabpzHkzH87izNoyG5mdNrt5jvmcBXM65gbPrZpHnZc979dCp8KVhW/nJ85vXGC0YO6Cxz8F/1RTpFEkK7q10GvhpkX4IvGi1sWjF69b/K1YWHyxxKmktOTLEsGSiz+P+rns596l6Utbl7kt27icuFyy/OYK3xVVK7VWFqx8vGrsqrrVrNXFq9+umbTmQqlL6aa11LWKte1l4WUN6yzWLV/3pTyz/EaFf8We9YbrF69/v0G44epGv421m4w2lWz6tFm8+faW4C11lVaVpVuJW/O3Pt2WsO3cL+xfqrcbbC/Z/nWHZEd7VUzV6Wr36uqdhjuX1aA1iprOXSm7ruwO2N1Q61C7ZQ9zT8lesFex9499qftu7g/b33yAfaD2oOXB9YcYh4rrkLrpdd31mfXtDUkNbYdDDzc3ejUeOuJ4ZEeTaVPFUd2jy45Rjy041nu84HjPCemJrpMZJx83T2q+e2rcqeuno0+3ngk7c/5s0NlT5zjnjp/3Pt90wfPC4Yvsi/WX3C7Vtbi2HPrV9ddDrW6tdZfdLzdc8bjS2Dam7dhV36snrwVcO3udd/3SjYgbbTfjb96+lXKr/bbw9vM7OXde/Zb/2+e7c+8R7hXf17xf+sDwQeXvtr/vaXdrP/ow4GHLo9hHdx8LHr94In/ypWPBU9rT0mcmz6qfOz9v6gzqvPLH+D86XkhffO4q+lPrz/UvbV4e/Mvvr5bucd0dr2Svel8veaP/Zsdbl7fNPVE9D97lvvv8vviD/oeqj+yP5z4lfnr2eeoX0peyr7ZfG7+FfbvXm9vbK+XL+H2/AhhQHm3SAXi9AwBaEgAMeG6kjledD/sKojrT9iHwn7DqDNlX3ACohf/00V3w7+YWAHu3AWAF9ekpAETRAIjzAOjo0YN14CzXd+5UFiI8G2wO/pqWmwb+TVGdSX/we2gLlKouYGj7LxY9gvPXKbUrAAAAimVYSWZNTQAqAAAACAAEARoABQAAAAEAAAA+ARsABQAAAAEAAABGASgAAwAAAAEAAgAAh2kABAAAAAEAAABOAAAAAAAAAJAAAAABAAAAkAAAAAEAA5KGAAcAAAASAAAAeKACAAQAAAABAAAC9KADAAQAAAABAAAA3gAAAABBU0NJSQAAAFNjcmVlbnNob3Rg7EsQAAAACXBIWXMAABYlAAAWJQFJUiTwAAAB1mlUWHRYTUw6Y29tLmFkb2JlLnhtcAAAAAAAPHg6eG1wbWV0YSB4bWxuczp4PSJhZG9iZTpuczptZXRhLyIgeDp4bXB0az0iWE1QIENvcmUgNi4wLjAiPgogICA8cmRmOlJERiB4bWxuczpyZGY9Imh0dHA6Ly93d3cudzMub3JnLzE5OTkvMDIvMjItcmRmLXN5bnRheC1ucyMiPgogICAgICA8cmRmOkRlc2NyaXB0aW9uIHJkZjphYm91dD0iIgogICAgICAgICAgICB4bWxuczpleGlmPSJodHRwOi8vbnMuYWRvYmUuY29tL2V4aWYvMS4wLyI+CiAgICAgICAgIDxleGlmOlBpeGVsWURpbWVuc2lvbj4yMjI8L2V4aWY6UGl4ZWxZRGltZW5zaW9uPgogICAgICAgICA8ZXhpZjpQaXhlbFhEaW1lbnNpb24+NzU2PC9leGlmOlBpeGVsWERpbWVuc2lvbj4KICAgICAgICAgPGV4aWY6VXNlckNvbW1lbnQ+U2NyZWVuc2hvdDwvZXhpZjpVc2VyQ29tbWVudD4KICAgICAgPC9yZGY6RGVzY3JpcHRpb24+CiAgIDwvcmRmOlJERj4KPC94OnhtcG1ldGE+CgXN/VsAAAAcaURPVAAAAAIAAAAAAAAAbwAAACgAAABvAAAAbwAAbi4xejbBAABAAElEQVR4AexdB2AVRROe9ARSIPROCL0rIl2qSkekSe8gvQvSQek2kCLSpaMIiAhIF+mIgIKAdOm9pDf++fZlL/cul+QlJC/ws6Pk2t7e3bz27ew33zjkyOX3jJQpDygPKA8oDygPKA8oDygPKA8oD7yUHnBQgP6lfN3UTSsPKA8oDygPKA8oDygPKA8oDwgPKECv3gjKA8oDygPKA8oDygPKA8oDygMvsQcUoH+JXzx168oDygPKA8oDygPKA8oDygPKAwrQq/eA8oDygPKA8oDygPKA8oDygPLAS+wBBehf4hdP3brygPKA8oDygPKA8oDygPKA8oAC9Oo9oDygPKA8oDygPKA8oDygPKA88BJ7QAH6l/jFU7euPKA8oDygPKA8oDygPKA8oDygAL16DygPKA8oDygPKA8oDygPKA8oD7zEHnDwL1BEFZZ6iV9AdevKA8oDygPKA8oDygPKA8oDr7YHFKB/tV9/9fTKA8oDygPKA8oDygPKA8oDL7kHFKB/yV9AdfvKA8oDygPKA8oDygPKA8oDr7YHFKB/tV9/9fTKA8oDygPKA8oDygPKA8oDL7kHFKB/yV9AdfvKA8oDygPKA8oDygPKA8oDr7YHFKB/tV9/9fTKA8oDygPKA8oDygPKA8oDL7kHFKB/yV9AdfvKA8oDygPKA8oDygPKA8oDr7YHFKB/tV9/9fTKA8oDygPKA8oDygPKA8oDL7kHFKB/yV9AdfvKA8oDygPKA8oDygPKA8oDr7YHFKB/tV9/9fTKA8oDygPKA8oDygPKA8oDL7kHFKB/yV9AdfvKA8oDygPKA8oDygPKA8oDr7YHFKB/tV9/9fTKA8oDygPKA8oDygPKA8oDL7kHFKB/yV9AdfvKA8oDygPKA8oDygPKA8oDr7YHFKB/tV9/9fTKA8oDygPKA8oDygPKA8oDL7kHFKB/yV9AdfvKA8oDyecBFxcX8vLyJDc39+Tr9CXuKTQ0hJ4+DaDw8PCX+CnUrSsPKA8oD/z/e0AB+v//11g9ofKA8oANHgCYz5gxow0tX70m9+7dU6D+1XvZ1RMrDygPvEQeeOEAvTdHx959910qV64sFS5UiLJnz0aenp7k6Oj4Qrs1KiqKAgIC6MaNm3Tm7Fk6dOgIbd26lZ5wdEuZ8oDywIvvAV/f9CoyH8fLhEj9gwcP4ziqdisPKA8oDygPpLYHXhhAX6xoEerYsT01bFD/hQfvtr5oAPk/bfyZFi1aQqdO/2Praaqd8oDyQCp4IFu2bKlw1Zfnkjdv3nx5blbdqfKA8oDywCvmgRcC0I8ZPYLatmn9f+36pcuW07jxE/6vn1E9nPLAy+yBlwnQY8YSAQN7mgL09vS2upbygPKA8kDiPJCqgL4oR+WnTp5IhQsXStxdv6Stz5w5Sx8NG06n7RytL1myBBUsWMDKaydP/kXnzv1rtQ8befPkoTfKltH2h4eF0aHDR+nWrVvaPuOKk5MTlS9fjrJly0qPHj6iffsPUHBwsLGZtp0+fTqqWKECeaTx0Pbt2LGTHvK5evPLm1fcd4EC+cnX15ePP6QLFy6I+7l//76+qVivUb0a+Wbw1fZHRkTSuvUbtG2zlaZNGhM5OGiH7t69R3v2/KZtp/TKzBlfUYUK5bTLbPjpZxr/ycsx8MuSJQtVqVJJu3fjSlhoKN2+c5du37pNt27fppCQEGOTF2r7ZQD0/vn8qE6ddylNmjT099+nafOWrfTs2TO7+FEBeru4WV1EeUB5QHkgSR5INUBfgQHgrJnTydvbO0k3nlonhUUQ/XEliDJ5OVP+zK6Jvo0nT55Qr9796MDBQ4k+N6knrFu7Jhag38+gu2v3nrG69PfPRz+tX2u1/8GDB1S3/nusdvHUar/cGDJ4IHVo31ZuCkDck5/RzAD+N274kfLkya0dBvivVKUahYaGiX0AisM//ohq1ayhtdGvIDK5fftOmjFzFl26dFk7tGL5d1SKBy/S0O8bb1aUm6bLk8ePEu5J2pEjR6lDp65yM8WX8+bOpooVK2jX+XHdeho1epy2/SKv4L5x/7YYQCcGSgsXfUd/HDtmyyl2b5MQoHfggZ+9wLPZw+N92q9PLzr1zz/ifV+/Xh3asXM3nThxUmuONnLwHsoDqosXL2nH9CvIUXKPVvL5fd9+ioyM1B82XVeA3tQtaqfygPKA8sAL4YFUAfSIzC/7btFLA+aDwqLo8MVg2v9vEJ24GkLBT0PJw9WBlvXzJ5cYLGjzCwpQ36ZdR7tE6osVK0prVi2PdW8Axe/Urkc3b8aOvG/e9BPlzp3L6pwBA4fQr9u2W+3DBgDE77/ttHotAXpq1qrN0dk7sdq/9lpp8drrD2zfvoP6DRgsdhUtUoSWLJ4vIpD6NmbriPi2a99Jy09QgD62lzADUbv2u+LA1Gmfm87KxD7Ltj2JAfT6Hr/7bhlN4XtJbnN1daW+DHjljF+Xrh8m6hIJAfqWHzSnbFmzUhAPFKOiEgbAlos7kKurixgIrF7zA927FzOzhMFzGM+ARYRH0DP+LyHLmDEDNahXj+YvXEx3796l1q0+EJ/fnbt2a6dCqWfwwP5i+zbPiixc/J12TL/StUsnypghg9iF18IW+o4C9HoPqnXlAeUB5YEXywOpAuh//mmd9qP7Yrkj5m6ehkbRoQsM4s8F0d/XQig8Ioav+izqGUUxnWN4k2xU3j9NzEmJWAP9pn5DpnuksI0eNYJaNG9qepVZs7+h2XPmxjpmjLijwZrvfzDNAShX7k1aOD92H6CNAMAYrceH3ah3rx5Wu4ePGEWgmri7udH3a1ZSPqYV2GIYjNSt30iAIrRXgN7aa1kyZ6adO7ZqOzt07EJHjv6hbT/vSlIBPa47eMgwQRd53nvQn1+/Xl2aMjmGrlSsxGv6wwmu2wLoQUlLqj169Ii++Xa+FuXv17cXpfFI/PfHPaabAdAXKlSQlq9YRdeuXdduCdz6oUMGie3rN27Qd0tjD+ZxsH27NpSdk4CjnkXRlKm2Da6SE9B7eHhQ5syZhMY9ZgATMjxXliyZhawoBiqgxj3PbIkbf9fg+r7p07MS2VO6ffsOBQUFJXQbVscRzMiUKSM5OTrRHX49lFa/lXvUhvKA8oCdPWB3QP8iJ8A+Co6k/eeDad8/gXT2VihFMnCHAcA7OPJ0O4A8c24cXZ3pGQP6KsU8aXC9LEl+yVI6URYAeffu7eTFsp8wROHwwygNEpvv1qkfKzpX5vXX6bslC2Qzsbx69T+qU6+h1T5sfDzsI2rTumWs/b//vp+69+gVa/+SxQvojTKva/ujIqOoSrUa9OjRY0IEdOSIj7VjWNn0y2basuVXQTHw88tL7zd+j6pXr4pD9PHwkawitEms448C9JorxErdurVp2pRJ2k57APoFCxfRD2vXiWsiYo6Idts2rahSJWvq08FDh6lzl+7avSXHytgxI6lZ0yZaV8kN6KtWrUI+TBEMj+CIug28dQC9EsWLcYqGJUfjR87nOHv2nHZ/SQX0kTw7gH7++vtULEqNrYC+XdvWlCN7dv6Oi6Sp077Q7im+leQC9JgZ6NihHWXgJaiHG37aGN9l6a0qlQX9Du8nacE8O/fzz78kmr7l7OxMVd+qIv7p+8N3I+5lG88W2pLrgXM/7N5VDIr+/fc8z4Qssek9Ie9fLZUHlAeUB5LbA3YF9MWYTrFhw9rkfobn6u9eAIP4fwMFneYMc+MB4R2cHAWAlx0DyD+LZFBPUeTq4cIR4SgRoXd3iKKVgwpwhEa2TPyyUaMmghOb+DMTPqNhg3o0aeKnWsPDh49QJo5KIdlUWtduPWj/gYNyUyydGPTv2b2DkLyqt1rv1IlF0dm29RdRK0DfDuuIVlWqUp0CAwO1Q4jKHdz/G+FHVRoixgCasIkTPqFGDevLQyIR95136zHoiJkdwUFwhHPkyE67du3R2mJFAXord9CokcPpgxbNtJ32APSfff4lLTLQPAB+ft2ySUQz5c1gAIe8ieQ05GboZ3eSG9An9l7febsmYXAM+/PECTEw1fdRunQpjhZwkMDw/ta3keuITr9RpozYvHL1Kq1YuVoeslq+6IA+b9481I4VzZDUC4sP0GMg1LxZE3qtdGkxCwfpX8xMIPke1DxEyPf+vk8M+q2cEM9Gqw9aEEQC8P104uRfrK3/gAcWvpx7U1J8L53791/x/k1owIaBY5nXXxOJ+l/PnC1oWPFcVh1SHlAeUB5IcQ/YFdB/Nm0yvdcodpQ3xZ/ScIFbTyJoH/PhDzKQv3A7nCLDIvl3NYoBO4N5ZycKD7AotDgwsAWAL5LNmcoWScfgNIw8PJxp0dbb5JzGncKeBNH4tnmpjF+MWovhUglurt/wk6AfJNgwCQ0WL5pPZd+wgACcjqn1jBl9qXOnjlpvUMkA/cFoEz4dF+u1QrImkjalgau89vtVcjPWcuCgj2jrr9u0/ZUrV6S5c2Zp21jBPX23dJnYZwTk+LFPDA/aeP7zJsWCUiJnE/449ift4+RBWIH8+UUia+lSJQmcZSR5/rzpF0EDEA1M/hQpUpiVfcoTQBwGNIjqrV79PSGqjOtIiyspFsCwcOGC5O/vT34Mih6w4s85VinaunUbXb5yRZ4uZmAKFSrIgKcw9ezRnbJyhFwa+r5+/YbYfPz4Ma1ctUYeEkt3d3fxfsG94rVFUuX58xfp+PETppFQM8qNGaBH5wuYllWe6VnSwB0vU7aCKZgtUaI4FefcDzxrtqxZCLND/56/QMf4NdA/K/rCPRcrWpSKcyT8oyEDZfdiCaAl7TSDwd/2/i43TZcJUW5MT+KdiHa7u7txZDdUo7i8zrki777ztjgFFJnFS5Y+FyWjWrW3qEI5ixoSngNKUmb2IgP6Uvx5adbkffH+R4K9l5dXvIC+JL8PWrX8QAQF4L//rl3THrlggQJiZhCDxW/nLaCLly5px+JaAQAHEEcO05y58wQYl20xYOrds4f4PK/iz+VxHoDFZbIfDArmfPMt3VD6/HG5Su1XHlAesKMH7AbovbgC7B9HDlpRPuz4nHTtYQT9fjaQDl4Iost3LGoqEcEh5OLhLqg0xJQaYRyNZyRDrxf0pBK53OlxcBT9cTWMrj2IoKjwKGpfw5eW7n3E65EUERxKtStmoj61kl4uHtG5MmXLCy5pcvoDSa1IbpWG69R8uzal80lH636MAXIAVtVrviMoL7ItljVrVKcZ062n4kF/+WjocK1Zr54fCtAodwBoYHpcGkDu0GEj5CYNHjRATLVrO3jl3ToNmANs+aEGPaRu3draYdzzlKmfiWikLVHM5Ab0A/r3pS6dYwY/PXr2IUho9u/bhxwN0zJIAP6wR2/TpFMMoPr36x3rvY+pfSRYgscrzQjo8+f3pxEfD6U33ywrm1gtAboBXGVUPGfOnLR1c/wUBnRw6fJlqt8gJocDA43JPJuTK1dOq/7lBgZmEydNsUrqTAyg3/TzeiGJKvtDdLRV63ZyUyzBRx4+bCi9804tq/1yA0osAHazOfcjhJ8bBgrWJ+PHyCZxLuPKAdGfkFRA/2G3LjyblZ4CAgNo5qxvCPKpb5Z9Q3QdwhVWly5byX67p79Uotc7cdE95ETAQO8A59vMbAX0kkMfERlB0z770qyrWPueh3JTvVpVeuftWoKWsoGL7WXKmJEqMw0rrgg9ovNIcAZlC0EPULSM9natmuJ76jwP9uYz1Sshgw8xEPj+hx9NB6hN3m8sBrS4Fq5pZpky8fc95wBhIIH31LE/j5s1U/uUB5QHlAfs7gG7AXpERiZN/MSuD3jpXhj9fobpNGcD6OaTKIoMDScnN5eYewB4ZyCPSLunryeVyedOBTM50oMAVrW5EkZ3HkVQOIN+0G1gThyNfY2B/v2nEXTpyhOxz8fHlZb19dfGA2JnIv98PHwU/8gkLxWpf78+BCULaUf/OEbtO3QWm0ZqwqTJU2nZ8pWyqVgi8rnv990iUVUeACipWt0SdcQ+ROelogii4U2btSQAN2mIhFV+q4Ymiadvjzb/nj9P7zWOoYR0Z2CEH3GjIQkOgwNEo+OruJvSgP5pQICWj2C8R2wj6v02U4T0NCNEjdu3a2vW3HSfHtDXfvcdmjplopWspulJvFMmmULyc+f2LXE10/brAX3Tpu/TGE6eBhiMzxAdf79Jc01e1BZAj/cR+NL6RGjkTSC/Qk/18vPLSytXLI3Xv/LeLly4SM0/aC24zg3q16PJkz6Vh+JcpiSg796tMw/KfMXrv5Hfp6A5OTs5U1h4GCHaK2dF4ry5BA4ARHbu1J5nEB144P1IRJfjOsVWQI/+MmfKzAPKIJo+w3rWLK6+kwroPT3T0qCBA/g70oGWr1wlBr0N6telShXjBvT++fKJ7y8EHCbwQBIDV6P5+HhzAvBg8b79cvqMOAc58jzMmLi5uTJFZ4v2nSSPYYlBB9qAdrOQq3sbDbNxvXp8yLNeWfi9e8Aqf8fYVm0rDygPKA/Y2wN2A/T2otucu8Ugnuk0B/jfnUdMp2EQD5NAHnQaF0+myDCY93B3onIFPMif9eRBwzn0bzDd43OecdSKSfT8v6OWEMu/RcIQyG9ROR0t3nRdbLul86SxTbJQ6dzulgb8N+zpFQq6/Ts5eWQjl7Q5ydUzF/Py3bXkOK1h9Epy027Agd++bYtQcZDX+nTCJI1iASoGouvSQN1ozEDNaLO+/oqq8Y+c3gDAAcSzZ89G4M9L286Fofr1H0Q/sEpNkSKF5W7q2LkbgbsPPv7ePTutfDCXFT9mfB0DJlA86ueffiQfHx/tfOPKRdbVXsGgYM33a2P9KKc0oMe9AIweO36cQck5QZ8Bl1dvX3w5nRawrCAMsyRQdALXVxoKdP24bgNFcGIlIox6X6GNHtAjcv/Lpg2CmoBjmMlAkS/QOzCDArAsDYMtDCYAgBq/10jo/OsHdGiHZNXr1y3vW3DYAXLBR8YAD/kN0v76629CFDWQBzAYiL/OVAVpoDdMnzFTbJoBeqiPSNUS8KSRs4HkbGm47tjxn9C2bTvkLgHIli5ZKPwpd8I/SFAEGAZ9CNfS25LvlopkToDF9xs3Zl50caoTLc8p28n7xPZp1m5HonZ8ltQIfZ/ePcgzrSeBWjNv/kIRVX777Rq0hQegd7iw1vMaBgh+efOKbjBTEl9U2FZA35PVpvA5S2iAoL/3pAJ69AFFnTCmqMiZioQAPehpDRvUjxNcy/tCAAB94zvhJL9vYaDJYUbr4MHD7Ks/ZdMEl42ZDgrVrrgi9JgNwswLBsPzFyyK9f2T4AVUA+UB5QHlgRT0gN0AfUpKVZ6+Hkp7zwXSAY7GPwxifWhG3xpwNzjP7Vk4VSnuRbkyuNKNx5F06HwIPXgcxqcwgHdyoNBHAYJO4cja0RgEhD8NIhevNKKXCB4MOPNgoF1lb1q45TY5uDjzOU5Uu4w39aqZQbRBMtXjyz9S4H+btStH8KDCwcGLBxI5yNU7N7n68D+vPPwvB7dxFIoVySlhWbXqWzSbi3ZJAwitxrQaWV0ViYMAcXpr0bINV548pd9FTd5/j8aPG2O1b/KUaUwhWCH4q1C4kTZ85GhOeN4oIrGQppSGtjgHka8vPp8qd4sloqynTp222gegiqi0HqxaNYjeOMmUjYGDP7JK0k1pQA+axyC+5u7dv4m7QMRu+dLFBK1/aZhNqMEa/DBIKEJKURp4ww0ava9x7cGlxz0X47oM0vSAHvvADa/LlUFPnPhLAFxJPTKrL9C0eUv6558zoisoiPzGCkd6M0uK/eqLz+htTt6UdpyLFLVu015uCr4zPruSigMfvMnFupCobAbotRNNVlAJeMhHwwTNQn8YWvnjxo7W76JuH/bSchZwwDgIxXv6/aYtxOASxwHmETTQmz2SYjFYGzSwn5AuPMuDPAzWktNQGbZ5s6aiy0ePH9HcbxeY5h3Ia+I9KXXob966yRSlZfKQtsQ9Dx7UnyPmjoKXbpyd0xoaVp4H0Bu6ooQAfd06tQV9DzOLP6y1/q7S99WxfTsh34lcoD2/7RWHxo0ZxZF45DSE8OAx4dkbnITPIuQ+wev/btnyWDVCChcqJIrnYdYRr7Gvb3rxHQW5ShS308/K6e9PrSsPKA8oD9jLA3YD9MeOHrQqPvQ8DwimzMn/Quh3BvGHWSv+EVNgIllOMoKT0hz5x8qZI5gA1o7OFgqBl5sDVS7mSdnTOdPVB+G099h9ehr8jKPniJoThTCId2IA7+jspPXh5O5q2Q4KYWDvJsC+vOfXcrvStXuhdDeIT2ZL7+lMi7sBnFukIf/Z8yndv3aSMmdMQ15pXSk8KJSehVlmCkSj6D+Obl6Uo+YcCuBIaEIVTfXnJbQO7juAsTREyBEp1xt49OCTSjOjJCBivmfXNisqxu7de6hXn/5Cex7RLBjAlZSeBDhds3qF7JaghQ2lGqOkIDjnKD5lpiaBAcegAf34B71KLK661jGvIFmzLReWkiA3pQE9agc0afaB/hZEBBvPprfyFaoQ6DnwXUbmCkuTgxu5jWVSK8WCY4z+Adyl6WU8bQH06OPQgb2UNm1a2YUo8IVCX3ozSpPW46rBoN8kFtDLPgHSAOxl9PqzqZOpDg9apP3JvGQUXtMbov14XiylfTpxMq2MVntJLUCfM2cOatu6lbil+JJV5T0nZokIOiQ/pezsxk2beNBtPQA29ofZkLp1LQNKgM/tO3YZm3CycT5qzjMvsMNHjohqs7EameywJ6BH0awSxYsTimaZFbSTt2fGe0eSMmbOECxYujzmu0ieY7bE9yVmzG7w99XXs+ZYfS9hAIR8GshtQqte/x5EX6ADbdn6a6yBqtl11D7lAeUB5YGU8oDdAP25M39bAcPEPhDqOv15JZj2ngmgw5zc+jTIQothTgwDbmcKD2SOJYN4Zw83Ae59PR3praJpGVR7sJJNGB1h4P/4YbDgwQPIODqjjLsI5lNYQIgmUwm6jSMnPDkyBxZtOBBJArbzn/DAEKFu4+riQO+X86bV+x7zNfk4R/YntWAptRx8bU7cu31kGEWFPtAeEVH+Zwx6cV29OabhwiblJnKClRsVK1FafyjJ6wByu7iYkJ7mMW78BEGv0Hdq5KsDgFZjfrxRgxkVfVHdVVpAQCBTO+qK6rDyGnp+Pp5x5/atVnQf0HSmf/W5oIHIfsAt/uTTiXLTdAk+OH5oa9SoRuXKljUF9/0HDtboG8Z7RTS5zBvlTfuWO/86/odVv4c4Ia5Tl+7isDEp1gzQQ0UIakJ6Q+QYxX4OH/xdv5tkAS39zsQAesxaFGLJzuysH+7t7UXduna2UrFBArEsJGQLoLc1gVZ/v1hHVV+AfjNAj8Tp3XssMxhoC9oQEm4xQ6Pn6MOXzVq0EoOx9eu+F8pBaA/DM+BZjLZ65TIxYyH36wehqQXo69R+h0qXYvlJNtzPhYuX5O091zJ9unSiIBySbWFQUoFfzAbAibkQPp+tWrag3LlyidNW8z1ftPGe7Qnou3XpLCRIf9m8JV51IhnJB00M/HwYnhH+e8j5Brb4C4nnnTq0FypEMznh+i5H3fUG3XpJ50L+xu+sdoXIPDj8r7/2mqaEtXLVaiGFqT9XrSsPKA8oD9jLA3YD9OfPxR9ZMntgFpKhI5eCOLE1gI5eDKFgrt4aFcF68E78j6eLYUhahVINQHm2LGmoSiE3ypDenc5cD6Fjl0MphDXjLeLylitEhkKthgcDbADuEZzMCXPidUhXOnOEC+o3jkyngTnzYEECf0TaEa3H8e4NstGCHQ9FG6asU90yPtS9WnqKCOMk3NUdKFMGdxGdR4MwngEwswjPIpS2cFdKxz8+pV4ra9Yk0fug5DBoYH+r8/CDjUIsevPkqGyePLn1u0wBp1l/4L3rk1dRmAacZmkoHiZpAtiHYkOdO1lHXI2UCnluXEtUdUTRKf3MA9qCs/zV9K/FaUi6Bu9WbxUrVxPJivp9ch2qKrt3bpObYgme+Zix48W6LYC+QP78BECqt569+ooffOQT6M1M8z8hQA9wUoH5xCjeVaVyJStQrO8b64kF9OAZL1rwrbGbBLeHDP2YfuHEQjNAH5dsJYrw9Ond06pvqAZBR/z4scOC8iAP4vXE62q02bNmiIJAcr++hkFqAHoosEAtBq8R+PPInZCzRfIek7KE7Gg9ppyANgK7cfMGS5z+oCn7JKVPnIMBFT4/Uor13v177OdFNndnT0CPvAEMlECjAZ0mLoNOPUD1vv37aSMXmkqsgUrWtXMnEQDBDNqZs2djdTGABQYQXDhx8qRIcjYOEmrVrCEKX0GxCrlKyfEeiHUTaofygPKA8kACHnjhAH1I+DPmtQdxJD6Qjl8NoVAG5OFMe4HuO+LbHBCn8CeBzEVPK9azejtS1RJelMYpik79F0bH/wvlSo6Wp44ICecfMY7Gc2VXGL6IQcsRUpVA6dxD+NNgQa1x8XSn0MeB5Mb94kIRweFM3XGxhOe5KSg9oOTgnDDm0lcqmY4u3AqnO/dDmHISyZFST1rcIzcFPzxHD05OweWEoShVGN+vmQX7VKQ0eRpywZ1M9FoZi8a0WbvE7Pt54zryy5s3MadobfWRdrkTpe71yjXYDw10vdQiKshCK1wapCvnzLaAbOxDVB/Ji9LAN0XRKeg4J8bAc927Z4cVdWvzZtbRZ/oGzGzwYcYbl9dE4t28b+fITbGENOPyFZZIny2A3qyqbrPmrQiqP3gt9Nazdz/ao4te41h8gB5T+zguChDpO4pjPbGAHhr1O7bF5HqgW4Aa0AriMiTdLmdFJMzoJAbQF+M8gzWrllt1+/kXXwk1EQyqMLiSZkyWlvsXL5xHZaPlILEPCaIDB30kDtsb0KOwWTNWB/JwtyQTr1y9hi5fviJvNUnLPLlzU5UqlShXzpza+Vf/+0/ILMLvz2Og76BoG6rDwlAhFu/zxCjw2BPQY0YHqjN/cgL66jU/xPnonTt1ELM7UMFC5DwxljNHDurcuSO5cTAHrx+i/EaDPCU4+Ri0QW0HeTBGw0wl2uD76UsejCKPRpnygPKA8oC9PZBqgB7UFNA78EUJKgGiR/8xv73fkhushgCwbTFE1GGg1cCwXaWkp6C3gIZz/GIw/cV8+khOLpXmwCsA0lERkQzEw1llxoPpMpzQmtaDInhwgP0uaTwYoLOKDQP7MKbEuHp5MC2Go1i8L4rBeyRGBdylk4uroNRYjjEFh2cIwhnweGXwpPplvGjVtptM2XASfPxprbNS2ke/0oUjS8g/t4+4HfQTwVQdMwvI+B755KwoAH1yROhBjQHt5Hmsbv1GdOXKVasukBTp55fXap/cwBR0w/csfFy5D9Jw+/butlJOkcewBN900OCh+l3aOn5kMVVulmRmpt6Dwi4zmfMKQwT7mzkztb6wsn//Aera3ToyLBsgOm3Ud+/QqSsdOXJUNLEF0JvJJpYtV4mpVxGi7gLe39LGjPuEfmANbL3FB+jxLHgmaTdu3BQqOCc4cRU5CFMnT9RkQ9EmsYAe5xw68LvVYCsxMyeJAfRmg6eRo8bSuvUbxKAKx6X9xAo7kHI1GvT1QROShtcdrz/MXoDeg7+rypV/U+iVQ5oS9s+ZM6xbvlGsJ/YPkjBRcKtggfxWA1X0c+HiRfbPT4ke+Mp7AMBEtB8qQX5+eUXiLo5BTnPTps0cjT6HTZvNnoAen8v3Wa0JBaOgrBSXIdcGAZGlnMgan6St8XwMyLpwZB45B6BK/cn5OGYGvXzMeALIA9DHZf369BaKUctWrIwlLhDXOWq/8oDygPJAcnrA7oAeUVlI5yGCiWQ8T09PoSwAdQaA6/fH7aA794IYSHuRVzY/8awA8VWLutN75TPyAIBoH+vKp/NwoIW/PWWuegSD9wjmzrsLKgyqvrr5pBXAXwwCuE/0GxkaJtqIDnkbhaEcXZzEMRQJQgQ+iu/NiRNq0dbB0YmBvCPfh5NI+ozkyL4YEDDdBrQc0G+618tM87beF5F8UH+aVMlMjTKvp7A7v2uvUURIGEXyPyuLxnhPs39ImXIUYsUEXypRqoxVk6RsTPjUurorpP+mffYFTwHHDJD0/XqwzwbyD6LeIMf25Vcz9Lu4Td9YlBnZQE95kfuwNCbm6o+hOBW41karXr0qzfjqC5Fkhh9xqG/oo8WY2gYXX2+Sz419iGhv3LDWileO/QCNkyZP0wYJSDIcPnxoLHrOf/9do0aNm2g667YAelS+rVy5Ii4jTCYBY8MYed61aw/17htDh0JkD7ScgsyLlyZVbox0IERoa9R6l6tbPpJNycgpTwjQd+7SPVaBHshF6mUpMYOAmQSjAfik4c+rlKTEcVsBPV4XSKAaB09SAnXI4IFCQURe0yyfwyzC37ffQE7o3CVOMwP0JfkzBTUeW80W2UrwqfWDD4BiDEAQoEiKYcD3fuNGVgnqqIiKSrBQT3kew/sLCkL5/Czfo+gLNBuotNy/H5PjY+s17AnoIYvbt3cvQV+ZxCpZZpFx6MGjyBsoLlP5ew4SnLaYAPOdOopAEhR0UAU6LoMPP2GlL1xj1Jhx4vfCrC2Kv2FwhiJv+A5QpjygPKA8YG8P2B3Q72euIwxAXv7DF6HUwZ6x8nea9+Mh5jQ6UMtmDahxxVwUwYWddjOPfsNvt8nRzUNE3TvVzUrL9jzi6DrrynN0HQZw78ARdgBxkYQavQSgdmQJSgtlxsKiQXsMFDAYcOTBBI5B6lKq2yCKj4JSGBRgHUouztwHBhQ4L5ITLqu/kYH+uhLCSVSB4vycOTypT84ZTOO5QllZ4QaGRFoMHoz2zMGZAv2GCvCJxLeixUsbmyRqG4MjqIBIP+JkqG6Apxyffb9mhVCEkG3u3r0nKsrqAUppLtm+fNkS2cRq2bJ1Ozp58i+rfdiAFvqnn4yNtR/9gm5j/IEGJWfjhnVWybQo1HTs2HGCdnup0iWpSOHCYkZHdooodUOWgQSlRxoAF7jWRsN1AZAAoPzy5rVKhJVtkQyLpFhpRkCPARLyB9b+uI4BXJTgtesLJuG8CROnCE1srI/gQQNK10vDwBL88O3bd1IWBiNIakV0Vm8S0JcoUZxWrYjJS8C1q9d4R9Cd0B4zA1DX0ct76gE9BsjHUJmZPwPSADxXrVpDADS/MFUJZgbKN/68SVBhbvKMAEBubU78bNXqAxHNxMyKBNFm50KhRkZK4essWTIzF7qkldoPrqtPioUW/k/r11qph0ALfMqUz+gaD/4RYcZgVR+dP3fuX5FUC7/AoLi0cP5csS7/oGDaJabBhPBg+49jx+TuOJe2AHqcDApU1bcq8+drH+F5n9cQSW/RvKkAjQDyevpacvUNPj4odadP/yNqICSlX3sCetxf504WOg1qXOCf0RDBxyAxIVqO/jxQjlD9GZ+bH3mgL2fj9G2M6wP69RXvY+RIoAaH0ZCL1KN7N+FXzMLpvzuNbdW28oDygPJASnnA7oD+CMukIeoKEK8H9FgHAPjv1gM68sdJCmUQffKGI/15N6egvzizjGTmDG4UFBDGUcIgKu7vSc+Y33juUqDgsEOqEmozkcybhzmB/x5tcl9kWChz7z3FXgn+QcUBHx8GoA5gL/rhdYB5WSUW+2D4+4yjNbhXF9a0r/2GL/2w67aQykT7GW9MIVcKEW3xJ5Sr0PIvtbbNJ4r1MJdMFOXXUwB68FsLFy0Z0yYJa6j2CR6n3qQ2vH6fcR0/msYofa8+/UhqraM96FC7d/5qJZGI/SgSU41BJoCq0cwkL9EGQA2RYqO9x0VdANoSYxisYNBiNFQOBeBNjOkVU+R5RkAv92OJZ8Z7QG8An/UbNNYoEogybvllo5XikL692boE9BigQVJSfw3IPP7DBZLy5s0bK6EZfekBPbYBkv3982E1ln3Yo7dISMUB48xOrMa6HfjsgpaFgZ8ZoNc1jXMVA7BmLVpaAVcMfDAAssUQLW3FWvl6zjNUffAexXvVaIj4N2jYWNP/Nx6X27YCerTHdXAfyWV4nc0+R8nRf3Ldq70BvZ9fXuretYvwMyLp+oJayNPBrAwMVWKlBCq24yoshc8jEmAR9EAxv8NMrTN7vwCQ61+LkiVLUKsPWtD9Bw84+X8ZX+sOLiMMfbZp1VLMsm5mKqExR0a2U0vlAeUB5YGU9oBdAT1+AC9fvsyR0ksaoNcDe0QV0aZa59n08AkD7TSeVKJyA7rzkCPv4aH0FheEOnIpjKO7oQysHalXwyw0+5e7AoQDUwJfIWHViRVqHDjq5cAJsYI7z1KWgmLD0UpE7wHOo5ia4+jKUXmO8MOgaqMfBGAfoutCn55pN0aTEfzu7/rS/N1PxGEPhyfUL+tYyuTrQWk9XMU+FKoyGmBgcJpi5OLXUqgnwAeFipQwNkvU9srl33G1zJg+QNF4q2pNkbwYX0fgrG/d8rNVE2g/9+k7wGofCv9g+l5v4IMjIhWXLV+2RERn9cf1Saf6/VhHJUYMLlBVNj4DqPyCaUFSg9zYFj/SkObr17e3VdTX2A7bAHtffDGdEw/XWv2I41h8gB7H9YZp9t6sz4/Isd46dmjHRXysfSmPY5biZ+Yyt/ygudwlOPKjRo8T2yOHD6OW/BxmhhmjTZs3Ww1cjIDejIYi+7p585YocgXqGyhIo0eN0PTLZRvjEp9NXEMWIkoKoAcIR+T8hGFWB68ZCpKhui2+B+IyVJqdMHGSNsOgb4dnQKTbzFCZFhKn8VliAH18/fy/HnseQA+ee/Vqb2muQeIv9t3loMB/nPgLw6wXZr/0VokrBNerW0cAb8hJYlYOlWERMMDsDNob+e9mhaUQNBHfBwzmQfuEdjyCSGaG7xfQfNBOGj6jpUqWFNdEojLoPRhE4jnw3kUlYnwuknOQJ6+tlsoDygPKA7Z4wG6AHjr0AJkPWSHl5MmTGqDHl6oE9ZIu8s0P+2n/8fOUNT0D42wlWLaS5SOZ7w3LmdGFKhRKQ+nTONKh04/oxDWOljNwB5iHAehImgEqtCLB1TkNA3qO+EPqEtF1HLfw5y2DAG0wwAAeCa6QpUSfiPqjWizC8ojUyxkACfxB66lR2ouOXghhXfxIyuN2ioYVX8PXsdwM7iWcBybCou/PskEUmK4aeeapzRSTzAJ0Pg+gh47yhnUxShCgqqA4SlyAV96DXKIKZ4f2bbUCQ4hQga9979592YSM1WdxAPKMsjqj1lC3AnDWnyXf9FbrnTpW1V31x7CO9wAGDjWZL/86J/mCwwpDxAy5F/jx/mr6TEHDEQfi+QMqx4fdulIRpmz4++fT6CkAsUjm/ZsLz8z9dp5VdE/fnRHQY7p948ZNAnTiPQtD9d0DBw+Jarh6fru+HwASUHNy584ldgMoYNAEicfHj5/QtKmTNDlGGaFHQyQX9+zxIbXh4kLgsMMAGP5g6gTyHFDq/svPpwmdfvjJCOjR3jhIgh9Bd5k7b76g/ugjkcgFAHWgQIH82nsBfUDVCJHHhYuWWGmW2wLo4R9QSK5cvcp97I23SBCuhaJieM8UL16MsvBnA4ZnhhrLocNHaDpTlnA/ZgYf9WZpTEh8ykEBQN8+Vj+ZNWdurKrExj5Q/dPNzfI9Yzz2qm+HhnJF7QfmfrfFN+Dxg2IWn+G1Gjl6bKwm+f39+fugOiH4gNcVYBx5BpCzNFPpMSsshe8SvZRurIsYdpgp2qCPalWrMn0sgzZDg0HGbn5fg/ajTHlAeUB5IDU9YFdAD+US/MBfuHBBfDEDzOsBPdYBhs9duU0DPvuJbjI33S1DPipVpgyVL8hVVzno/eflMDpxOZh59dFue8ba9Ay2kciKyDySW51YptKRK78yCuTIPKgzSLjlTT4J7SBjCXqNkyuAPfPiOcIS+sQSSXdhQOnEkXvRPjqZFOAeqjly4IBjMOD2NFyFtmrxtLR+5y16K9c+qpp2C3mmcaHMvmn4GuGsqmNIiLWcSgFZPiDf3GVFlAcgtmDh4tFH1EJ6AIA2U6bMDC7TCFAIIJ5UQxQN3HG8dhgY6IFsXH0aAT2AsKwUi8GCE6ucXGNgYash0TWdTzqRNIcooK0GsI6pfSSX3rp1O05d/fj6g0Ql8hSuceIvCm7FZ/gMIgrqzYVzMEhBDkNqmLe3N2Vl/W9ERI0Fz+K7H/gLhZMiWGnoBg8EbE2MBVjUV/aN7xqv2jHQ6/QR69R4fnyGEWlHdDy+zy/ev4kpLJXYZ0HOQzq+D6hxKb58Yr2n2isPKA+klAfsBuj/PXuKkxcDRBU+lNdGlAVRThmdl+AeP6rhDLw7jl5O+bJx9J65xLccCtOZO5yYGoUwtyXUHR7E1Br+YkX0DlF3yFACdIdFJ0i6MngBAJcmEls5MopIP9ZxPgGwcxs35tUjITaKI0TOTJVxYKDGHVsGArxERB/Rfke+HvqEFCYSZEMeB4hzu9TwoXnbH1KTrEvp3TwX5SUZzIeKgYNA/tpey0pAngGUOXteMXWMhLUChYoZWqjN1PZAfIA+te9NXT9lPIDvHy8vTxWpj3YvIvNPnwakOphPmVdb9ao8oDygPPD/4wG7AXpUikWEFRF6RPwQ8UEEzgjoJe1mwfqDNH3lfhFRzVSwOrm4eYvkWAmqHZiJEfoQ6jLOQgNeRObdnSjscRBTbFhjnkE4KC9CdhIqMxzJl7x6UGVQDAr8eJiUsESUHkAd1WCF8TmM4AUP34ULW5kBc7R7u6QHS2mGULvMUyin2z2OzltUd6DA8wxi+QaLdEpDof6DRUIsqsQCRChAb3DSC7CpAP0L8CKoW1AeUB5QHlAeUB5QHkjQA3YF9OBIgkOPSnqI0kM6zEi5kdzkw6euUscRa7gu6zNKl7MweWeXEWwHjsIHiWqvSHBlpC747aBSoCiUoNKw2gyWUTzl7sy0DQdnpsxEU3QgN4l1l7RceZZPD30K3jxvA7Czgb6DKVtE4qM4Ei+oO+IIJ23xwMCBQX4kIvl873IGIK1LFJUv5E7v0jBKlyZmViD0EdMqJD8nug8sQt1zkkO+bgLQY1CDKdz8BYvqWqjVF8EDCtC/CK+CugflAeUB5QHlAeUB5YGEPGBXQA96DJQ9IPsFxQRwMo20G2wD4IYxeK7UfiYFhzPlxcGVsharLZ4lDDKTrDsvZSSjuKosgLllG2CaAT4qzfI+8OcRwXdkQB/BcpaQvkShJ6GCw0o32IdoPfaLhFdWvgGfPoorKaJTRPAB7iO4oi0Av5C1dGNZS/4vku8L5ujC12QqUJ8aIeR7aSSl93alNJDMZCAfBkBvYsHeZcjNr6lQuMGABpxfBehNHJXKu2rVqmlVqRXv2W/mzkvlu1KXVx5QHlAeUB5QHlAeUB6w9oBdAT0ujWRA0G4QpQftBklOkj8vl5J2M2bur/T95pMCkGfIV41pN56CRgOeO9RrUARKVGEF+IZmPINoAHAOozOgZslKjuTDwK138fQQAB/8eAB2B0duz0WlsHRiqg6fhJYi2u8oNOctMwGunpzcKhJtnXgJmo6lrUy+Rf9QxelY9jyVc1lFrtESl4Knz9F/MwvMWId88tYUsm1IdESylwL0Zp5S+5QHlAeUB5QHlAeUB5QHlAcS8oDdAT2i8lApAKBHxBMJoXoevVzHje87cZG6jV8nQLp31sLkyf8sEfMwAbJFpJ4BfBjLTboyhUYoH4Diwv8j2RUa9EicRZVYETF/yvx6pspY+PSsQS+i/VzRlfuALj2AOQYLcqAAbXqLVCVr1kdz8h1dmNbDUX4L3QcFrFh6h6P8jXJvodLOOyhHZkuRKhSuQlJsLONrBeToSBlzlRIKN6AdKUAfy0tqh/KA8oDygPKA8oDygPKA8oCNHrA7oNfTbsCjh+yXBPFyiUg9aDchrCxTvtUMlqwLI/d0GSlToRqWCDxH05HUCuAOTrwz02GgE/8siikzTF8Btx0AHHSaSKbdgGbj5pOWQh+zDCYvMSgQRaMYjKMdTFR/5Ui5WOdBAQC+BP6Qn4T0JZbQtMf5QteerwODQk67/N9RtVw3uD/LvkipcCNa6P7wbEJQ/mGUOWsOoXDjytVu0Z+K0Ot8pFaVB5QHlAeUB5QHlAeUB5QHbPaA3QE97kzSbhChR7ReD+TlOiLXsKHTN9GmvWeFbGTWorUYWPswUI+QDBnBg3dLh4p/zwSwtlBkwhhwW2QnUSgKx0SRJ47IQ6ISSbXOXD0WwB8DAbBtnvEAAW20SD+fBaANC0G1Vwb57uktxYSw7c7XxIyAmAVwcaURxaZSOsdH5OtjuW8UlMIgwWgRzukoosAATeEGAxcF6I1eUtvKA8oDygPKA8oDygPKA8oDtnogVQA9aDdS7QYSllLtBpF5CeixDtt19AL1/GStoNj45CpOadL5c1JsGtaRR6Iq5CUBup8xXQY0nHChR4+oPQC9mzfTadhCn4Bqw7QbbgrwDP47klyxH8o4rsyvx7lOHC0X0pXg5nMb7AdoD2Oqjps3qDQc2efrIlqPgcIzFLVC4SoKpUklxlMGH0v0HtcMexSIRSwLTZOfnPw7CUCPZwWgh6kIfSxXqR3KA8oDygPKA8oDygPKA8oDNnggVQA9aDdPnjwRajcA9JCzlEBeLiXtJoiVaMq2+ILCmZPu7puVMuWvypz5YHJn6owFzENqMkrw37EEhUby2/H8TqzxDhoMCkMJmgwfl0o3qCjrxLKWGBCgyBQkKwVHnqvJQpse7XENZw/Wpud+cB4UcWAA9pgNAPUnm9slGlzwW3oSGEa5s3oJqg8i9FZmGXdQUPpKlDbfe5SZy9qn5aJZULiBKUBv5S21oTygPKA8oDygPKA8oDygPGCjB1IF0CPqLWk3APSSdqMH8wD0knYz4POfacveM4LCkq1kXQbMHNWOpsMgQi647sxNhyFR1hJttxSNQkVYVJFFkSdw7UG3ceMIv5C5ZCUcKOJEaRKUFnqOZaCAzFo2BvpYg5wlgD8SYjE4QJ98I3zAiYq5bqWuxXZzVVsL2H+GBNtAk4RY7iEwaxNKl6eyKDEvFW54twL0cIIy5QHlAeUB5QHlAeUB5QHlgUR7IFUAPe5ST7sBlx5SlUbKjaTdbN1/jvow7QYJqV5ZipFnlgIMphlcCzlJ1qxn6oxIWmXaDBJh3X29mdsexEmskUK1BuAfvHvIV4rKsqxkEwPaLaFzRP1dPGSxKCTdWqL9IY+ZL4+EWh4QgF8fxbMJDlyJKpJpQ7gWePLNCv9ClbwPa/z5yOBwi5ym/uXAZdiC8vamTDmLiIRYKPxA4QamIvTCDeqP8oDygPKA8oDygPKA8oDyQCI9kGqAXk+7gdoNovZGQI+IPSgpT1mWslzrr5k/48iR8QyUMX8VCmWOugtTXhydLVH1Z8yZd2A+vAWos/pNSChvO7N0JEtXcoEoYQzsIUWJfY5MoQGvXirfAOwjSRbbIvrOJ0SGcVVZ3u+SFlF/rjzLIB7HpE69hZJD1C7751Qu+wNyZy18WEQAc/gxc2CwZw4uFFJ4pODPp0+fnlz4HmTirQL0BmepTeUB5QHlAeUB5QHlAeUB5QGbPJBqgF7SblBcCrSbx48fCx59XLSbXlPX065DF8RDZS5SmzntXLk1jJNhuVAVouSIvLt6Mw2GDUwYRNJRbMpoOBb2NFBQaFyRNMsDCd7gKH8g9+HAuvKWKD2oNeDHu6RFYi0KVsmeOHrP/Hpw7S3mQFNKjiMPCqQ0zLWHhT82KtxYTg5zyUxUqC9ly5aNvL29RUKsAvQWL6q/ygPKA8oDygPKA8oDygPKA0nzQKoBetxuWFiYpnYD2g2SRBGlN/5D203MoR/85SbBaffJWYrSZsqH3QyunwllGpkMCw49+PJQsYEJrrxYs/zBIAARdqa+axbJibdOHK3HeTgfFslJuGGsL++RAVKVrG7DSjfoyxnceTYR+Wfw7+74kEb4fUJZM6Th2YRo4P7QXOEmxLM4uRZoqyncyIRY9Kci9PCCMuUB5QHlAeUB5QHlAeUB5YHEeiBVAT1oN4jM37lzh0C7gRkj9JJ284jBdsX2s6PlKjNQuhzlyR1gOzp3FZKUAOEiMs+68JCUlCboNHwcwXgOu5OjqxvTcFi+MoSj+O7OHNHnCDyD8VBWpnHjKL8E9hHgwrPiDTTrI4K5gBUr3AD4wzAwQB/5vM7QIP8lHG13JGemBIFXH0vhRpzB/PmMNckrXz2hcIOEWAXoox2jFsoDygPKA8oDygPKA8oDygNJ9kCqAno97QYR+qdPn1oBegnukTwK6zx+Lf124Jyg12QpXoec3TwYaHOSKoN10GsA3GHhXKUVdBmo2WDd1YuTWcOiBNUGRaiE5CTUcHgAAANYh7Y9gL2jK1Np0E30AMGZAT+Av6MLV6CNjsBbzuGqsUyxKeO2gZrn/o0yprdE7qOYax8el8JNrjaUMU95ypAhg0gClgmx6E9F6OEFZcoDygPKA8oDygPKA8oDygOJ9UCqAnrcLGg3Dx48oNu3bwsuvZF2A1CPfbB1u07RMJawdOBEWe+cr1HaDHk5Uo6CUNFJr9wGBaUsVV+Z/860G8F9Z3AOQC/BegQDdGEcssdAQAB1BvEikg/QzuuQsowMD7NQd3iXtFCuEuvmw9Vmo+k5rXMto4oZ/yaPaL5+eBBz71nW0swe5xtCOXP7awo3kj+PtgrQm3lM7VMeUB5QHlAeUB5QHlAeUB5IyAOpDugjOZKOIlMS0OOGJYdeRuixDXrKPQbTlTt8I57JzSszeWd/kwE8U2j4WARTYyzFpjhCz1VjnRnkR3JiLCLmxOo1TqyGA2lLaVCzgbmJAlWWvRKki2OsT+/KtBg5CBBgn/tBVB8zC5gBAIfnQ79pVDTDE0rv7SoUa8KehohBhaXHmL8PQlzolE9/avRWIUqXLp2Vwg1aKUAf4yu1pjzwqnnA29uLvz8cBQXxVXt29bzKA8oDygPKA8/vgVQH9ADHgYGBBLUb0G4CAgLipd20GrqCjp29IVRqfHJWE7QbZ9aVjykOxZQZpt6g+BMi4HqgL92FY6DZuDP9RvLn5TH9EtH+SJ5BQKQfgD6CpTCxLs93YNC/qNY0CmLNe880LuTCPPpQoXBjof7o+zp2Jx3tDmlBk7tX0BRu9McVoNd7Q60rD9jfA+5M7WvevCmVKlWSC98F086du2jX7j0pdiP4fsL334fdu1L16tXoxImTNHHSlBS73ovasfSDrfdXpEhhatSwgWiO34uZs+bYeqpVu0KFClL9enXFvqtX/6Pvf1hrdVxtKA8oDygPvEweSHVAD2eFhoYKtRvIVyJSL2k3+gi9pN2s2nycRk7/hTnuDuSbrxxH5XMzxz1EaMVHsFoNtOXBfwdtBnQcAHEAfr1FcATfaFC6gRQldOpxjgufg0g/lnoL4VkCzAg4ubtRetfr1D/XVMqVJS0nxDqJ80IfBemba+trz+emjTfeop8n16b0TNnRJ8SikQL0mqvUivKA3T0AUDnh0/FUuHAh8X3k6mqZcVu2bAX9uG59st4Pvtfq1a1DtWrVoGmffUHFihalNm1aiWtMmfoZHTp0OFmvlxyd+fr6ksxlQn/BwUFc4fvxc3cNf/ft05uWLltOBw4ctKm/ypUr0cAB/UTbhw8fUucu3W06z9ioUqWKNGhgf7H75F9/0dixn1g1EQO8Fs2s9sW3ce7cv3Tw4KH4mqhjygPKA8oDKeaBFwLQg3ajV7tBsmhctJub959S5ZZfc6TclRVpspGHdzEBwl09LUmpkcyVD+eIv6u3p3AaJCqxT4J8J056jeLkVxii89iGhbEsJcC8NAwCwlj1RmrbI+rPwTQxSMCPP3j8xdL9QUOK/ShOcWQ6DmYJQLkxsy9PvEZHH71Ok3pWopolfRWgN3OS2pfsHhDvVX6/QlFKWdweeOONMjT846F05MhR+mr612IWberkieTGA/fWbdoTvqOM5uubnhP5A0TVa+OxbEEtIQAALe5JREFUuLYxkM+aJQtNnjxBBC4uX75CQ4cNp88/m0o5c+YQeUR9+g4wvV5cfdpjPwA0gLS0zZu30rz5C+RmkpY1a1Sn7jw74cw1RGDr12+gZctXivcqAjgFC+Q37bdY8WL0fuP3xDFE6L/8crppO+w8yyA7iGuVwDCQyp49m1jHn5IlS1DLD1qI7QsXLtD8BYu0Yzdv3hLrixfN1/YltPLrr9vom7nzEmqmjisPKA8oD6SIB14IQB8f7UZG6bFE1AzWbNgK+vP4FebEu1P6vNXJxT0tA+1QoX6DAlNCoYaj8zK6LiP3APIA8QD87um9KOThU7GMZCAulW2QUPssknn3HOV3cHQSUpW4phgU8FIOALCvkvtSqpfjKGXPZEnaRbJtBCfFmlm/nVXonlMJqv9OKRrTNCvpFW7QXkXozbyWcvvSeHhQXr+82gUAzP777z9tW7+SMWMGITWKfQB2ly5dFsnc+jbGdQBpP7+8Ilfi4sVLCYI+vB/y5fPT3uM3btzkCOgjq27RZ7ZsWSl37tyUPn06lnq9Ke75wYOHVu30Gz4+PrRowbcUwO955KoEBAQKmoe+ja3rGLS6suSrL1c5vnb9Gk2YOEUDS7b2kdztUG0Z3x8RnC/zPNa4cSNq26Y1ff75l7Rv/wHR1QAGsVUYxPbs1YeB9u1Y3f/w/SrxOQ5lKl4of/8kZC7OLuQRXcfi5583Uf369cQpc76ZywGNJzRs6BAh4QvaDSggL5K1a9ua3nuvkXZLa9b8QKtWr9G2k7JSlgdR8LE71/OQhgj3FwzQ8+f3p4kTrCPmsk1ilh8N/ZjOn78gTtFH9hPqY+bM2XT0j2OkAH1CnlLHlQeUB14UD7wQgB7OAO1Gr3ZjFqGXtJulm47R+FnbWIUmnHxyvcnJsf4ieg6mDWg2kcyRhwyliMqjc46sW/jw0JJnCcvoyLzgzzNICWe+bFQ4pCmdmZ7jzpH5AEGfceBj2IfoP+g3AFSwiOAQQbnpVXwJlc9wgX/ULfvDA8P42ojkYQbAsg/to3i9zY5mPKvgR77ZstPG4X5M0Yk5jjYK0MML9rOmTd6nVq0+0C4IsNul64emwPC110rTqJHDtbb//nteRFW1HSYrPT7sRm+/XUscwVT8sI9HmLSK2SXBo9yjByLYB3pA504dREK1bCOXAP4rVqyiHcz5BrjVmwD0C1MmaoiBzSefTkgW6oX+nhOzXqliBRo0aAAF82c4JDQkSZFtNx6kpPVMK8D5yZN/iQg9ou/jxo4WM2lt23U07VcC+sTcr2w7eMhQ6tWzhxj0IXeod5/+VKpkSQL140WcTWnWtAm1bGmJZuMZFixcRJs2bZaPk+Sln19eMTMCKV9p+3lA9csvW+jTT8fJXUle6j9HzwPoocY21yT6XrbsG1S+fDlxfypCn+SXSZ2oPKA8kAweeGEAvaTdgEOPHzhELGV0Xg/usf+/24+oZmeeCmW2jLtPDgHq4YvQx09BredEWS4ExQMENx8oRwCAhwtXObqyRCWDb7GPOfOIwEOyMiIQ1BoeAMAYD4FDj3Yh3J8rT/0CIzkxvx6DAkdOfBXSmFygqk/u0VQwUxil8wTflmk7T8wVbp46pKcuv9bhgUdJ7seDJrfNQuULWihBlosqQC/9YI8lBmZzZn+tRd3lNT/j6CzAhNFACViyeIGoHSCP9e7TT0TI5bZ+Ce7tYm4vZ5RwbOCgIQR6hZmh/ZIlC0U0H8cxsO3arYcGzvv26UXVqlU1O9Vq39mz5xhgT7SKmqckoEdk+iOmi8Q1s2F1cym0IQF9cnYPQC1n0L6dt4C2bNlq2v3zAPpBgz8StELMymzfvlMIA5he5AXZ+V6jhtSuXRvtbpCIiqTh5DDMgH36yXj+PGYS3Z06dZq+/XY+la9gAcrGa+ThGaqKPJCDhXD+1Dqm6sRlO3bs5M+TZQYrT548VJkHxtJy5cpJb75ZVmzeuXOX9u79XR6iAwcPslDDfS1CjwFj67btteNyRT/QUYBeekUtlQeUB1LDAy8MoJe0m7t37woeKZRvzAC9BEl1ey6kf688YPAdRVlLNWJA7cRBceYKc3QewB2gHPQZx2iNenDkRdQ+2suRIWEcZbdQeADG0T6MaRcYBIQzwEekHvtksB2AHgMDB5a/jMRgwc2RFlYey70x+EcHbCEPmavJpxht760sNP1IZUqX+02m7LhR3Yo+NKyB5cdLtlUReumJlF+COzt2zKhYF4LKyLjxn8bajx2IAgM8Slu4cDH9vImTs03MDGRCQWPlytUmrYkkf1se3LL1VwFosA0gD0AvDTNZ//xzRuScAAAVLFhQy8cAoP94+EjZVCwxGB49aoSg2+DccJ7VMnmLWp1jtuHF/bz++mtWh8AXBohJTTPz9fPez/379wmzMDt37aajR/+Is7sGDepROGYEeXAvvivibGk5gCABaDegCe3e89tLJVEZC9AzJQX+SS7LljUrTZ06SSSV4n1llrMgr6WPtKdkUqy3t3eCgB4c/GbNmohb039u5b2qpfKA8oDygL088MIAejywpN0gQn/nzh0rQC/BfRrWhofNX3eYJn+7SyjOeGZ9ndJmzi3kKhFN11d0FY35D8C4EwN9USU2LXM2+cc1KpwrwzJQF8YnStoNtkGrcWa+axT/YIN2AyqPkLpk7j2ukZH+pl6551DebFCsYfk5Bv+hj4ItfRn+LvknP/1yrQJ5ZizOfblRSX83mt2d71dnCtDrnJHCq3pwDq5y7ty5xBUxqOzRsze/9+7GuoMqVSrTgP59tf3Hj5+g8Z9M0Lb1K4MZ/MsIotx//fp1QrKjmXXr2plq135XOzR+/AQ6fuKE2J4/by4XIksv1tHH6DHjhSKUbIxjTZkOUalCBZo4eQoB1KeEGZMiQU0ZOy7pHOf8/v5U9s036IcffkwwvyC+5wEdqlXLDzinIZTpUgys8eFMpGGAp7dJzGE/Eg+Q17d9VdZTGtDDj1kyZ6bb/L0vrVrVt6hv395yM9HL0WPG0d9/nxLn5cmTm6obZrmyZ88uBtNoANlk4+zcaR44I68BJiP0+K6YNPFTQc3Dew0DZjmbs3Tp8nhnC0RH6o/ygPKA8kAKeeCFAvR62s2NGzdE5FECebmUX6CXrj+gGu1mM+h2Z4pNJvJiUO/m7UFhASHMeWeefHgkA3tHQZ3BPpgzF5YCXSY8kNt4sSoO//Y7uXMSbbTJwlIA/ygchX6w7uxhKUgl1yFxWb/gH9QyxwZ5KgP+SAoPCNW29SvjD5Wlvx4UpuLlKlCVIh7UvFIGyuTFMwo6U4Be54wUXEXUbf68bzRljS+/mkHt27XVQHNckXTkbyBBTsqNItINbjW4tXrDDNKSRQuEOop+P9b79R9kSk8B/ScLK5/AoMjRoWMXARggFYh7lTad1Vf2/LZXbibbEiBFzjKhUwxy9MAYmt/t27fVrhfIibUDmTKC2TRbDEmPoEbACrByyaCBAzR6xYwZM0W02thPv3596Mb1GyJi+9+1a8bDybaNZ//qy8+1/kC3aceva1Cw+eBca/iKrdgD0Btd+ryAfszY8fTXX3+Lbiswz33IkEHGS8S7vXr199QiWrZSAnqc8Nm0KSKBXX8y3t8jRo4WCfP6/WpdeUB5QHnAXh54oQA9QARkyCTtBuBGD+TluqTdvN1jEV24eIsj71C7qckAnSvCcjQdlBsAd5iTK1eR5SJSzh5umk9DWUteVIiNjuaHPAxgtRtPpswEaLmsbl5pLe3BjecBAQYDfrk9qHIhD8qQzoUCTk6n3FEHKVsGD0rDgwKAffwzs3UBbemtim/QawVZZpPVVWRER9/W3oAedI28efMS1F4uX7nCQPNarGnurFmzMLXIXUSEkTRqZgC4efPmERxgMyUQeU4OjoY5M9XgNtcaCGHqhzQAyezZslGOnDkEyL569SrnUNyKdS+y/fMuGzaoTx06tBPdAIwDPGPaHPQJGOgW3T/sZZqYCJqOPpr76YRJdOzYn+I8+QcJch9FAwdE1PFaZ+Png61atYbWfP+DbCqWkNGb+fV0bd/vv+8TKh/YAY1uvdIH5BR/SwFAv3zpEk19Bddt1aqt9hrVqF6NevXqEQP4+TM6YeJk+sPw3DhPb6BQvPVWFf5Xma4zMJcFk5AvMI8HKTLB/fTpf2jkqDH6U4XqybKli7XPCQb3w0eMYtrQU6t2ybFhHKz8+++/nPA8Ijm6/r/qwwjo//zzOCeubuYk3r+fa4YlPifpAT1mzQ4eOiSa47ukTJnXxTryOLZui6F9NYRyEH+nwFIK0Ddp0phq1azBzx3BsqVPWEXnoqAfXeHvUWXKA8oDygOp5YEXCtDDCYh0IClQFplCRBVReQnmsS5pN7NWH6Cvlu0TVBmfXOUoTUYLdUICdETSEaV3dImJhmNfJH8Rw0SUXqyxOo6uLdYxKIgMDaMCudzorVLpKK1TFO07/ZRO3eDqsTxwGFBoJpVO9x9FsGIOKsSGcXQ+iqP0Rnvm6EJBRUdRpkyZKGPGjCkO6OtywRpEo/bt20/gdOoN4Ll+/brUvGlToeqhPwbwiWj1xYuXtN2dO3WkevXqECKynbp0M/3hxo9b61YtBQCGvJ8pXaVyJSFPhxmYTp278Y+gBZgVLFiAunbpTP7++bRrYgX5E8uXr6Stv27TIsXgHXdo346Bf3aCZB6AYFLs6xlfUo4cOcSpexk8Q8Paz8+PdcCnaN0BfJpxp+vWqU1dunTS2gHQzF+wSNvGil6tZt26DeTCORyyGuWVK1dpwMDBVu1xrFOnDto+SPYB1MP0HF5sX7p0iZNeJ8WSs8Sx5zH9DAH6ada8pRhQCbCLRMhogIRjUNP5Ya2l9gK247Lx48ZQ8eLFLId5ENCLVVxApYPhNa9TJ4ZiZJSFLFmCcxzGjrKcy3+vXbtOffsN0LaTc2XM6JGiMqzsE3kOcVUMLcSVRUcMHyben6gkq5/FkOcndgnXIukaA5wF/F468IIWJjICevmcwTyT8QfLOyKh9BiD/Pi47/IcW5d6QI+BMwbQsPg49Gt/WK0NPvWAHp+l3LlyUenSJakhzzjB50h4vsaBDGndu3cR3w34/ZnzzbdicP/F59PEYX2EXrbXLxHYSM5n1/et1pUHlAeUB2zxwAsH6PGlCBk+qN0gMgcgZwT0knZz7uo9qtdzsUjy80ifm9zSFhBJrWEBnADL/PdQTnKFuTDv/llUBEfvOQmWf0Alxx40GajWIGEWwB/ylPiBLZzHnSoU8CDXZ5G0+6/HdO4uCvNY3Amw78TVaIfkGER5Mzwj77SWxNrQx/wDz+DeaOFumSmiUF8B5iHNlpIRekSCZ82MjvYCRPXuRzc5Ig7DtVEVEVFfGIA7qAyI0ANAoYAOItY4B1FqWNGiRVh9YpxYN4tG48CXX0wjqEfAFi1eQhs3bhLr+j+IWCNyDUk+WY0RoPqzqZPFdZEvAf3pYB7M4UcXSaJ43adO+1yrvFirVk3q2aO76Bb3BxWYxBpKxqMaqDQowiDSCAPtQnLpDx8+QpOnWH7IZVssocbx7dw52i4MOnv2iuHV455By8FrDEPBIMwmfTJ+rNjGH6M6DhJWS5cuJY5DS71Dh85WdA9cD9eV9pSj1Nu2bxcRQejQJ4cBtGCWBQaQ2qp1O5EvIBVA5DXMBjDymHFZhhNoR4z4WNuN9wXeHzAM4Kbxay9t9ZrvCfQGaUgylAV/sG/t2nW0fMVKeTjZlqACQb0Ir5s0DBwwgDAz44yJWZvn2ff5F1+Jgbi+D1CPSpYozpVZQwQNC++RZ8+iv4z0DW1cB5DFexIDCEipxjerpu8yLkCvb4PZVfDQIZ+KpOKEbBonwcrgjL7tr9u204YNG0kP6PE5xcwQDBKuMp8FvxWQm5X2/ZqVpoBeHte/91ALYOEiy3sSvymLWN4VwBxJ56DPGAfUCDSYGWbhECxBhd9Fi78TCehm7dQ+5QHlAeWBlPSA3QD9uTN/a1Po8T0QAIWk3QDQI2KP6Lw+Qo8vX/wooW21rgvo+q1H3LcLZShQmwG6k0hQRVKrKDIlLhYVLTUZxTz7tBT6hCvJMqUG+vMuDPz5+5iK5nSi8kU4wYl/LPeeC6MzV2JoIRgEAMjDkBzrmSaE5leZKrbFH76P0AeWaoQxOy1rIT4lyKVgOyGRCAlB3Leer4xW4O0WLFzceGqit0GjmTN7pugfffbo2UfjOcN/07/6nLfviQqP589f0PrHFPbUKZME7WLXrt30NStYwHCfC+Z/y9rnPiLaDyk5vckBBPjkAEXyh1DfBvsBmgCecL6cNZCJo6jQOHzEaKvof7p06UR0F7MMeI1herUXgBBEdRNrevlHCQTgJ1hjLprTtm1rsY5BZbfuPa2ST8UB/mPkz/ZiQC8HTdCk/njYR6IpJO+6f9hTrAMoABzAAEwBUGF4Lyz9bpEGKM0SbePj/mKKH0oju3btEZ8Z0WkS/syeNYOyMkUGhkHdBy3bUAOmLoA3D7AC28YgC+oj8vUQO+P5g/fON3NmipkpNMNnunOX7trrDJqRrNppHBiN5IGAXlFnwMAhlBJ0hg9aNKfmzZtqT4Hcgf4D4uZZpwagB+8b74GUMDHgj541Sah/WwC9vg/4EgPPXTt3Ww1Q9W3w3pfUK/1+zGwtXbbcCtDrj9u6ro/Q689BXgryU/TfI/qAwTQOJGCmxAjo9X2YreO7pE3bDlq+iFkbtU95QHlAeSClPGA3QH/s6EEN1CT0MADxiMJiih7qAxLM65cyCvrVin00c8UBkeDqle0N8kifQyTCAoRLfT4o0CBqD4lL93ReIkrPuJ+K53am8kV9KIpB45ZDD+nyLRSX4gPAkLrzuYFQxWEFesqVPpAqZzpOBUJXkl92i8IB+PphHKE3s5Cs75BX/voC0OPHCxEgI6AHP/31N8qbnZ7ofVWY3vJmuTfpwIGDsVQb4psW7tSxvahcCSDarXtM9PtDLs3+zjtvi9cBIFdvKL/epk0rAfZq1KguwF9npuY8evRYayaLMgEIIpL28OFDceybObNEYqQxOqudaFgBsEQxqBw5stP6DT8lOvkMkcCFXDEVIBr208afaTFH06ThB37et3O01waUn7U/WoC3bINl82ZN6YMPmmu75s9fSL9s3iK2+7EiR1VW5oBB0hLSljDMLAAwwC5evEQoKgQDaAV4lRaX5nmjRg0ErQnRVTMD7WHJkqWEyGZSbOGCeWLQhnNBr2rbvqPopgRHhjGrA51vREwTa8ZIOyhdUusbRb3wemLwBLnQLzg6jURUcOwxiJQVVUGJ6Nt/YGIvnWB7vN6YzXLj60mb++082rp1m9yMtczJeR54/fH9FMH3zaObWG3kDrwP5HcU9qHfuCLreG+78PsSEqBGlaIXFdBjFgs+zJ/fXz6y6RLvTWjBI3JtHAzaG9AjKJAlS2au/ltZDCbxXbRt2w7+un9GBfLnJ3xX4R7xuY+KjKLNXH/ArFIsqG/37z8Qz+vj482J3gXE+oULF2nIR8NM/aB2Kg8oDygPpLQH7Abof/5pnUb3SOihMK38+PHjeGk3APcAxqcu3qZGfZeKLt28cpGbV0EuBpWGOfAMnHkvfnMdLEFGcoyMoLLFvKh0HlcKi3KgX48+pis3+MeZNekhTenEP6oA/eDOO7m5igRbzMbnzRhMxTIFUclsoQTBG8/Qo5Q+eJ/2GKgOGx5grXYiD4b4d6AMecvHy58/c+Ys1W/YWJ6SKkstQsUO+4CTIqV6S6lSJQk8Y5gxUgrahL9/Pho5cozQYkbbb5h7qgeW3bp1odrvvkN4RiQ2Sps08RMqVKiQoDcgkiaBvjye3EvIQkIeUhoK+6DSqd70fGpE73r17hsLhIBeBJqRtGPHLNxegG38+EsKARI9Jc/fCNwxcwJKWZfOHQk5D8LY712YRgT+rpkBTIJvDzAiwa6xHaKaiG4mxgAmV65Yqs0SGKvgYgAk3wuJ6RdtkTcyl6P0/EEVp548GSN1mYupVcWY0rX/wAGrZFdjnsLKVcxp/35tYi+dYHv9bA0aYyDTpduHQjo3wZMTaIDvpVUrl2k+xXdZx05dEzjL/PCLCuhnRuvQY5YFidPV+V/69OlNH+LvU6do9OhxsY6B5oUgAwyfBXwfwGSEHscrlI8JdOCzhdwLvGeNBroLZgX0hsJXehlM5GWAXmiT8eexA79mGqAXPySW9/G+/Qfocy5CB9Pr0G/atFlU0LWpf9VIeUB5QHkgmT1gN0D/2bTJhGlbWwxRkqdPnwq6CKL00KeX0XnQbeQ66BxRHD2v2G4O3WPKiyMXbfLM+hYDeQcG9cyHd3YgN1cHKst8+NL+HvQ0OJK2HH7MX/yBQrUGXHgZxedTLMYDABfnKPLzDaBS2cOoWBYuIsWBUfxI44cEP0BhV1aTc9BZoXCDkyKCoHATEd2B9SK0xAjKkiOfiGYhGmiMzqM1Is6Dh6RuZAe8VERjYUhcBSUFhuddvHC+SKLV00VA70GUHVUYuzIQevvtWoRoPriu4KZLQ9Qb/H0jvx4gH2AfBjWjPXv20u/79gngb4zkyb6eZ/n5Z1M5+TWv6MIsORUH9JxdbMc1ZS9nF9AG78127TsJnrPkjGOGAjMV8jkA9iFlKYH4d98tE6+5nuoC6tGQj2Ki9ejbzPCeL16sqOARV6pY0UoeE9HuPn3728yLRv9+ftYJwcldHGfCp+OoSJEiHHk+y5HaXbSdo7VxGd5rX8/4iuk/WUQT+K+3Lg8krvMSu79QoYI0acIn2kAD55spECW2X9leDGS+mSU3Talo2sEEVl7j/ApQ0KAMBSndSA44IOiQVMN7EbMBHlw4b//+gzZXqDVSbiSgl/eB78YyZV4nDMhKQdc/ehCH4wC/AMHxmZ5mJQG9vj1of6NGjtA+w/pjWIfazYyvZ8abVPw8gB5JsVeuXhVBKVBrQFfCoFxPHYur0rTxXtW28oDygPJASnjAboAeJbIRlbXVMFWLaKWk3YDPCDAv/wHUyyntyQt20Zxl+/lHhCh9vrfIN1t2qlA0DRXL4Up3HoTQtj8D6GEIqxBwEiyi7y6sXY+qjZGsVY8fIgB/V+dIKpAlhEpwJL5oFm7DgSMJ4sWPIAMpgClELJ2vzCCHYEuyKZ4n7GkoPeO+jRblnJaiXhsj+Mn4Ucb5ZoD+4+Gj4lTWMPaZHNvQPEcJ9OxMX8nA0+YZMvhSxgwZNXCoB/S4Xp/ePUUETl+JVMr9gW4C2gnyA0BpAaiEFCRAup8OLEIKEnKkesN7omnT97VIJo6B8gO+9oafNiY5Mqy/Btb9/a2TMJFMev78eWMzwfPXJ4LqJST1jTt16qAp12A/CkFVrlyRatSoLpqZlYBHEh+KU8EgjQj6yexZX4tt/LFVPUY7gVfg84+GDBSAWe6f8fUs2r17j9xMcIkZAkRHpc2e/U28oFu2s3VZkOkIAYEBnOB+M8FTpGKSbGjmR3ksqUtElCEFiu8TafiO6T9gsMbvl/uTujRWIsZAZtbsOUnt7oU4LyFAr79JJLxDHrZ69aoidwIJ7PheiM/iA/QIHkAyVuZ5AFDjezuW8QDwe1ZgwuBMDqb1baCqpX/dkfQvg0zI0VjOCk56O3fuXy1CD0D/9azZmiTt5s1bxedEqmPhnrp07W5FN9T3pdaVB5QHlAdS2gN2A/TeXp509MhB8y9ik6cE7UavdgMgLSPzcglwD4D85z/XqfWQ5fRmiSz0WqnCFOqck7YfD6THARaOq162EpcKDwxmcB9B6TJ5UMHsIVQqSxAVysQFpPg3wgjicV1E1pHUiaUzk+//XNOGMvk4c3IsR/jZQh+GiCq1YkP3JyxNbnIt1V/8EOGHBAMDo+GH4I2y5elJtCKP8XhybhfmKe12LEMolW7wI3Xn7h2muzwSzyf3GwF9WVad+fjjoeJHEtQBcP5RLRGRTtBtTv/zj7hNqLkU4+ix5Eq3aN5MFGaJL/qMaXpExitWLE/++fLhBRB9gTs9bPhIMTB4Xh/IPIDE9hMeHi54/5gt0hvkGCHLKG0tJ7m+/XZNDSzoK73KNvrkVoCNRayugYGBNCRjGikD8lh8y1w5c9L06V9oTcyim9pBkxX5OspDgwYPFfKYctteSygMgcKFQS8MSbSIghp9/zz3g0qk48eP0RJ1RV/8Wowd96lQYHqevvXnGiv/Gmen9G1flvXEAHr5TJiZy50rJ/3JVZUTMjNAjxkbzPy15JwVfOfDkFO1ZcuvIncH25gNA93m3XffxqYwUOlWcPJ5QrUS9LOSegUu2Q++syXlBt+Vbdp14EH4DFEEDjNzGPDXZD16GFS6oMqlTHlAeUB5ILU8YDdAjwdMDO0GQBc/6pA0RAQNPF4J5OUSgB4AANPQw75YT78eukrB4a6sdvMOJ8EGC5UbcONhUeFIeHUmr7RRVChrEIP4YMqfgbnyHKkHiMePB/6hPz2IB5DHNvYDkIcH3KDbv+mS9HjMEPowWFzD+CfUtyylLdZW/ADgXtG/0exFt0HC19CPBotngXoMIkxnz53TImf6HzcjoMez44cNMyKIAIMLPZ+pNA+jJeNkNExGe6EQAaUIybFftmwF/bhuvfHRY21DNacFq46gIBEMQPl55QqNSZaxLprADgDvjSxvpze8jlCuwWsKw3s0M4NFGLjYHTp10fwqdvIf3MdiVvvBewmG2QpQM2B6tQ2xIxF/8NqAry1nfhYsXETg8tpiej1vtMcA2pZoqi19J6YNXncMBn19YzjYekWkxPQVV1vIaEICUr5mst3SpZx3wEm/yWWenmlp3txvtNkufDaQTC6lYJPrOvbuJymAPjH3aAT0p06fFnUnkDsiDfS+kaNGcyJufho4oJ/YjdwbqCchUCGj7bL9PxxoQJ0ImSsD+lLJkiXlYZFgD4lcGAYK+/bF0IJQ4A4DAj2gb92WhQMMdSNkZ6PHjKO//z4lN9VSeUB5QHnA7h6wK6BHEtyG9WttfkjQbvBDCFk7LCWQxxKKMVhK2s34+btp8dqjLE8ZQb7+1ZlD78u68FEUwhKV6X2ISuYnKpUthPx9wwT4kSBe0mn0IB6ReGzjH45jeldO8d44s5X+2fk567c7UxZfD3oWzgo3T0K1Z7LEly2bobkakg9LaQK4IaHLDNA3eq8JnTptiXBrnaTAitSL37HDfPo/PkCP28EPKAAgolJIcEWBJUm3kbcL1QsA/VCmNSHiPAcJkWyJkcdDe2jfYzrcTMYRxxNjoMH07hWj2jN9+tfM1Wd6VhyG9wU48hJcImpuJmWoV7TRdwW6CwY9ZjZs6BDSU3pkG6PijtyP90t7BipI7ENU0oy2YCzCNGr0WDp16rTsIs4l3pMTJ4wX+Q2y0fLl5so+8nhKLEGBwWwH3jvSQHX4mGdn5EBR7k/KEt8TUNNp1LC+Nvsj+8Ggdt78BXIzWZZN3udCa61ban1h8Dt2nO1UQ+3EF2zFnoB+PQ+wQjmAgxk+aaBsTZo8lasOX4+zsBTuEb6X37MIBI3gGUSZD9SyZQsCzc8Wg4rP7DlzYwF6BHggeymT39FXSikx2XKfqo3ygPKA8oD0gF0BPS46ZvQIatvGovctbyKuJWg3iMAg+QhfzgDaiLDhnwT3WAcIO3zqGjXr+51QpnF2z05+xUtT0azBVDpHKOVJHyHaSGCuB/H4gpZ0GgB4GYmXbWXkE0vMGtz/ZyU9PhtdBIfRe2RIBEUEhps+QmihnpQp7+sCNOEaclAgG0OVZBzzr5PTUCgqH1NXLly8yMVoLDMHeC5EcWEzZsyk3Xt+i3VJcF47dGgn9hsj9NhZoUJ5GjJ4YPRrcUsUQ9IrucgOJYVj+/YdQqoxrgRU2d5siUhqVY7SQ6Vi5qw5WpOMGTOIwREGFLaCPXk/6AT+wLNhujw+M0b7AC6NcoJ6Co2+L4COI0eO6ndp65DNg7qK0cz8iDaNGjVgQN9WNAfHFxVyQV+AbCLoDNC9f79xI6GghEbIP0BSbELPB3rL6FEjtUELzsWAuV//QclCcUJ/thjUUTAwxGdDGsD8+E8mPPd9oE9EU+FDM63zLSxJOI9zP2x9H8n7i2+JWYBhXIdAAkq0lfSz+M57GY6lJKDHZ71b1y5a0ji+81GUDQoy1fkz8zNXZMYsH2ZpYfqZJRmhlz7047ydvn16is8EhAbw2yEtOQA9+sL3JL4vpUEyFjk/ypQHlAeUB1LTA3YH9HhYWyUsAaDBoQU9AVF6ABUAeT2YB6AHCA+PiKTaveZTvsxpqWKJjOSXmRNfGYRLYI42+Adwq+fE60E8fohxjvxnfGFwP0FPH9C9qwco4O45Rog3iJ5wsl/AA3LQ5HKiz+J+wl//hLJkyymij7gO+pUGUJrcUpV4rq++/ExQfDAAGjjoIw3cyWIqxkRP+KdBg3pikCUHHGaAXk8ZAbccVRMx1W0ERHJggDbw9+rVXAWUK4EarWuXzmLX6jVrrGQLIVWHpEUAMj0Ywg/15Emfij5/+20vfcWR9oQM0ogopiXNOECQ+41LAF5UjpW2w2RWA/5YsmShuB/ZDkC7fYfOcSZXgo6xiBWD9IAPlV87du4qBouyHyzxWsyZ/bVGy9GOMYXj0eMnmm68tp9X9JVv9fv165iJQU6BHuTiNURk/7QdZopwL1Cxadu2TayCSZhZQDVQ+DEphtk6SISWe7MslXn9dQ0g6vvCLMcCpmHIAmf6Y8+zjtyRUSMtlYFlP0h+HvZx8sw0yD5Ta9mYB476QMwsHmijIuzzGJK68V4sx3UzjHbnzl1atnwFPWC9d5mjI9sguNC3t2VgDNqfscgcAjaoV4Fggt6QQ5GJE2yllSheXMjtYhva8tDKl4Y8IfDzjZQbqO2g2jRoYtJABRrHszCovK1MeUB5QHkgtTyQKoAedIplXCVQrzgQlwOglgK1GwB68BxxjjFCjx/yB4+e0l8njoluAIYAmhKKxKNNQiBef18A9AAbmMJFZAgRX1GKPZIjR6x64xh6m5x46RR2hxycmK5TrIdIiMUPF+5FAnr8WLRp1zHZAZS/v7WaCwoYXbx4STxCixacoBo9hY1oM8AGQF2pUiXFAGkJSylKtRMzQI9OwMGXP75x0RWknKX024CBg2P9sIJe8eXn08jL20tE3cA9RaEWROChEILXBFPek6dMk90wZYKj1e0t0Wr4vXWb9tqxuFZksSx5PDE8V73MJSTxOrEMJa6rtxHDhwmpPrlPr08t9xmXeq17HNNX5jW2BQAZOLCfVrjGeFxuI3KJXIONGzfJXbGWyKFANVwk9OoNYH7ut/NFUSP9/pRYB72mUcOGrAZUzWpQg2uBXoXXW0ZhsS8xhsEscnSgsBKXgRoxZ+63QkYyrjaJ3Y9Ba8OG9QWtB/cgDbkUwz4eQde52vX/gxmr6uoLqiXl+ZCA//HQj8R3gDwf70UEAhD8kIaADjjw+Hf58mUK5N+DSJ65Ded/MEcUGeE4iRN/5ztHB21c+LvWjQMCmK1E0agNG8yj53qaoS1Jsd179BS5HqhFYTQMzD/74kv666+/jYfUtvKA8oDygF08kCqAHk8GygIqNSYE6s1oN/oIPYAyCrcgIi1BPH4Q8A9RXvzI4h+28eOL9gD8MgovQbYt3sYPDu4HgwyAO4B7/ABhH/4h+od/AP64Bp4NXGUMQHBdGMA8OOVIHE1uw/NNnTKR8IMDIA+qCO4PhvtBdU7QEOQPJu75jz+OcSRspeCmSpWauAA9klX7Mx0GAHcEJ6fhGmYmE9zAe+3dx5K8ZmwHn7RiTiu0q+EjaaB+rFv/P/bOp0WKI4zDfXITFbzsYZeIHlZBT1FQUHMRIczHiELc2VwSloiwIYcgRhcV/xwDelAPEY8hLNGo1xVyNzGfILCnKHgIEVJPQa097UztjDPOlPEpGLt7aqan+qne9ldvvfW+P4XMmp0+49u3fxQj6zAI6TWYSOdgC4sb13+I7MM0QrUaImFcunT5tRmF+nfq+7QLP3naSWkmzOI9Itt8sdBmN5Z+4m23Wp9W7fmT6StRxDJ4yRX87nFP+Tgs6Jv64JVoZKDL4AzXLRbW5gqL/xa/+rLDak3/s6ZgoxjhufP2U7d7966Y1Gtubq7rx3FRIoZ3ule7fqiPN2dnZqpzITQuA+h6IULJnTATtLLyS9d1CPXPDrK/d++e6EJFGNh64dlw9vvzIx041M8/if3m4HjYhF8M7sg5kJ6/DOQuX7kWZ2S//Wap4z4d5nofPuy+ZohzDiLomR3G4k/oy1TIcNyMuU9WXDI+D3svp99wKwEJSKBfAhMT9DQQS/2F5XPrYRS7NTq53RBJhBeCGaGOeOc/AR6ciDdEO++nVxLxCOlhRHy9TQh6Xkm4I4hoH8fs1198j5kDRD1tQlDjZnM6+IY+efJ7/bQj3YfL7OxMGOD81VW8wAKXh+BYFF2ZSFgz6cICM0T92tpa1ncai9u2EM+fwdv7WOhbwnwyoOVvAbenQQohLpeWTsdZI2ZoWPTXdEsY5Hz9fpZ7fzEsqv7kyOGOr9D+28E3mrwD/F2NouCadfbMd1EQMsj59cGDkNDqUYdb1yh+h3PwjGFWK4Uu5D0y7V65em3DARaffZfKqa8XQ2jZV/23EvzaiSAzTElZcJnxXF6+WP0Z7kkKsyzHw2wcg+phCy5cGC26lUEEPc95CvcyhezFDGoOBcMUA3/uBUqvBe6x0n8kIAEJvEUCExX06bo2Wiib3G4QfIgABDSWHR6uPEix2iJyEIbJEo/4of5NLPGpXb22SdhTn/bZJnHPlmPEM4MN2oI/6KgXwPZqn+9LoBeBrVu3VAcPHIgLo7lHx1X4GyATMQKIQTjRgH68c3c9Asko20G+hU1Tm6L7wziukYHKQnu+unf/frwmnk//t4JFffOHm9cv69nzZ2FQubZ+/CY7u8KMTbv9eYheczG6VTbPsXPnjmr/vn3R4IObHsn5pkK/8lzllaz7fI9+joaWsJYKdxyMPf8EYwVuTy8arnLpdwYR9Mzy3Lx1u1pYmH8tqzDXwUAZtyBmZiwSkIAEJkGgCEHPhRPS8sSJz2L0gGQFSUCwfOOqgjsGPpUc8zBHvCPmsYKz5fhtifjUll7bJBzqW/TSzyGGOYllxhGaslfbfF8CJRBA1JMoaHX1cXSTK6FNo2oDA3fdLAanyT0xqQHQ9PR0yLK8JzaaWYKm/zt9euzY0Vj/b8hjwiJgfP+ZaW0Wok69fEkyxL+bVR5LQAISGAuBYgR9uloyyrZarbD48mCFpQ3LEGIdiwvWeaz1CHqEOwIeqzwuLTx8k5hP5xrnFqs8ibDwG//j6dOQvfC34Ad+bywZYMd5nf6WBCQgAQlIQAISkEBZBIoT9GXhsTUSkIAEJCABCUhAAhIom4CCvuz+sXUSkIAEJCABCUhAAhLIElDQZ/FYKQEJSEACEpCABCQggbIJKOjL7h9bJwEJSEACEpCABCQggSwBBX0Wj5USkIAEJCABCUhAAhIom4CCvuz+sXUSkIAEJCABCUhAAhLIElDQZ/FYKQEJSEACEpCABCQggbIJKOjL7h9bJwEJSEACEpCABCQggSwBBX0Wj5USkIAEJCABCUhAAhIom4CCvuz+sXUSkIAEJCABCUhAAhLIElDQZ/FYKQEJSEACEpCABCQggbIJKOjL7h9bJwEJSEACEpCABCQggSwBBX0Wj5USkIAEJCABCUhAAhIom4CCvuz+sXUSkIAEJCABCUhAAhLIEvgPAAD//zmP0a8AAEAASURBVO2dB5wURfbHCyWJBBVEJYkCgmBCxXhmvfO8ZDjDGck55xyXnCUoUczhzN6pd2cWc/qbA4gIKEowAXKi4v99C95cbTMz7MzOLjPre5/P7vT0dFdX/6q76lcvVal6DQ79xZkYAoaAIWAIGAKGgCFgCBgChkBOIlDKCH1OtptV2hAwBAwBQ8AQMAQMAUPAEPAIGKEvoQ9CuXLlXMWKFV358uVdmdKlnStVQm/UbssQMAQMAUPAEDAEDIFfOQJG6EvgA1C1alVXqVLFEnhndkuGgCFgCBgChoAhYAgYAlEEjNBHEcnx7/vtt5/bY4/y/i62bPnRbdywwW35cUuO35VV3xAwBAwBQ8AQMAQMAUMgEQJG6BMhk4P7Q838V+u/MiKfg21oVTYEDAFDwBAwBAwBQyBVBIzQp4pYlh6Pz/wBB+zva7dx4ya3ceOGLK2pVcsQMAQMAUPAEDAEDAFDIJMIGKHPJJq7sCzVzhuZ34WNYJc2BAwBQ8AQMAQMAUNgFyBghH4XgF4Ul6xZs6YrU6a0M1ebokDXyjQEDAFDwBAwBAwBQyB7ETBCn71tk1LN6h54oE9N+cUXX6R0nh1sCBgChoAhYAgYAoaAIZDbCBihz+32i9W+bl0h9CJG6GOQ2IYhYAgYAoaAIWAIGAK/CgSM0JeQZjZCX0Ia0m7DEDAEDAFDwBAwBAyBFBEwQp8iYNl6uBH6bG0Zq5chYAgYAoaAIWAIGAJFi4AR+qLFt9hKN0JfbFDbhQwBQ8AQMAQMAUPAEMgqBIzQZ1VzpF8ZI/TpY2dnGgKGgCFgCBgChoAhkMsIGKHP5dYL6m6EPgDDNg0BQ8AQMAQMAUPAEPgVIWCEvoQ0thH6EtKQdhuGgCFgCBgChoAhYAikiIAR+hQBy9bDjdBna8tYvQwBQ8AQMAQMAUPAEChaBIzQFy2+xVa6Efpig9ouZAgYAoaAIWAIGAKGQFYhYIQ+q5oj/coYoU8fOzvTEDAEDAFDwBAwBAyBXEbACH0ut15QdyP0ARi2aQgYAoaAIWAIGAKGwK8IASP0JaSxjdCXkIa02zAEDAFDwBAwBAwBQyBFBIzQpwhYth5uhD5bW8bqZQgYAoaAIWAIGAKGQNEiYIS+aPEtttKN0Bcb1HYhQ8AQMAQMAUPAEDAEsgoBI/RZ1RzpV8YIffrY2ZmGgCFgCBgChoAhYAjkMgJG6HO59YK6G6EPwLBNQ8AQMAQMAUPAEDAEfkUIGKEvIY1thL6ENKTdhiFgCBgChoAhYAgYAikiYIQ+RcCy9XAj9NnaMlYvQ8AQMAQMAUPAEDAEihYBI/RFi2+xlf5rJvTNjj3WtW7Vwn32+Wo3clReRjGfOmWyq7BHeTd56jT30UdLMlq2FWYIGAKGgCFgCBgChkAmEDBCnwkUs6CMXzOhP/HEE1yXzp3cqlWrXN9+AzLaGvPnzXEVKlRwo/JGu/ff/yCjZVthhoAhYAgYAoaAIWAIZAIBI/SZQDELyjBCb4Q+Cx5Dq4IhYAgYAoaAIWAI7AIEjNDvAtCL4pJG6I3QF8VzZWUaAoaAIWAIGAKGQPYjYIQ++9uoQDU0Qm+EvkAPih1kCBgChoAhYAgYAiUOASP0JaRJM0Xod9ttN1epUiX3008/uU2bNnl0GjSo77Zu3eo+/nhZDK1q1aq5hoc0cK++9rr74YcfYvujG6VLl3Ycu8/ee/vjNmzY4H7YssUf9t1337lffvkldkqZMqXFX31P9/PPP7uNGzfG9h944IGuTp3ajrJWr/7CrVixwn3//fex3wviQ1+5ciVXqtRu/npcN55w79WqVnVVq1V1P/74o9uwYaMbOybPlS9fPqkPPfcH/pUqVnTLP10hvvwr5fyf8l1i9913dxXl9xBXDuCe9txzT3+98J74rUqVKm6LYLV582ZXtmxZt8cee+Q7v1SpUq5Ro4bugAMOcJ8u/9Qt++STfHhShokhYAgYAoaAIWAIlHwEjNCXkDbOFKGvWbOmmzhhnHv33ffc2HHjXY/uXd0xxxzjUbrv/gfc3/9+tzv++ON8ECoEGILep29/FyXJkM/zz/+LO+fsszwhjgdz5y7d3FdffRX7iWw1PXp0c19++aXr0bO3ENX9Xft2bV2DBg1ix7Bxz733uXvuuTe2b2eE/oILzncX//UiJ2zXLbrpZvfvf/8ndi4bkO0/nPd7d578Va5cOd9v+iUvb4x77/339av/3G+//Vy3rp2FzNfNt3+LTHBulOs8+dTTsf21atV0E8aPc1988YXr2atPbP9vzznbNW9+jVuzZo3r3qNXbP8+++zjZs6Y7h559FF38823unN/91t39dVXuffee8/ljR7raCeuXatWrdg569ev91l+1q5dF9tnG4aAIWAIGAKGgCFQ8hEwQl9C2rgoCD3k8cILL3Dr1q1zkNcvv1zjSf7kSRNk33q3915VXNly5dyChTe4xx9/IoYkmuO+fXq5I4880muMV65c6bXH5cqW89pkrWsyQj9t+gw3ZPBAn2Fm6dKlovn+1DVp3MST/FQI/aWXXuL+8uc/+XrMX7DQPfnkU7F66kYLIdTnCLFGVq9evd0S8Yu/5/r164tmv5SLEvpDD23k+vTu5Scr3N9rYqn4TiY3WDNOPP54Jyd5TMAGQRO/aOF8v795i1Ze085+JjBMZJA+ffu5zz773G8ffvhhbkD/fm7+/IXuiSefzEfo58m+YUMHu7322st98MGH0hZr3dFHH+2xoi6DhwzzGn9fkP0zBAwBQ8AQMAQMgRKPgBH6EtLESpLRABdGVEO/auUq73oyY+Ys9+abb7kZ105zaI1fffU1T3CnTpvuifLFF//V3Ssa87sDjfkVV/xNNN7nee39zFmz3dtvvxOrEu48c66f7b937tzVffX117HfVEP/7TffilvOD971Z9as69zrb7zhj2nVsoU766wzvXYeUq+SSEN/1VVXuN+fe653F7p+zly3ePFzekrs82wpr6WUi2sL5PvZZxfHfmMjXtpKNPrjx41xNWrUcK+88oqbKXXERUelWbNjRXvexWHBGDNmnHvn3Xf9T5MmjvfnYNH47LPPPI5z51zn3WnKlCnjbrv9DvePf/zTH/s70chfIxr5ESNHuQ8//ChG6CH85cuXc2Xl+Jmzr4thS/vnjRzhdpO66TlaH/s0BAwBQ8AQMAQMgZKNgBH6EtK+mSb0wPLaa6+5yVOmeYSGDB7k0Er/97//9S4j33zzjTvt1FNcO3GJeeQRcQu55VZ/3HHHNXPdu3X17i2DRFP8ifh1h1IQQs/xEOQxY8d5MqvnF5TQo1Fv2aK5J//448+cOdu99PLLWkzs8+CDD3Ijhg/zLjfTr53hXnppx2PiEXq0+Wj1ca3p2r2HuBttiJWpG506dnAnn3yS9/fvP2CQ363aeCZDr7zyquP6eaNGuqeffsaddtqpPs89+e4RtRq0bdfBxxOoyw2/bZV7GjN2/A4uQGNGj3J1xf1n7tz57qmn/+fuwzkmhoAhYAgYAoaAIVByETBCX0LatigI/eAhQ92yZdsIeb++fcSF5gj32OOPu4ULF3nUTjrpRNe5U8d8hH6wuMk0PvRQ99xzz7tZokGOSkEJfait1jKYQDRu3Ni98uqr3lKg+0MNPeS5Xds27pRTfuN+kknBNCHqr7++TcOvx+tnm9at3BlnnO6WLv3YDR02XHfn+4xH6IkraNasWcJ7pIBGDRu6oeIWg7Rr39FbKy4RawZxBXfd9Xd3/wMPuj//6Y/usssu9dceNnSIKyXHtpVjCY4dNHCAq127lmvfoZMvIyT0+NTjWx8VXHRw1blJ/Pcf/de/oz/bd0PAEDAEDAFDwBAooQgYoS8hDZtpQr9s2TLvi63wKKGH+EKAkSihJ1sLLiRoyFULrefrZ0EIPdr/TuKOE2bA0fPjfSqhJwPOp+Jrf8IJx3sXmiliXXjr7bfjneL34fpDfW4XV5eHtru6RA+OR+gJGsY1KerLH56Lf/vsWTP8LnWBOVkmQJ1kArR48WI3+7o53keedoO0DxzQzzVp0sTNmDHLvfDii/5c7kc19krosXgMGjw0vFRsG5/+pk2Pcnfccad78KF/xPbbhiFgCBgChoAhYAiUbASM0JeQ9s00oSfLzegxY2PoKKEP/d6jhJ70kqR5RPoPGCjuJitj5+tGQQi9ZrnRc3b2qYT+888/977paM9JDzlhwqSY/3q0DFJRLlwwz+9ONPngx3iEXvfdsOhG95//PBYt2n/Hz/7mmxb5bSXptNGY0XkSdPuxz0Yzb+4c98Yb/+dw98HXH59//Pwpd8H8ue6xx8QacsO2MpTQa5YbX3DkX5/ePYXQN3V33nmXe+DBhyK/2ldDwBAwBAwBQ8AQKKkIGKEvIS2bDYT+iMMPd/379/WIdujY2X377bc7oKuklh/CyQHfNSg2XUK/atUq0V4Pcf379Yv5++eNHhNzG+IaKtWrV3fTpk72X4ePGOU++ugj/Sn2Se76mddOd6UlABVN+fvvf+B/Gzd2tOTFr+M0jWfshGBD006ya+iwEWLVWOqDX2+QTDfEIUyePNXhnrRQAnEfkwxBZBGaOmWS95efOGmy9+0n9eW/trvOGKEPwLVNQ8AQMAQMAUPAEMiHgBH6fHDk7pdsIPQhWR8gvuyfygJQoZCbPm/UCJ+6kv3J0laSh76gohp6CH3ffgN8+sahQwZ50r1BFpEaPjLPp6MMyws19NOmX+tefvmV8GefoQY3GHz2kTBtZdcunb1bD4G20yW9Zjw57LAm4kbT3//Upm372CJdTCKYTEDUyWTTq3cfv1gWB2oWnH8+/LDPEhRmyDFCHw9l22cIGAKGgCFgCBgCIGCEvoQ8B9lA6CtUqOBdVID0Fsl687Bkv1HBr76n5FzXRarY3717T7dm7Vo9JCMaegg9gg/7iOFD3b777uvz6A8fPjJfikyOwd+f1Vtxm8HNJZQrr7jcLzSl+0JCT8Bth/btvFsPi0GFi2Pp8T17dHfHHnuMaP6XuOEjRupun7seP3esF1t/3uo6dZGMQNvlissl3ecfznPEEFB/4gi+3p7W0wi9omSfhoAhYAgYAoaAIRBFwAh9FJEc/Z4NhB7oRo0c7urVq+fIJT9ccqjjPgPRJ6c6RJiFnU4//TQfOBvV4mfC5UYJPXVhpdnhw4b6wFe09yNH5YlLyyZ+8tK5UwcJ7D3Jp58cLSkylyxZ6sqUKS2LaV3oc+y/+eabrqFkq0GbHxJ6JidYGg466CC/oi4++GSmUSFXfitJm4kMkSDijz9e5rf5d/nfLnN//OMf/HcNjtUfSQtKelCE8lq3aac/xfLQmw99DBLbMAQMAUPAEDAEDIHtCBihLyGPQrYQ+kaNGjncXRAWa2Ll0lq1arlysqIsC0zhH46veNWqVd34CRP9olXaBJkm9JRb7+CDva8611+yZIlf6OkHqRdSXbT3uLngI0++ejLk4MtOth7qPSpvjPezZ0IS+tBzLnj369PHVZHVctevX+/eeuvt2EqxpO2UFD3u3vvuz7fgFudp7n6258hiV08/8yybXgikJfMO18PnHt97FdPQKxL2aQgYAoaAIWAIGAJRBIzQRxHJ0e/ZQuiB7/jjjnNt27Z2+Mwjmzdv9u439wnB3bp1q8+x3qRJYyG798gqs/f7Y/hXFISeco844nDv6gJhZtXbSZOneALPbw0bHuLwid9777356nPXPyULPd162+3uB1k4SjPaRAk9x1apUsW1b9dGyj/CWxzYh+Ams2DBDbEVbrft3fa/fv16buSI4f5L167d3TqZDITSpXMnR0wAi03NmbstCw+/G6EPUbJtQ8AQMAQMAUPAEAgRMEIfopHD25ki9JmCADeVevUO9sGl5K2H1Ger4GaD+wyacfLvx1v5NVnd0f7XqVPbVapYyS0XLX88n/pk59tvhoAhYAgYAoaAIWAIFAYBI/SFQS+Lzs02Qp9F0FhVDAFDwBAwBAwBQ8AQKNEIGKEvIc1rhL6ENKTdhiFgCBgChoAhYAgYAikiYIQ+RcCy9XAj9NnaMlYvQ8AQMAQMAUPAEDAEihYBI/RFi2+xlW6EvtigtgsZAoaAIWAIGAKGgCGQVQgYoc+q5ki/Mkbo08fOzjQEDAFDwBAwBAwBQyCXETBCn8utF9TdCH0Ahm0aAoaAIWAIGAKGgCHwK0LACH0JaWwj9CWkIe02DAFDwBAwBAwBQ8AQSBEBI/QpApathxuhz9aWsXoZAoaAIWAIGAKGgCFQtAgYoS9afIutdCP0xQa1XcgQMAQMAUPAEDAEDIGsQsAIfVY1R/qVMUKfPnZ2piFgCBgChoAhYAgYArmMgBH6XG69oO5G6AMwbNMQMAQMAUPAEDAEDIFfEQJG6EtIYxuhLyENabdhCBgChoAhYAgYAoZAiggYoU8RsGw93Ah9traM1csQMAQMAUPAEDAEDIGiRcAIfdHiW2ylG6EvNqjtQoaAIWAIGAKGgCFgCGQVAkbos6o50q+MEfr0sbMzDQFDwBAwBAwBQ8AQyGUEjNDncusFdTdCH4Bhm4aAIWAIGAIlCoEyZUq7/fbbz61a9VmJuq9UbqZMmTJur72quJ9++tl9/fXX+U4tX768++9//+v3lSpVyh1zzNF++7XXXne//PKL23333d3PP/+c75x4XypWrOhOOulE9+orr7qvItfQ4+vVO9iVKrWbW7lihfthyxbdnbFPrr9582b3f//3pq97ugUfcfjhbvmnn7rvvvvOF1GhQgW3554V3I8//uS++eabdIvN2vOM0Gdt06RWsaIm9AcccIDbbbfd3Gef/a8z3W+/6q5cuXJuxYqVqVW2AEfvsccernr16v7Izz//XF7AHwtwlh2SSQSqVKkig8desSJ/+ukn98MPP8igsdlt3Lgptr+4N6ZOmewq7FHeTZ46zX300ZLivnxGrnfF5X9zp57yG/fU08+42++4MyNlJiukUqVKbp999vnfITLAf7/5ez+oMbiZ5EfA+p/8eGTDtzGjR7m6deu6O+R9efChf2RDlYq9Doce2sgNGTzIfSokdcDAwfmu36VzJyGre7o5c+e5DRs2uJtuvMEJG3ZXXHWNJ8UXXHC+a1C/vrth0SK3du26fOeGX8488wzXulVLf06PHr3cmrVrw5/99o2LFjomFwMGSF2E1O9M9t9/f3fccc3iHvbOO++4Zcs+if1WunRpN2P6NFdFJi4PPPiQu/POu/xvDRse4vt7JicFESY4s2fNcJR319/vdv/4xz/dn//0R3fZZZe6pUuXuqHDRhSkmJw6xgh9TjVX4soWJaHnhZg/93r3oZCnsePGxyrBy/Ltt9/u0LHEDijExl/+/Cd36aWX+BJmzZrtnnv+hUKUZqemg8D55//FXXLxX+Oe+vVXX7tnFy92d97190JpUOIWvpOd8+fNcWhaRuWNdu+//8FOjs7On1u1bOHOOutM9+//POYWLbqxyCt57u9+666++qq411m/fr174smn3H+kLhs3box7TGF3HnLIIa68TP5DbVlhyyzK84u7/8k1fNLBHs1yndp13GZRCCxZsjSlIiCP182e6d/7Z5591l1//dyUzi8pByci9CjXJk+a6DbJ+9ujVx+veLn5pkVuiyhgmrdsLdr0Um7a1MleQdOjZ2/31VdfJYRk0MD+rkmTJu7dd991o8eME6tIdf/9iSeejJ0Tj9CjgDvm6KNdgwb13ezrrhcrwv8UBVgLevXsETs/3Ljp5lvco4/+K7br1FNOce3bt/V1516wROj7+Njjj7uFCxfFjk22oRMTjtGxwgh9MsTst6xBoCgJvXYit99+h3tIZrlInTq13bixY/x39mdaRo4Y7urXr+eLfemll930a2dk+hJW3k4QUELPoPCymF+x0FSqVNGhbdl333392S+//IqbNv3anZSU2Z+N0KeOpxJ6BtkXX3xJ2rKUq1ixkm/HAw7Y3xeIJWxU3hg/SU/9CsnPmDJ5on9upk6b7l6RZynbpbj7n1zDJ532O1ncKDp16uhWrlzp+vUfmHIRhwnJPPzww9y//v2fpIQ05YKL+ISDxKpQq3YtV7NGDVezZg3/Hnz//fdu/fqv/MTmhRdfEEvZtwWqhY7FoYYeTfSVV1zuILDzFyx0EG/66ltuvtG74PTu08+h3UaDz/jN+79q1aq4Vu+9997bzZwx3U8AJk+e6j5e9rGfKHCNUaNGuw8+/NDXUwn9vHnzXXVxgzrm6KauVq1asXu4+eZb3SOPPhr7vu++1dwRRxwR+84GfVLNmjVdlNCPGzta+EUdd//9D3jNOsceckgDN2jgAG8VeEisMwWxaqpFByvu8BEjKcY09B4F+5f1CBQlob/4rxc5zHWDBg91n3yyzTT2xz+c5y4Xt4ExY8e5d955N6P44OYxe6aQRNEqIPgFtm3XId+MP6MXtMLiIqCEHg1ul67dY8eg7bnggr+4v150kd/Xp28/ccX6PPZ7UW8YoU8dYSX0mzZtcm3ats9XACShT+9ejkFbtXL5DsjAl1wirLui/8klfNJ9HApL6NO97q46D81282uucUcemZ/I4gazdetWt5v4tCNsv/baa+7GG29O6LOu98C7GrrcnHDC8a7FNVc7XMQ+kwn57NnXu9atW7q58xa4CePHep953CR5t/FJ79uvvxs1coT3KcflJOpTr+P6WnGz6S7uNri3XHrJxe4vf/mzW7dunZ+IUY4Seq0Xn1vEl/7DDz9yb7zxhnv99TfiuuqEx/fr28djExL6Jk0ae+K+QXzeu8n1Gfvx/ceV6Oyzz4yNOSj4UPQlEnz8uU9k0qQp7nWpE2Iaeg+D/ct2BIqS0I8YPtThQ9+ufceYe8XAAf1k1nyIJweZ9m8/8wzx4ZNOCT9AfH+R8RMmujfffCvbm6FE1S8Roecm6WBxucIUvnDhDe6xx58otns3Qp861MkIPaWdccbprk3rVr7gESNH+YE59askPiOXCOuu6H9yCZ/ErZz8l18LoSd4989/+pP7s7iN0j9ChJ977nlPqn8nWukV4nM+ZOhwd+CBddwhDRp4ssw4h9b+pptucbgURaW++L7j/84k4be/Pcfh8viPfz4sJPcsGZu3Wdhw36sjloBGjRq5a2fMdO3atvExbkuWLBE3mAZ+PH3t9dfd6aedls+yjoKmtpxHPBx9AJr2F154USb374kFr5qPZTtRJg4o2BaLm+Xs6+bECD3HqQ/8Komvi04QovcRfg8J/YGika9R4wBXfd/q3nceLPgjQJfJSFQg+oOHDHNYFeNJn949XdOmTb01qL/4+avf/c4IPXFj14hr4m3idUC75ZqYD32utViC+hYVoWfmP2/Ode5ViZRX14qyZcu6eeJT/8EHH+bzqU9QtZR3oy1s2vQo98+HH3YnnXiiwwz4uBDGBUIco1K5MoS/VCyKvVq1at4d6I03/i/2EuNvfaSY+z6Sjg1tcyIhVoDz95HrodVgQqER/ETJa6eAxoCOpiDyX9FmaBnR48sJjrWlI6tTu7YPTly+fHlCDQ2Y0xa4TKBlReiIGzVq6Cdbny7/1C0T64nWMXqtdL4nI/SUhwaIzn9nhJ77bCSapX0FW7ImLJMAqIJmGMB0XK1qVVe1WlVvIt6wYaMbOybPd/LqF6n3xkBaocKeflAJfcEPPPBA/0zQvqtXf+EHVAaLeEK78i6RTWP156u9z3eiY+Odz7NTV0zse+29l/tcrBYrxL0g3vmtWib3od/m3rRtMsuEOV4Z8a6faN/OCD3noflDA/jww4+4W269LVFRHvvq1fd1Ffes6DYJjrwnDOT8hbiHBRSWsPKe4+ZVpnQZ//xvEF9hnnW0gmgMMymp9D+8g5UrV/aXD/uIsD6JnsvwmMLgQ5/FM1tJnt3ln64Qd4qVPotHWD7b9IMQTNqItoIooT0mkwj9HULfdthhTTzGS5d+7PfF+8d9E2TNO/3zVtp9U+wZ5VmNp+RJldBrnxe9Pu1NuxdUCooP5SlGEEbFhP7rsMMOk3au5N597323Zs2apJdu366tO/XUU/xzia//q6J951nt3q2rDwx96umn3dy582NlUG7LFi1iQaOTJotGWTTcoVx04QXuoosuDHf5bYI7caPp0L5djPguXvyc92Gfc/1srxDr0LGzj4Vi0o6Q2GLgoMH5npEF8+f68cUfEPmHBWHt2nXS1lW9VQH3FXV/iRcUy3NB233xxRf5SjpaCPZBBx8U2/ebk0/y/Swa+saHHuqOPfaY2G9+QzBjEsF4waQEX3rGjwsktou+fNq0a90nMmZGJdTOXye+/M8KHirJCH3jxo1dF3EJIxh3uYyn3Gcqz5leY1d+GqHflehn8NqZIvT4tE2cMC6lmj3yyKPu5ltuTemcRAejJZgrEwgGnnHjJ7gTjj/enX76af5l7tyl2w6Edc51s1xF0W5cceXVXiNyibgHYcpksjFyVJ7M+mu4oUMG+UEXMkxn+dZbb+e7PEQZ8nqOaDviaQM4mGtrIBGdz+DBBfMBjZeRgcHwD+KyhCmTATSU995/382cOXsHwquE7L333nN5o8d638NuXTvn81tkssI90/lmQpIRetoJTTn1HzpsuGQNiD/4o0EisDbfBEg6agYhAmoZLOIJ5f7hvN+78+RPCVP0uDzx9wYvlWbHHut69OjmvvzyS0fgF5orBle0U6Hcc+997p577g13+XZv3aqFpGs7Kd9+eeB84Oqtt92WbwDMf5DzAxODKr6eUaFd/inatEf/9e/YT8kIPc8+gz+TWsjRhImTCp3NR5+feC43Wik1t0MmeE+iwiSHtjz++OO8j2709y+/XCO494ru9t/TJaz4TV988UU7tKFe5KmnhByJH2+mJNX+p2LFPaW/ut5fvlPnrjukEuSHE084wXXp0skTqT59+8etajr40B70AXVlAhkKMS833nSze1KwCaVb1y6+7UaOzHOlZfLLMwaBZULWt98A794woD+W123P8L3yntwdeU8o72wJ5kb7DFGOJwREQiqjkiqhV0tJtJyFNyxyjz32eHT3Dt9TxYcC6D/oR+6+5x537733u+OPO07I9jWu0vZJG8fgljZ+wqS4LqC4wHTt0ln6oDXyDk2OuSLS50Ow6Qfj1Z/f80aNcAcddJCfMODGGGaf4j1gosV4BvFl8sizv16CWwlmVxL7rfji540ZI5rr1e7a6VNdVVGGdJbnEiI8YdxYrwWfMHGyjJkV3fNBoonBgwb4Y5msUPcvpA/98osv3Woh5exj7GS8gly/8uqrMQ19PEJPu7WSvhSXGCwFKjpR1u/6ib/9u++96ypXquyYqPM88kdgLO9OVGFEu/J7IiVH/359xV//cF88bkVMelR4bi+TZBuMV4xbCGM+LsX0f7QDk927777HZ1JiIpZLYoQ+l1orSV0zRejRMGp2GS7XsOEh3uSGaY2XGsH8B1kiuAZNzFtvvZWxLDTNmgkp697Nazdw8Tn88MO8fy/XHTJ0mPv442VsxkQJPQE7EPfPV692NcQ9iJl91249HAMUgZzUHd9Y7mPGzFmx83mB+/bpJZqqI/1kgYAtNN3lypbzmm/FNST0mAcvv/yyWBnRjTBoNPQP5Diu11MGjWOOOcZ3HHSqXA+txnFy73RWdNbEJoTpQJWQQejnzV/ohg0d7O+Hicu6dWvd0ZJdgMGZ+mOKjKchi9ZzZ9+TEXrMkpiPMbeOGfu/zEdhmX4A79jB0SWSEYe2qy5aVkg+xOmJJ5908+Ve4kmL5te4c8452/+0Wtp0W7v/4vHh+QPHZIR+2vQZonEe6DGhQye7SpPGTfxzGyX0mFmHDhnsfwN7nhGeo9pifSAfMrgSOzJSnjHV2oV1hgB07Nje3xOTPmJKln78sasiJKC2WF+OOupI97Skp7whyGbTqmV8DT3awN5iLibLBJpUJrUMooUVfX6SEXpyNvfv31esGKtdr959810SjCAcEASeLepEYJ3PXCLvA9rzkNBD9iAUBZWeks0iqtHDWjBwQH8/aQSLjwXTdevWS3+0ryc+kKNME/pU+590CX1h8QEbjXvgnSfX+HdCcsgwcqIoQej/olZNJfQEO7Zt29oTeNoVbSokHEUFWtO1gjH9O+SwQ6fO+ZpQs42wEz9rnvMtP2zZ/l7W85rTkNCrtjpfIQm+PP/8827mrOtiv/Le/P7c38W+16tXz7+L8Qhx7KDtG+ngw6khof9UrB09ZNLzsygd3n77HRkftsq7fJR/HuP1XVgSx40b4+s4bPiIfJl8GDPGSrAnEo8Es7/ewQe7kSOH+75t0Y03uX9L8G9Umou/PC43uO3gSqJyxRV/EwXIee7vkp6RfpvgWLTRKOh4tw6SSR+TSgJNEY4ZNGhIPg03AbsEoyYS+j61HNywcL7v70iIgX86vFceOVe2TFl3jdSRSWHUEkEWHp4rlDmMYyrEX23Z8oNMdrZZJHU/gb48AyhfXhCuEQr9AX11VE4Ty0g7UeKo7IzQ03c3b3619wLgnI8++kg8ARb5cVTLyKVPI/S51FpJ6qrEMzooJjmlQD8RcY6/dBgUSQaIatWquo6duhSojFQOQst5yim/kRdYiPeMWaKpLy2ajev8LPqBBx70Wt2wPAg9/odLhSy+/8EHjg6mk5DIk2VgevXV17yfIi/1/vvvJyR4iGjuP/DETMvQjpAZ/8xZs33Hrb9RLloVRLUc+luiT2INRo4Y5jEjQGjM2LH5NC2/+c3JrmOH9p4YTpw0JV/HBnHs2bO7H1g5F19mFSVkdH7ly5eTjrOMmzn7ulh9af+8kSO8dSJTPtDxCD2D1lVXXeGaNWvmOz00uWvjWAQaNWwoZKyf211Mo2iYw/gHtXBsFU1Irz59PRHU++QTDWBLIbyYO3GzevbZxeHP3jIAVlGXG9XQQ0R+kAGC9pslBEEDopREM0BA6lXatmntrUD4Y44bN8GtC9yyGOQG9u/v9t5nb3efDIYMmKEwSZw0cbwfxBNp7tAA4ZqwUgiwitYlTFvJcX379PZuVPEmdXpuOp/6/CQj9KrlY/LbvEWrmPUE8/bgQQP9II0pGte70O0ALWa3bl2kHbdZRqgfbnL9+vaOVRXNIuXglxpPszZJSGbos4rvbt6okb4NIXpMYsPJVHOZ8P1WJnxPPvmU/LYgdp3CbqTa/6RL6AuDD9ar8UIcwfSVV17xJDicwDMpgbzjtjVmjCQtEI0yooQe94WtW3+RlIRjfV+L3zQuio0bHyoulBP85BUrKZPLK69uHnsOSEnYS/onrGp3SG5wfLhDURe8WdIv4TOOkFCBlIUI44hOCJk0RgXXH8pNJPTfKJh2RujTxYfrKqGHcOLfvmLlKq8A4tlGINOQavBu2aqNV8r4H+SfjiUEhdK3h3Le7891V155hX/2CUpPpPmdOGG8z4QTLzUnSozZM2d4lxDGeSbdlIPVDM0zLilMAnDNof/gXcfdkDHxj3/8g3+XmIRjkaYdXo5kKFN3lLDe4TYTuG7de/pdTAjxxU8kPCM8X5pWmGeRQFraZviIUZ44h+eiNeceCipk0EGzHwqThTGj8/xEQ/cnIvQoH9as+VIUhts0+VhRsRjz3CZqGy0zmz+N0Gdz66RQt6Ig9Lg6XC+5f59+5lm/WAXVoVOms+fBRxOTSeGlvx4XGtG8Qa7RXiNoFjC94fsXNVl7Qi/1hMR169HTk0A6NHwOEbRRBAJBEKZPm+p94/AfRFjoArMz6oVBotXWDD7+R/mXKqHHF5LJDvl4GbDQ0uBbqgKhmT51iieHuGDcetvt+lPskwkBBJHOe+pUSfEn5k1ECRnbEGG04qG7Cfs1TRf+mWhHCitK6OOV86lovIcPH5kwPmCUaJrQqGEaZwAOhXubee10jwPaGgYclYPFx3LE8GG+40+UySBRUKwSespiwMXKwcRIRUl0SOjRoDNppU4TJ032xEaP188zxPcU0kOZZH5g4FSByEJoeTYZPArqz611UULPe9W/Xx+PGeVT90xmDtLnJxmhD93tuE8l7aoVJO4BV6aQWINDPEKv+OhnKi4ltAVxEmgL0TxPnrKjpr8oCH06/U+6hF5x0c9U8MFyhQUL15qu3XsIedugxcQ+VakRanKV0HMQfSCTM51csy90ncS6ghWhVeu2/pmm/xwvLhtMOm8R98qHxc0yKvEIfXhMqi434blsF5TQp4sP11BCzzaBpwMHD8mXxpX7X7hgHj/7vkDfEb7jhgmek4TMqxKB/UjvXj3FitrUK5mmyIJ4iUSvz6RrmPSvoRDvQCCpChPd68RHn3eFWCaEvoN3nO+8p1hCmfQyyeM3+iesj2jsv/9+s1gAx8cUTkroUb68KVZ3Faz2TAhCQs++0047VSYXe4mFp8w2FzzR0v/0809us5TL/SuZpxzGRPLgI+07dNpBu66EHiucrjlDPnp4Da47H4rmHMEFF+1/lNAztjL2cjyTGXXTTETofWHyD0UeaTBJhRpOivX3XPs0Qp9rLZagvkVB6HE36CxBIqHGRQdvgn3iReMnqF6BdhOdj9sMPmy426gmT31QKQRCodoSviuhv/XW2ySI9hF2xVJToXElBy+CJpWsLAxiSui1A2Zywj1GJRVCj9kaP8T69ev7DoWOJOzsKRvyiGYNid6H37n9HwFHTZo0zrfokBIyDonm+NVzcS/CRekm8Z8N/bX191Q/ldDTHgSIlpfVWcGEQQJZvny515xGJ0JgQZAV2hj8FPFXjErLls1FE3/WDloiiDMEmnM4N54UhNCTpYCVAUPBHEvgE5MkrDcIbkO4DzF4d+oik7s4wmDB/eDbPl1ceV56eVu6NAggpmf2x7tenKJiu0JCzwQDawbaNDRFxEiEz3jspEJs6POTjNDTh6DhQrDIURe0tFipykqbowmHHERF+4RQQx89JhXCeuih21LzoeXDtzteJouiIPTp9D+7gtD36N7VW8gS9Vtgj4VsqLjlIfSlEBcl9KEGmbU+IEJg3VXaHF9rRN0jlNBrUCakDs2wul/6g7f/yxZCny4+3IYS6p9k8j5SFq6L13exYBN9W/8BA2NukUxC6ZfQfoeTYcqknyCJBL/hYoi7TiK5/G+XefLM5DlqAe/Zo/sOgaO48j351FPuxy0/en93gnl5Zw8Uwn6sWEYg4hrHhUXrb1I+Y93rr78Rs7xoXZTQhwoPflN3oZDQXyxWgdKCwSOyIFRBEhyoOx/P2a235ldkPf3MM37MRkP/jCgPr58z11eJvPknnniCt9LiPobouBEl9FdfdaU7V9yzaLcxYmWCRyDR8UfvkckOFn/GSTArKWKEvoS0ZFEQejWr0bHoS6uEq6AuKKnAi88cQZD4K4Yr0qIVmSukorQQp5C4U7a63LQQ86dqDvWl1Y6M46KEXi0NdMSJFrspKKGnDAZLNP64ieSNHhN3ICCYkOPo1K5p3jKfuZY6qrDs9plnnpEvJ7gSMsgz6wHEEw06Cu873nEF3aeEHmKnLlfca716B/ulwdGgMukaIUF2+PGqKCHjO/vjmTCrVK7iTcfLli3zPv96rmZmQGuP9j6e7IzQ86wSoBjvutHy1FcfbRIuPIlECQ4uN7jeILg8YE1BUnVzUkKPywTloB1nAgiZD11PfOEZ+KfPTzJCrySQAQ4iB364S+gKj23btc9ncdJqZZrQ49L1+3PP9c9OogWIioLQp9P/7ApCT9ICnpdoLIi2B5/a37Gtz6YSelzgcG9BlNCjlSU1sIo+70ro0QIz4fyXECACbuNJthD6dPHhnpTQk2EtSjz1ntV/PCSLxD5NnbItUJa+Pex7dKKIZbWj9EvxfL+1bO376TfDZ98rg/DBl/4XoQwUK8Qmffvtjr7kHINPPj7oxBC9+dbbPtMXVkysx89LnNAnyz7JZ0nQcZN6MkbFRK6JUiMk9JqHPl48AKk1cWkJhckE72w8IT6N39Ml9ChUrhXrO9lpUDSyUNeNi27wlwrbiB16j2CC0q2kiRH6EtKimSL0BEn9SWb1yCm/Odl3GmGOcXzAIdhhlgHIEG4thZWpUyZLcFV1HzxI5H4oSlajvuUQ+oqiNSbLjYq+tKFlQQc41dAzODFIIaGmRcvgs6CEXn0n6cSZHKj2NyyLbUgKZIVFM9qJ2TGRoP0gNVdoYVBChm8npC+eaO7dO8UP9YEHH4p3SEr74hF6LQAt0MCB/X32kWhgIpoSNCZo9nFFSSZff/1NjEjwXKk5O9Eki7J2RuiTaYqjdcEnmADlna1GrOb+cOlxBkt83pH2HTrKILuj60P0evpdCT3XJR81gdQQedyYVEuqx2biU5+fZIRe4zuWyUA/eMi2SaM+s8nOyzSh1zbBkoLbWTwpCkKfTv+zKwi9Pv8EWUf7ScUKDTKaZIRYJGKSlNCT5UZX/FRCH41FiBJ6vWYy61+2EHqta6r4gJUSes1yw76o0EfRV4WBrzGXEhkDrrqmRT5ljZbJuJDM3YbrDJCgdPy60aCHmaY05SWujoxduFLdddfd3mqKFT0dQesdpoLWcZNrEBCsgvKLiX0yQs/4SlrK008/1bsNErAbKnlIhACvWLlylbjUPO+1+x0klgxp3aZdTEPPeIFCDyFRBX7x5MPXsrBcM7mJauhRInF93FjLlClthN4jaP9yFoFMEfrQj7agYIS+lwU9J3pcrVo1Ja/5tnSZEDLVtutxTDT4gzR36IgP3jbylC6hVxMg5ZOn99tvv9VLxT7BVF0QElkk6Khatmjuz0k22HGA+nhzD1dHOn1fwPZ/GqT5lmhVyHKCKCHLFkJPnTR4Feyw4nBfyMknn+QDk9H0oOFLlIffHxz8iw2Ksi9e4BSHEqeA/z3WmkRBsakQes3WE50oBtXym0r2CNp7cPtkCQ3YqFHbtDxRTVD0/Oh3JfT40D8s8RTEDaBhImiN1KNh7EX03HS+6/OTjJirhloXj+E6ZLwis0k4uYxeXwP+kuGeissNC9mRajScPEWvidUAkhElotHjCvo93f6H4GwIJJKoj1C3rngxQFq/VPAh5gPrWLwgbS1vn332cTNnbJsMqR9xuoQe3+Kbbtym8dTJgV5HP5ngT5P4IJ7hUJGiv/NZXD706eJDHZV8p0romUChtca9JnS5QUE1ZfIkUayXckMkTutjsUgmEvy+Z147zfdtd0mA5v3iEoIweZgvLjs/SrD6nLnzfFpMSPeAgYN9cGsTcSPcp+o+PjgW69qiRTfFLkGqSQL67xLL4lfrv/L7UfLTVeNLny+lo2TFueyyS31WmTBpQDyXG9XQ01fUqlXb1RWlhFoPqAP1T+b2GT6fV0ngNcHTaOgLKlFCH55nhD5Ew7ZzEoFMEXo6JIJSzxQ/5kukMyDwFWKJnCXZR3jxyC37niywoYKbSWH90M6XpaW5XkGETg3fQSRdQh+S9XhmQ/wdSdNHkCoSpq30O+Rf06ZHeXcEMEvWwejxZEwhiwHCEtyrVsXXXg8fNkQCfw5xj4p/ImkvESVk2UTowyCttu06+DSL1DWMFcjLy58rnt8TSaihJ5PKy5KFIRRwxtccP3gkWrZOmJIRy7A8tnVCFp2UhMdBVuYJacPsjIZNLTCQOYK42U86OAbNgkpI6BeJppVBE59nnjsG2dFihSnoRKgg19TnJxGhR8M2edIEf/0wHkDJOq5VaNKigrYQAk7cRJi2MnocsSM8F7Mk2F2D3qLH6Hcl64k0mrij4ZqARK1DWkaqn+n2P7S9kt2QyOn1eedZgp5nmyBn8ovHk1TwIc85+c6J5SCmI56Qs5yUnwhZVWj3dAk9gZS68FA0Da9eGy0xMVdImLZSf+eTwExSEpOhhVSKqYpayRZKkH1oIY6Wky4+lJMuoedcXG5wvQkn/RqcjIsTrk7J5IrLJfWk5EInPoHxJnTNITEEeeHfljTBLACnhF7L0zUkSJRAv6hCLneCS9VVFWULqUlZlCnav6iGnsk7bjkq9En0ufE09HoMaSRx28Kqxr3ubEEmVYaguGvRsrXPDQ+h55lWVyeC8QkkZnKweHvWJL0ezyTPdDwxQh8PFduXUwhkitDrTRNYhCsCRE2DU3F7IeiyjQzs0c5Az0v3k8AszL9/lwUdNFdutKzReaMc9xlmvkiX0IeatWjWBrQpmite69Bd0nWtkYAwFepB7nIGavygyXuuGmo9JvqJFgf/Ttwr4mV/4fjQFYg4AjU/KiHLJkKv/udRf0/uQ7VkyQL3OC4qZFBiQokrQZi3neNUg6znZILQMwDjB0/bMFF98cX8+Y65lroQMYhA2ggwVFHywISWQGcmBgWRKKHnHDJkkOkG6wODIyZ33JYyIfr8JCL0eh8MsKSmUzJx7LHHyLvQ3VdBM6NofXA34Z0kBz2yPoi10GP0UwPQCxLfoQFu1IHYjTD7RP369X3AG0QaefbZxZLpY5uGXK+Vzme6/Q/XwrWF5ydqpaGPgczjNoAkI/Sp4ENaX9JrQvx4HnXBO3+R7f80gPKjj5b4FS/ZXRhCr+9z2Pfq9XTSp99DhYvu4/NQcYuAjPKuMMlI9dkuKKFPFx/qWBhCj0sJQadkXBsk2XEOaXiI16bjj86zsWzZJ1xiB2G8QTOurq5RVxhOqFOntrjkrffuefEIvU4IORZCzUKPkHJNKMG1SWnZtm1rb0WYI4GnTz/zLIfHRAl9bEdkIx6hp66Ln3vO59zP53cfOTf6FesaE3ctk/VJWA38G8FOJxPRoFiUDtQR917ccBJJJgg9kysmEUyccknMhz6XWitJXTNJ6OlgIFZoUoYMHe6vygBKpD5ppRL5cCepXtKfeFFnz7zWm+wS+bNTwIUXnu/+etFFfvbfTiYaTCrSJfSUN2p7akU64OGS8x3NLoMwbhgMCpjzWaUWPEItPjl8yTVPLmmyIIyWINgtYpaOJ1GS73M59+rhB2NypGvGFM5lkR58suvWres75VCjo4QsGwg9QUis4kr+Y8ys0awI3AuTs8GSrYfsKPGC9yBAxzVr5lcuDM27nTt18Ku1kpJvtKRuXLJkqfeJvPDCC73rx5tvvim5qBv6iVQmCD11vepKCcKUPNEQUgIDQ8tJgwb1/QI+TDJCzTXnIZiOWeQLUktQK/mno3EDDFaVxV0sNG/HI/SUR2A1xItn7nnxNZ01+/qdThQ5b2eizw+Tc8gU1g4WvqouExpWSCabBMKE+r777o8Vh4sTrhRMXImVmSD48N5hueoki2kdLG5HZO1gdchEWnwK+xuERQZj3jGCNBm4VdAAsr6B5uk/Snxn+/bdFpvwzyC9K/vbtWvjswqRVg+ykkiLr2UX5LMw/Q/lK9kNXZWYKHYQ7SiWNrLKNBX/3mSEPhV8eDZ0VVGIDfEmqnShPlhSW213AxwiRFIX4ysMoYeoQjjpz0gjio839YDMU/cV24PfDzroIG9VxLoYldCipRrj8BjeNfrTaJ+pxxSU0KeLD9cpDKHnHSHdJ30F7oasWI6EgfR+R/CPfrBd2zaO+BWEGK/hI0Ym1HDrpCjU0Ks1hj6TazJWM1kiZTMa/enTpvh+SoDd1l/HWSmbayuhj/bnyVxuwnGRMhAIddmy5RJq0DlGU4vCJ5RjsD+UKKHXZ5D+FR/9RBPCwhJ6go0JfEaSxXKFdc2WbSP02dIShaxHJgm9msPChZwwuZGWMTQnFrLKsdPP3G5C19l67IfIhnYs7GZQQVtUGEKv2QcoDxMhmmby9/JCoxknLzlmVAg8RA+tKaKBgv7LTv6x2NDoMdtiA/RQzWRAB/uWXIdML/hAHnnEET5OANcF8gOHmQKUkO0KQk/HqSQV8gUeEEIEMrdgwQ1xB2HMpWgKORayC6YbxUxas0YNT/ghUixoA84qkF805mipuS4DF+SIwCzaZ5SYk8ln7LWfkpUmzHWcjssN16UslgtnEoL28I3/+z+fprN27VquqawMSV3efvttT9bjpevbd99q3loDLrTpl2vWCsFZ4QO/IL5YZKIWh0SEnvroYMd2sqwi/F5Q0ecn2fGsXTBv3oId2pJl0XG1QwjoZrn5OuI+A3m4V8jBM6LpmyakASLWUszn8ax35DQnlRyfaJTJU73huw1+YkBwMenvwkW7NHUr10SxABdB0817yvoE+BtDhJYuTZzelHMLIoXpfyj/DJn0t5HFyZBVK1f55esbyLPEc0OOa0gaLhPJfOhTxYf+vl+fPt5nnYkobpG6UiyWHgC7VyZmd0tKVJXCEHreEd47yCrtzHuJQoO4JvptXMRY/wNFCPd8+x136mXzfYZrhDA5X7bsE7enlAleTAauvOqa/BlWgrOV0JNidsPG/1nJiLeJunymgw+XKgyh53zINZpnTe1L/4alLTpJIWaD1b1xbSV2CIHcYumlPRNJlNAzeRmdN9LVFSUQfv8vvPCSxHRd493bsN6gfKEPZkEuRLP3sCjU62/I6sLyDqpkitA3adLY58vHUgAhjt4719O881hEsYzGEyX0C2VxwZfFCo6vft/ePb2SKGpVD88vCKHnuRu8PfA/PJftww8/zK8wz3av3n3EYvAFmzkhRuhzopl2XslMEnpd3puV3tS0pRqk6HLRO6/Zzo9AK82gHvqMJzoLbQPaUEgE+WoLQ+i5Bhk62ooZEqKK4FbBoiloKTEhKrEIg6QKS+i5DgMfmmEGSBW0Oi+J3zjLdlOPUJSQ7QpCH9YDQrVJFsta/cVq96JkaMHkGq/D1nPQ/JJb2ZNd3SmfuK08//wL3gf6U8nYEAqDDy4gEAaE3MJPScwEGQxwCdEsFpkIitXroinjGYdMMwiqcD0yBjG5TXafTDpoz6ZNj/KaSz2fCQA+qSxcEuZwT0boORcCDZFGkmn4/AEF+KfPT3go7jeQo89WS/3+9R+/inL4u24zIfurkDX8zOXm/G5IHKSNAZnfdRXIkaNGJyyH9sSVr74sOKblUBgT15tuvjnfol5M4FhRGTxVcB/BDQsyqSk2eTZatm4bNy+6nrezz8L0P1o2wcO/l+xOxBIgWP1YeZJJkro9JCP0nJMKPhwPmW4vFosjRBEAsVNhASEm2UyaQikMoaec2qLs6C4+8OpCRP9I+y+68SYfP6MTv2R9FOXgwoZ1D422Cu8JrhTXXjsz4XumhF7P0U9Nranf9TNVfDivsISeMiDoKDM2izUMt41Qk4zFpocsZkjwsAr3TqA9Qc7hsfp7+Bkl9BoDhA87rnI6bqBIwKJ10UUXeIWFlkFfhNVv9KgRsgjUz/lctqKEnj6xUqWKPgAbhQdKGSYJiGb6wd0NRY3MIP3+0ruXdhfKNZkwhO5e/sft/yiX8iD+XiHw7GIJgq/vKleq7JMekF2uklgGWamXNuQ5UwWSloNFqmev3vkmJPpbMkKvcRyUuUDG2ZUSx/aj9CEI/f7eomQCM4LOUTzg8pes39drZsunEfpsaYlC1iOThL6QVcm50xlY6tU72HcaaPy0UyyOG0EjTbAgudMxW2vnUhzXLq5r0IHXleDJaqLJBlvI4BrRYicbvOiU0dihGcSCEWqSirLe1JW88GSnwJfz889Xp9Sh4zZV44AaonXc05+PdifZfRblvWS6bAZXrHcbN230bhzp3hdtyorAaDHXCJlXV5t49cW6UatWTa+lD12h4h27q/dB5hs1aihWhB+9tjXddzkVfLhncMTHulLFSm65THbi+dRnChveD9KsYl1b/snytFOsMgGpUeMAn0//+03f++wvRdXvFic+O8MZdxhdLZwJNelEH3zgIbcuiVY+LDMk9KR0nSjWTIioBivz7KCQQ2FEGyFMgJl8X3Lxxf690/KiwclRQs+k+jpZKZ46I+FaBbh84W6XTAj2J4uXimZ70u98kvoTt0Umm/GEPkbHC9z1mFTgUka/8MQTT3rlV/S8ZIQefAj+py9LKmKFmi6Ty9AlNunxWfKjEfosaYjCVsMIfWERtPMNAUPAEDAEDIGiRQCXKLQrjxqWAAAEDUlEQVTjxNSgKU5FQkJP2kosZ40bH+pdEdEko8kmwJsJM5avRx55xD0uxBdiTLauNm1auZNO3JaNaKasGIuVVCVK6Nnfu1dPb21gjQxcY5aKwgvBSnPO2Wd7Yl2hwh4xDbq34MpE5UOxpmFxD+8PNzmygiEkD2DlaWIxIOdkSYKsfyl/fPptqT+T07AMzsW1snPnjp7QM5GJatCTEXrOZ6Lyu9+d4ycS5WUyvLtYFXbbrZRYuXYT163N4vL0lZ9orVixksNzSozQ51RzJa6sEfrE2NgvhoAhYAgYAoZAriNAkHqTxk3cpu83xdJJY2EOYwhYS2bvvffy7rJRssv9E69RrlxZH6Qd4oFbZPXq+4pGfF1stWpcCXGnCeO5wnNS3SYWD8tAYa1IuOWE2cbCemD9wVKGfCJWpBCb8LiSuG2EvoS0qhH6EtKQdhuGgCFgCBgChoAhYAikiIAR+hQBy9bDjdBna8tYvQwBQ8AQMAQMAUPAEChaBIzQFy2+xVa6Efpig9ouZAgYAoaAIWAIGAKGQFYhYIQ+q5oj/coYoU8fOzvTEDAEDAFDwBAwBAyBXEbACH0ut15QdyP0ARi2aQgYAoaAIWAIGAKGwK8IASP0JaSxjdCXkIa02zAEDAFDwBAwBAwBQyBFBIzQpwhYth5uhD5bW8bqZQgYAoaAIWAIGAKGQNEiYIS+aPEtttKN0Bcb1HYhQ8AQMAQMAUPAEDAEsgoBI/RZ1RzpV8YIffrY2ZmGgCFgCBgChoAhYAjkMgJG6HO59YK6G6EPwLBNQ8AQMAQMAUPAEDAEfkUIGKEvIY1thL6ENKTdhiFgCBgChoAhYAgYAikiYIQ+RcCy9XAj9NnaMlYvQ8AQMAQMAUPAEDAEihYBI/RFi2+xlW6EvtigtgsZAoaAIWAIGAKGgCGQVQgYoc+q5ki/Mkbo08fOzjQEDAFDwBAwBAwBQyCXETBCn8utF9TdCH0Ahm0aAoaAIWAIGAKGgCHwK0LACH0JaWwj9CWkIe02DAFDwBAwBAwBQ8AQSBEBI/QpApathxuhz9aWsXoZAoaAIWAIGAKGgCFQtAgYoS9afIutdCP0xQa1XcgQMAQMAUPAEDAEDIGsQsAIfVY1R/qVMUKfPnZ2piFgCBgChoAhYAgYArmMgBH6XG69oO5G6AMwbNMQMAQMAUPAEDAEDIFfEQJG6EtIYxuhLyENabdhCBgChoAhYAgYAoZAiggYoU8RsGw93Ah9traM1csQMAQMAUPAEDAEDIGiRcAIfdHiW2ylG6EvNqjtQoaAIWAIGAKGgCFgCGQVAkbos6o50q+MEfr0sbMzDQFDwBAwBAwBQ8AQyGUEjNDncusFdTdCH4Bhm4aAIWAIGAKGgCFgCPyKEPh/fwmkm1KpnlAAAAAASUVORK5CYII=;" vertex="1" parent="1">
                    <mxGeometry x="560" y="252.5" width="510.81" height="150" as="geometry"/>
                </mxCell>
            </root>
        </mxGraphModel>
    </diagram>
</mxfile>